<svg width="24" height="24" viewBox="0 0 24 24" fill="none" xmlns="http://www.w3.org/2000/svg">
<path d="M12 9.75V13.5" stroke="#B26A00" stroke-linecap="round" stroke-linejoin="round"/>
<path d="M10.7049 3.75024L2.45487 18.0002C2.32344 18.2279 2.25414 18.4861 2.25391 18.7489C2.25367 19.0118 2.32252 19.2701 2.45355 19.498C2.58457 19.7258 2.77318 19.9153 3.00048 20.0473C3.22777 20.1793 3.48577 20.2493 3.74862 20.2502H20.2486C20.5115 20.2493 20.7695 20.1793 20.9968 20.0473C21.2241 19.9153 21.4127 19.7258 21.5437 19.498C21.6747 19.2701 21.7436 19.0118 21.7433 18.7489C21.7431 18.4861 21.6738 18.2279 21.5424 18.0002L13.2924 3.75024C13.1619 3.5223 12.9736 3.33287 12.7464 3.20113C12.5192 3.06938 12.2612 3 11.9986 3C11.736 3 11.478 3.06938 11.2509 3.20113C11.0237 3.33287 10.8353 3.5223 10.7049 3.75024V3.75024Z" stroke="#B26A00" stroke-linecap="round" stroke-linejoin="round"/>
<path d="M12 17.625C12.4142 17.625 12.75 17.2892 12.75 16.875C12.75 16.4608 12.4142 16.125 12 16.125C11.5858 16.125 11.25 16.4608 11.25 16.875C11.25 17.2892 11.5858 17.625 12 17.625Z" fill="#B26A00"/>
</svg>
