<svg xmlns="http://www.w3.org/2000/svg" viewBox="0 0 1024 1024"><path fill="#00A1EF" d="m805 102 2.5786 1.837c9.129 6.5403 18.0123 13.2701 26.4917 20.6357 2.8872 2.4906 5.8326 4.8891 8.8047 7.2773 3.6714 2.986 7.077 6.068 10.3533 9.4792 1.7188 1.718 3.4981 3.288 5.3498 4.8606 5.0528 4.3924 9.7628 9.1047 14.4844 13.8477l2.6035 2.5918C880.654 167.5249 885.411 172.6381 890 178a1313.5399 1313.5399 0 0 0 3.0703 3.4648c7.5183 8.5201 14.535 17.3303 21.3433 26.4253 1.548 2.059 3.1132 4.1036 4.684 6.145 58.8634 76.8313 92.716 174.7016 93.97 365.1367C1005.332 637.4073 987.2733 692.5848 961 745l-1.2725 2.5527C943.9736 778.9512 923.5145 808.1087 901 835l-1.2554 1.5127c-10.8672 13.0921-22.4874 25.3216-34.4946 37.3623l-1.647 1.6552C857.5836 881.572 851.5215 887.4946 845 893a2479.622 2479.622 0 0 0-3.0273 2.6328c-75.7036 64.8307-170.3463 106.663-371.6973 119.7222C405.9685 1010.149 343.6103 991.88 286 963l-2.9521-1.4722C262.4549 951.2038 242.6969 939.4675 224 926l-2.3442-1.6885C212.2059 917.4765 202.9033 910.5377 194 903a3975.14 3975.14 0 0 0-3.129-2.6055c-6.9202-5.7785-13.6483-11.7398-20.245-17.8862-1.755-1.628-3.522-3.2422-5.29-4.856-7.6865-7.048-14.9564-14.3192-21.9185-22.082-1.4156-1.5682-2.8484-3.1184-4.2886-4.664C133.1485 844.4806 127.467 837.8706 122 831l-1.248-1.5522C103.6864 808.2185 88.3979 785.7172 75 762l-1.417-2.5059C42.3847 704.0076 22.2284 643.4425 13.6875 580.375l-.446-3.29c-2.6633-21.1377-3.6206-42.2294-3.554-63.5225l.0055-3.6948c.0496-19.7825.7293-39.247 3.307-58.8677l.2571-1.9796C17.22 418.7259 23.754 389.1274 33 360l.858-2.7642C51.1695 301.5593 79.647 248.5381 116 203l1.5269-1.9209c6.1325-7.6965 12.3515-15.2488 19.059-22.4541 1.2729-1.384 2.5407-2.774 3.7578-4.2073 5.6464-6.6385 11.8116-12.7591 17.9703-18.917 1.923-1.9251 3.8378-3.8582 5.7524-5.7917 6.297-6.3251 12.6195-12.364 19.643-17.886 2.2295-1.7744 4.3267-3.6364 6.4156-5.573 68.5108-61.4529 161.3335-99.3368 257.9012-112.9857 1.8815-.252 3.7622-.5104 5.6427-.7692C552.675-.517 655.4992 20.0312 805 102Z"/><path fill="#FDFEFE" d="m805 102 2.5786 1.837c9.129 6.5403 18.0123 13.2701 26.4917 20.6357 2.8872 2.4906 5.8326 4.8891 8.8047 7.2773 3.6714 2.986 7.077 6.068 10.3533 9.4792 1.7188 1.718 3.4981 3.288 5.3498 4.8606 5.0528 4.3924 9.7628 9.1047 14.4844 13.8477l2.6035 2.5918C880.654 167.5249 885.411 172.6381 890 178a1313.5399 1313.5399 0 0 0 3.0703 3.4648c7.5183 8.5201 14.535 17.3303 21.3433 26.4253 1.548 2.059 3.1132 4.1036 4.684 6.145 58.8634 76.8313 92.716 174.7016 93.97 365.1367C1005.332 637.4073 987.2733 692.5848 961 745l-1.2725 2.5527C943.9736 778.9512 923.5145 808.1087 901 835l-1.2554 1.5127c-10.8672 13.0921-22.4874 25.3216-34.4946 37.3623l-1.647 1.6552C857.5836 881.572 851.5215 887.4946 845 893a2479.622 2479.622 0 0 0-3.0273 2.6328c-75.7036 64.8307-170.3463 106.663-371.6973 119.7222C405.9685 1010.149 343.6103 991.88 286 963l-2.9521-1.4722C262.4549 951.2038 242.6969 939.4675 224 926l-2.3442-1.6885C212.2059 917.4765 202.9033 910.5377 194 903a3975.14 3975.14 0 0 0-3.129-2.6055c-6.9202-5.7785-13.6483-11.7398-20.245-17.8862-1.755-1.628-3.522-3.2422-5.29-4.856-7.6865-7.048-14.9564-14.3192-21.9185-22.082-1.4156-1.5682-2.8484-3.1184-4.2886-4.664C133.1485 844.4806 127.467 837.8706 122 831l-1.248-1.5522C103.6864 808.2185 88.3979 785.7172 75 762l-1.417-2.5059C42.3847 704.0076 22.2284 643.4425 13.6875 580.375l-.446-3.29c-2.6633-21.1377-3.6206-42.2294-3.554-63.5225l.0055-3.6948c.0496-19.7825.7293-39.247 3.307-58.8677l.2571-1.9796C17.22 418.7259 23.754 389.1274 33 360l.858-2.7642C51.1695 301.5593 79.647 248.5381 116 203l1.5269-1.9209c6.1325-7.6965 12.3515-15.2488 19.059-22.4541 1.2729-1.384 2.5407-2.774 3.7578-4.2073 5.6464-6.6385 11.8116-12.7591 17.9703-18.917 1.923-1.9251 3.8378-3.8582 5.7524-5.7917 6.297-6.3251 12.6195-12.364 19.643-17.886 2.2295-1.7744 4.3267-3.6364 6.4156-5.573 68.5108-61.4529 161.3335-99.3368 257.9012-112.9857 1.8815-.252 3.7622-.5104 5.6427-.7692C552.675-.517 655.4992 20.0312 805 102ZM397 54l-2.8867.7676C366.2654 62.265 339.243 72.0772 313 84l-2.9565 1.3403C282.7189 97.8225 257.334 113.4254 233 131l-1.8232 1.312C218.3084 141.616 206.565 152.15 195 163c-1.427 1.3334-2.8541 2.6667-4.2813 4-13.7861 12.807-13.7861 12.807-26.582 26.582-2.3343 2.6416-4.741 5.2038-7.1604 7.7674-9.7017 10.2877-18.4245 21.0087-26.5295 32.5944-1.5768 2.241-3.1732 4.467-4.771 6.693C117.497 252.0887 110.029 263.8111 103 276l-1.2627 2.1587c-24.8727 42.6117-42.2483 89.467-52.9096 137.5582-.422 1.8956-.8572 3.7883-1.2933 5.6808-6.0454 28.1661-7.1546 56.404-6.9256 85.101.0217 3.4372.0208 6.8742.02 10.3114.0013 25.0088.8676 49.6704 5.0587 74.3774l.3912 2.3502C55.598 650.4607 75.5123 706.8012 106 756l1.435 2.3457C119.8645 778.6288 133.7396 797.7522 149 816l1.3345 1.5962c14.0848 16.7891 29.0241 33.6625 45.8022 47.8179 2.218 1.8878 4.3457 3.863 6.4883 5.8359 5.6523 5.0984 11.6096 9.7584 17.6343 14.4033 1.6149 1.2494 3.2193 2.5123 4.8227 3.7764C242.5 903.069 260.876 914.8997 280 926l2.4277 1.4209C304.9 940.5214 328.6125 951.0268 353 960l2.9668 1.104C374.8581 968.0497 394.404 972.5485 414 977l3.5688.8174c28.4482 6.4144 56.8667 8.8983 85.9506 8.638 2.214-.0183 4.4278-.0293 6.6418-.0386C552.0992 986.2294 592.2695 982.628 633 972l3.5059-.898c9.1517-2.381 18.1525-5.105 27.1191-8.102l2.1447-.7165C720.7668 943.8102 771.5242 915.2525 816 878c.5923-.4932 1.1846-.9865 1.795-1.4946C835.2117 861.967 852.331 846.3415 867 829a1550.742 1550.742 0 0 1 2.918-3.3242C882.16 811.7387 893.3226 797.167 904 782l1.3232-1.8765C913.6501 768.221 920.8184 755.614 928 743l1.5874-2.7627C943.519 715.9052 954.0605 690.5177 963 664l1.2478-3.6216c2.9821-8.7478 5.5318-17.5428 7.8147-26.5034l.5206-2.0343c6.5973-25.8533 11.9059-52.8624 12.9677-79.5634l.1268-3.1472c.4306-11.6385.5085-23.275.5077-34.9204.0022-3.641.0205-7.2817.0393-10.9226.051-20.7773-1.0054-41.3504-4.5371-61.8496-.2211-1.3156-.442-2.6312-.6628-3.9468-11.77-69.377-37.7842-132.8048-76.7122-191.3032l-1.1576-1.7414C899.3471 238.736 895.552 233.1444 891 228c-3.2528.566-4.6915 1.363-6.7695 3.914l-1.4917 1.7957-1.5513 1.9153a1849.296 1849.296 0 0 1-3.246 3.871l-1.5582 1.8629C865.3283 254.4742 851.0823 263.2667 836 271l-1.9273.99C798.8443 290.0687 798.8443 290.0687 781 297l-2.5352 1.125c-7.2646 2.5789-14.7465 1.8165-22.3242 1.5586-38.906-1.5999-38.906-1.5999-71.6743 17.1484-3.747 3.2938-7.8848 5.4807-12.3413 7.668l-2.0242 1.0371c-1.685.8518-3.392 1.6597-5.1008 2.4629l-2.4883 1.211c-3.346 1.051-6.3263.9794-9.8242.914-1.2543-.018-2.5085-.036-3.8008-.0547L646 330c3.4664-3.7232 6.8073-6.2865 11.25-8.75l1.82-1.0198c3.3599-1.8682 6.7526-3.6658 10.1683-5.4294C682.452 307.9748 694.3053 300.506 705 290l1.996-1.957c6.3133-6.6663 9.254-14.5104 11.9415-23.168C724.7697 247.1267 740.9836 238.3775 756 229c1.8142-1.144 3.628-2.2885 5.4414-3.4336C772.231 218.7723 783.092 212.1015 794 205.5c9.073-5.4919 18.123-11.017 27.125-16.625l2.8867-1.791c6.1374-3.837 12.0988-7.8768 17.9883-12.084-3.893-8.2416-12.1662-14.162-19-20a2551.3812 2551.3812 0 0 1-3.0508-2.6797C777.972 115.5841 727.9847 88.5704 676 69l-3.021-1.1567c-12.5729-4.8137-25.1956-8.7804-38.2344-12.1255-2.692-.704-5.3686-1.4503-8.0454-2.21-11.6894-3.2669-23.444-5.7069-35.3867-7.8203l-2.1915-.3914c-2.1055-.373-4.2124-.7368-6.3202-1.0969l-3.6824-.6301c-18.6459-2.7422-37.7916-1.9062-56.5867-1.9741-4.3844-.0176-8.7681-.052-13.1523-.1026C471.0986 41.0618 434.0764 43.9868 397 54Z"/><path fill="#FDFEFE" d="M529.2188 507.5703c3.9573.6114 6.2192 2.8269 9.0937 5.4297l1.8147 1.6006C558.9318 531.4224 575.2237 549.5762 587 572l1.1392 2.1309c27.1446 51.4226 36.051 114.6172 36.0461 172.0732.0022 2.8957.0204 5.791.0393 8.6865C624.3556 797.8317 612.5531 838.8534 593 877l-1.1538 2.2661C584.1498 894.1604 574.5077 907.8167 563 920a761.1764 761.1764 0 0 0-3.25 3.875c-12.046 13.7275-26.9555 24.4476-42.125 34.4375l-2.2178 1.4749c-1.7618 1.1364-3.5803 2.1841-5.4072 3.2126l-2-1c.9644-1.3541 1.929-2.7081 2.8945-4.0615a2633.846 2633.846 0 0 0 2.6368-3.7051c2.5218-3.5413 5.0725-7.0561 7.6757-10.538 14.3025-19.2277 24.2826-39.7362 32.4805-62.1954l1.0803-2.9436c5.4802-15.369 9.1058-30.9586 11.9822-46.9939.4532-2.4878.9087-4.9752 1.3663-7.4622.28-1.5264.5574-3.0533.8314-4.5809.5317-2.9277 1.1097-5.6917 2.0523-8.5194 2.8559-15.457 3.332-31.2052 3.4209-46.8792.0109-1.922.0281-3.844.0525-5.766.221-20.0301-.6527-43.6687-14.239-59.636-7.9402-6.1079-15.7306-6.285-25.4844-6.0938l-3.7383.004c-11.4086.1079-22.3107 1.4984-33.1992 4.9335l-2.5164.7783c-2.7713.8688-5.5345 1.76-8.2961 2.6592l-3.0713.9976c-13.2325 4.3412-26.1278 9.134-38.8088 14.9038l-2.7097 1.2275-2.3709 1.096C438 720 438 720 435 720c1.4507-4.6996 4.216-7.7238 7.5625-11.1875a2636.2068 2636.2068 0 0 0 3.004-3.168l1.5649-1.6438c1.9817-2.1218 3.9007-4.2916 5.8234-6.467 4.9902-5.5514 10.233-10.823 15.537-16.0702a2555.4378 2555.4378 0 0 0 5.126-5.09 9610.5218 9610.5218 0 0 1 14.5536-14.449 4673.1565 4673.1565 0 0 0 8.9595-8.9046 1345.055 1345.055 0 0 1 3.3772-3.3471C507.4806 642.7864 513.9606 635.741 520 628l2.19-2.8022c12.0949-15.691 18.5817-33.3729 17.2348-53.2476-1.2115-8.4137-4.974-16.2755-8.2559-24.0523-10.5198-26.0798-10.5198-26.0798-5.9814-38.0229C527 508 527 508 529.2188 507.5703ZM297.836 533.0117c3.5563 1.6241 4.9018 3.8212 7.164 6.9883v2c-1.5979 1.306-1.5979 1.306-3.8477 2.8008l-2.5026 1.6926-2.7122 1.8191C286.7098 554.6345 278.2001 561.4018 270 569l-2.6055 2.3906c-7.539 7.2146-13.7162 15.427-18.7695 24.5469-21.1955 37.3607-81.1024 75.399-121.8325 87.6711-13.0464 3.5498-24.0663 1.1013-35.8394-5.2531C79.0176 671.0524 67.9035 660.951 64 647c-.6987-5.1575-.7191-9.4055 1.4375-14.1875C77.7375 619.3125 94.298 610.0658 110 601l2.4053-1.3916c9.348-5.3887 18.7567-10.6565 28.2861-15.7178l1.9932-1.0588a2042.5982 2042.5982 0 0 1 9.673-5.0996l3.619-1.908 3.1587-1.6535c2.3736-1.2549 4.4937-2.6149 6.6944-4.169 8.2228-5.63 14.4354-7.0378 24.4633-6.6228 1.3468.0195 2.6937.0334 4.0406.042a980.155 980.155 0 0 1 8.488.095c25.8032.3329 47.1294-1.2324 68.9636-16.307 4.0215-2.7632 8.1753-5.2546 12.3718-7.7406 1.697-1.0182 3.3767-2.0662 5.0317-3.1514 5.1292-3.3197 5.1292-3.3197 8.6472-3.3052Z"/><path fill="#FBFDFE" d="M636.625 325.3125c3.0411 5.944 1.6159 12.9198.375 19.25-1.998 8.899-1.998 8.899.1094 17.4531 3.1019 3.7776 6.8067 6.762 10.5776 9.8504 7.001 5.7402 12.3584 11.4565 17.313 19.134l1.4375 2.0898c2.9481 5.1695 2.9953 10.6566 3.125 16.4727l.0823 2.4358c-.041 6.1444-1.7674 10.2446-5.6448 15.0017-18.9646 18.685-57.846 16.0629-82.879 17.75l-2.799.1908c-4.5219.3073-9.044.6043-13.5678.8815C554.0025 446.513 543.5559 447.827 533 450l-2.3997.4602c-1.845.4172-1.845.4172-2.7058 2.6453L527 456l-1.1133 3.3008c-3.1178 10.1584-5.0271 20.4738-6.6992 30.9492-.111.6741-.2218 1.3483-.336 2.0429-2.0037 12.3013-2.8796 24.445-.6015 36.7696l.4045 2.3064c1.0287 5.5794 2.539 10.9073 4.2947 16.303C526.732 559.6529 529.3286 571.3633 528 584l-2 3c-4.4364-1.4755-5.9304-4.79-8-8.6875l-1.1458-2.1055a716.2208 716.2208 0 0 1-2.4934-4.6499c-1.4535-2.7314-2.929-5.4504-4.4038-8.1704-5.8432-10.88-11.1587-21.6156-14.957-33.3867l-.8005-2.32c-1.9648-5.977-2.711-11.3386-2.637-17.6175l.023-2.8496C491.859 494.979 493.8875 483.0274 496 471c.2282-1.3592.4554-2.7186.6816-4.0781.5807-3.4728 1.193-6.9387 1.8279-10.4019.359-1.9845.6957-3.973 1.032-5.9614l.7007-3.6524.5893-3.2402C502 441 502 441 504.6602 439.2546c3.4899-1.311 6.9167-2.3348 10.5351-3.235l2.098-.5268c2.2754-.5682 4.5532-1.125 6.8317-1.6803l2.393-.589C557.3561 425.6342 588.3447 418.2301 620 415c.2101-17.1939-2.3072-31.0067-13.5234-44.5273C605 368 605 368 605.2109 365.246 606 363 606 363 607 362c.4433-2.8946.4433-2.8946 0-6-1.7722-2.0325-1.7722-2.0325-4.3125-3.5l-2.7383-1.7695c-3.8246-2.2441-7.722-4.3131-11.6992-6.2735-2.4676-1.5979-3.2271-2.743-4.25-5.457 8.3656-4.1701 16.794-7.7955 25.625-10.875l2.583-.9026c7.5672-2.5868 16.8057-5.7155 24.417-1.9099ZM352 606c3 1 3 1 4.1475 2.9902l1.0869 2.6036 1.2422 2.875a2982.9879 2982.9879 0 0 1 2.5 5.9687c6.5789 15.201 15.9237 22.3771 31.1015 28.5195L395 650l2.865 1.0552c5.6154 1.5754 11.4363 1.1696 17.217 1.105l3.7895-.0158c3.3053-.0148 6.6104-.0376 9.9156-.0654a4076.158 4076.158 0 0 1 14.02-.0877c2.4851-.0123 4.9702-.0299 7.4553-.0533l3.3892-.0198 2.991-.025C459 652 459 652 461 653c-.7571 5.1106-3.8764 8.1543-7.8906 11.1758C428.9424 679.547 396.5004 696.055 367 692c-2.3449-.9727-4.6798-1.97-7-3h-4l-1.4375 3.4375-.8086 1.9336c-4.5886 16.0007-3.7041 36.3044 2.481 51.6621.8124 2.0883 1.5127 4.193 2.1987 6.3262C368.9889 784.8118 384.8514 815.6122 402 845l1.5474 2.6567c18.3421 31.3604 39.2782 61.5783 65.2236 87.1485 3.6923 3.6405 7.2584 7.3148 10.6 11.2846 2.866 3.3608 5.9036 6.5702 8.9063 9.8086C490 958 490 958 490 960c-18.7916-2.9812-37.6477-22.762-51-35a5811.4664 5811.4664 0 0 0-3.1992-2.8828C424.6354 912.0126 415.117 900.9572 406 889l-1.3677-1.7852C392.5932 871.423 382.2908 854.5344 373 837l-1.3232-2.477C363.5287 819.1565 357.089 803.274 351 787l-1.1135-2.9133c-2.2769-6.0575-4.0234-12.0898-5.449-18.3992l-.6357-2.749c-.6084-2.6445-1.2063-5.2911-1.8018-7.9385l-.4976-2.1753c-2.2463-9.8328-3.6626-19.2673-3.6352-29.356l-.0043-2.3797c-.0021-2.5297.0041-5.0593.0121-7.589l.0047-2.6301c.03-14.3063.2238-28.5877 1.1203-42.8699l.1792-2.898C340.5461 644.3696 345.7845 625.7656 352 606Z"/><path fill="#FCFEFE" d="M353 545c6.2862.8 10.2689 7.3222 14 12 3.6544 4.8624 7.0987 9.8743 10.545 14.8853C390.4153 591.7443 390.4153 591.7443 410 604c1.398.1004 2.8001.1482 4.2017.1611l2.5631.0291 2.7743.013 2.8917.0172c2.0292.0095 4.0585.016 6.0878.0198 3.0461.0096 6.0916.0406 9.1377.0723 17.5595.0994 32.8413-2.4423 49.4687-7.9375a1928.706 1928.706 0 0 1 7.4453-2.414l3.2427-1.069c3.4346-.9613 6.6243-1.6555 10.187-1.892 4.8123 4.3846 6.6218 8.8651 7.4063 15.3672.1785 6.682.2684 11.7787-4.3672 16.8867-8.9605 7.673-17.6406 10.7588-29.1563 11.8555l-2.6318.2548c-8.9043.7954-17.7803.9393-26.7154.8965-2.667-.0107-5.3334 0-8.0004.0127-8.5193.0076-16.9435-.2446-25.418-1.1562l-2.1863-.2316c-18.9661-2.2866-38.196-15.0063-49.8684-29.7606C361.1845 596.851 356 586.3392 356 576l-3.3945 1.2773-4.418 1.6602-2.2363.8418-2.1582.8105-1.9837.7459c-5.5925 2.0533-11.32 3.0318-17.032.7932C316.9677 577.5394 311.6014 570.2227 308 562v-3c5.2844.627 9.2124 3.3668 13.5645 6.205 4.6941 2.8685 7.943 3.2517 13.4355 2.795 9.44-3.684 14.091-14.409 18-23ZM402.3125 270.5625l2.5288.023c6.66.1772 12.2265 1.2513 18.1587 4.4145l2.414 1.2852c10.6666 6.4034 17.01 17.4431 20.2735 29.2148 2.4217 10.6224 3.4725 21.6177 3.3125 32.5-2.7922-1.273-4.762-2.6033-6.9375-4.75-5.0021-4.3903-10.9535-6.7609-17.0625-9.25l-2.5-1.043c-10.161-3.6559-20.5707-3.622-30.4377.6104-10.4852 4.9456-19.942 11.4414-29.2791 18.2685C361 343 361 343 358 344c-4.0496-18.372-1.1855-37.12 8.4375-53.1875 8.7325-12.505 20.3532-20.448 35.875-20.25Z"/><path fill="#FAFDFE" d="M434 386c3.5716.4373 6.8966.9685 10.3438 2.0195 9.864 2.6452 20.206.8598 30.1562-.5195 8.4418-1.1605 16.7258-1.8016 25.25-1.8125l2.9395-.0156c4.3933.044 7.4297.1063 11.3105 2.3281l-1.7214.3796c-26.1065 5.8188-47.5304 15.8573-68.9014 31.7847-20.826 15.5119-39.5846 21.603-65.3811 24.2498C359.0338 446.537 337.4724 452.051 323 465l-2.5586 2.2695a910.3102 910.3102 0 0 0-5.1406 4.6407C307.4953 479 307.4953 479 305 479c0-8.6305 3.2267-13.7035 9-20 9.8692-8.9749 22.6705-14.1183 34.7502-19.4094 15.14-6.1892 15.14-6.1892 26.2498-17.5906.8653-2.9731 1.4944-5.9464 2-9l1.8008.4375c15.0682 3.3745 31.2275 1.1289 44.5078-7.1875 4.7294-3.4952 9.055-7.5862 10.0937-13.5664.2545-2.2277.4563-4.446.5977-6.6836Z"/><path fill="#F9FCFE" d="M594 355c.7177 6.8178.7177 6.8178-1.0833 9.7844-3.7563 4.2813-7.6326 7.3752-12.4792 10.3406l-2.2395 1.408c-2.3927 1.5-4.7952 2.9832-7.198 4.467a4460.432 4460.432 0 0 0-4.7266 2.9648c-10.8806 6.8089-21.8796 13.4172-32.8952 20.0044-8.936 5.3444-17.8328 10.745-26.6907 16.2183-15.1151 9.334-30.346 18.47-45.6328 27.5195a61406.6603 61406.6603 0 0 0-8.3047 4.918l-2.0776 1.2304c-9.2108 5.4582-18.3647 10.9952-27.4515 16.6583-7.9753 4.969-16.021 9.814-24.094 14.6225a5640.0088 5640.0088 0 0 0-7.0742 4.2237 8852.4862 8852.4862 0 0 1-10.9185 6.5175 3971.735 3971.735 0 0 0-4.3756 2.6134 3195.849 3195.849 0 0 1-6.1688 3.6772l-1.8817 1.1283c-2.5565 1.5164-4.877 2.76-7.7081 3.7037-.5795-3.4915-.6685-6.5143 0-10 4.8297-5.91 11.7636-10.0548 18.25-13.9375l2.6812-1.6345c8.4693-5.1348 17.0345-10.1098 25.5916-15.0964 8.1754-4.7653 16.2635-9.6342 24.2343-14.7364 6.9576-4.4449 13.9968-8.7508 21.0554-13.0327l1.828-1.1089c8.6245-5.2274 17.2888-10.3846 25.9828-15.4958 10.5674-6.225 21.0383-12.609 31.5098-18.9935a2800.924 2800.924 0 0 1 10.1208-6.14c7.0256-4.2517 13.9509-8.587 20.7461-13.1993 4.6383-3.1468 9.2752-5.9044 14.3477-8.293 10.4153-5.2307 21.7441-11.6212 30.703-19.0273C590 355 590 355 594 355Z"/><path fill="#FCFEFE" d="M338.8086 490.0977c5.1892 3.2815 9.8623 7.8042 11.8008 13.7812 1.3075 7.1.9975 13.778-2.6094 20.1211-3.206 4.542-6.57 8.3828-12 10-7.6587.9136-15.0735 1.3776-21.4219-3.5078-4.876-4.6106-8.1719-8.9132-8.9492-15.7617-.1424-7.598.0723-13.0166 5.3711-18.7305 7.5335-7.495 17.703-9.8518 27.8086-5.9023Z"/></svg>