<svg xmlns="http://www.w3.org/2000/svg" fill="none" viewBox="0 0 512 512"><g clip-path="url(#a)"><path fill="#00a1ef" d="m402.5 51 1.289.919c4.565 3.27 9.006 6.635 13.246 10.317a163 163 0 0 0 4.403 3.639 57 57 0 0 1 5.176 4.74 44 44 0 0 0 2.675 2.43c2.526 2.196 4.881 4.552 7.242 6.924l1.302 1.296A137 137 0 0 1 445 89q.766.868 1.535 1.732c3.759 4.26 7.268 8.665 10.672 13.213q1.162 1.543 2.342 3.073c29.431 38.415 46.358 87.35 46.985 182.568-3.868 29.118-12.897 56.706-26.034 82.914l-.636 1.276c-7.877 15.7-18.107 30.278-29.364 43.724l-.628.756c-5.433 6.546-11.243 12.661-17.247 18.682l-.823.827c-3.01 3.021-6.041 5.982-9.302 8.735l-1.514 1.316c-37.851 32.416-85.173 53.332-185.848 59.861-32.154-2.603-63.333-11.737-92.138-26.177l-1.476-.736C131.227 475.602 121.348 469.734 112 463l-1.172-.844c-4.725-3.418-9.376-6.887-13.828-10.656l-1.564-1.303a248 248 0 0 1-10.123-8.943 450 450 0 0 0-2.645-2.428c-3.843-3.524-7.478-7.159-10.96-11.041a203 203 0 0 0-2.144-2.332A169 169 0 0 1 61 415.5l-.624-.776A250 250 0 0 1 37.5 381l-.709-1.253c-15.599-27.743-25.677-58.026-29.947-89.559l-.223-1.645c-1.332-10.569-1.81-21.115-1.777-31.762l.002-1.847c.025-9.891.365-19.624 1.654-29.434l.129-.99C8.61 209.363 11.877 194.564 16.5 180l.429-1.382C25.585 150.78 39.824 124.269 58 101.5l.763-.96c3.067-3.849 6.176-7.625 9.53-11.228a71 71 0 0 0 1.879-2.103c2.823-3.32 5.906-6.38 8.985-9.459q1.442-1.445 2.876-2.895c3.149-3.163 6.31-6.183 9.822-8.943a56 56 0 0 0 3.207-2.787c34.256-30.726 80.667-49.668 128.951-56.493q1.411-.19 2.821-.384C276.338-.26 327.75 10.016 402.5 51"/><path fill="#fff" d="m402.5 51 1.289.919c4.565 3.27 9.006 6.635 13.246 10.317a163 163 0 0 0 4.403 3.639 57 57 0 0 1 5.176 4.74 44 44 0 0 0 2.675 2.43c2.526 2.196 4.881 4.552 7.242 6.924l1.302 1.296A137 137 0 0 1 445 89q.766.868 1.535 1.732c3.759 4.26 7.268 8.665 10.672 13.213q1.162 1.543 2.342 3.073c29.431 38.415 46.358 87.35 46.985 182.568-3.868 29.118-12.897 56.706-26.034 82.914l-.636 1.276c-7.877 15.7-18.107 30.278-29.364 43.724l-.628.756c-5.433 6.546-11.243 12.661-17.247 18.682l-.823.827c-3.01 3.021-6.041 5.982-9.302 8.735l-1.514 1.316c-37.851 32.416-85.173 53.332-185.848 59.861-32.154-2.603-63.333-11.737-92.138-26.177l-1.476-.736C131.227 475.602 121.348 469.734 112 463l-1.172-.844c-4.725-3.418-9.376-6.887-13.828-10.656l-1.564-1.303a248 248 0 0 1-10.123-8.943 450 450 0 0 0-2.645-2.428c-3.843-3.524-7.478-7.159-10.96-11.041a203 203 0 0 0-2.144-2.332A169 169 0 0 1 61 415.5l-.624-.776A250 250 0 0 1 37.5 381l-.709-1.253c-15.599-27.743-25.677-58.026-29.947-89.559l-.223-1.645c-1.332-10.569-1.81-21.115-1.777-31.762l.002-1.847c.025-9.891.365-19.624 1.654-29.434l.129-.99C8.61 209.363 11.877 194.564 16.5 180l.429-1.382C25.585 150.78 39.824 124.269 58 101.5l.763-.96c3.067-3.849 6.176-7.625 9.53-11.228a71 71 0 0 0 1.879-2.103c2.823-3.32 5.906-6.38 8.985-9.459q1.442-1.445 2.876-2.895c3.149-3.163 6.31-6.183 9.822-8.943a56 56 0 0 0 3.207-2.787c34.256-30.726 80.667-49.668 128.951-56.493q1.411-.19 2.821-.384C276.338-.26 327.75 10.016 402.5 51m-204-24-1.443.384C183.133 31.133 169.622 36.039 156.5 42l-1.478.67c-13.663 6.241-26.355 14.043-38.522 22.83l-.912.656c-6.434 4.652-12.306 9.919-18.088 15.344l-2.14 2c-6.894 6.403-6.894 6.403-13.292 13.291a162 162 0 0 1-3.58 3.884 143 143 0 0 0-13.265 16.297 446 446 0 0 1-2.385 3.346c-4.09 5.726-7.824 11.588-11.338 17.682l-.631 1.079c-12.437 21.306-21.124 44.734-26.455 68.779q-.318 1.422-.647 2.841c-3.023 14.083-3.577 28.202-3.463 42.55.011 1.719.01 3.437.01 5.156.001 12.504.434 24.835 2.53 37.189l.195 1.175C27.8 325.23 37.756 353.401 53 378l.718 1.173C59.932 389.314 66.87 398.876 74.5 408l.667.798c7.043 8.395 14.512 16.831 22.901 23.909 1.11.944 2.173 1.932 3.244 2.918 2.827 2.549 5.805 4.879 8.818 7.202q1.21.938 2.411 1.888C121.25 451.534 130.438 457.45 140 463l1.214.71c11.236 6.551 23.092 11.803 35.286 16.29l1.483.552c9.446 3.473 19.219 5.722 29.017 7.948l1.784.409c14.224 3.207 28.434 4.449 42.976 4.319q1.66-.013 3.321-.02c20.969-.093 41.054-1.894 61.419-7.208l1.753-.449a208 208 0 0 0 13.559-4.051l1.073-.358C360.383 471.905 385.762 457.626 408 439l.897-.747c8.709-7.27 17.269-15.082 24.603-23.753q.729-.832 1.459-1.662C441.08 405.869 446.661 398.583 452 391l.662-.938c4.163-5.952 7.747-12.255 11.338-18.562l.794-1.381c6.966-12.166 12.236-24.86 16.706-38.119l.624-1.811c1.491-4.374 2.766-8.771 3.907-13.251l.261-1.018c3.298-12.926 5.952-26.431 6.483-39.781l.064-1.574c.215-5.819.254-11.637.254-17.46.001-1.821.01-3.641.019-5.461.026-10.389-.502-20.676-2.268-30.925l-.332-1.974c-5.885-34.688-18.892-66.402-38.356-95.651l-.579-.871c-1.903-2.855-3.801-5.651-6.077-8.223-1.626.283-2.346.681-3.385 1.957l-.746.898-.775.957q-.81.97-1.623 1.936l-.779.931c-5.528 6.558-12.651 10.954-20.192 14.821l-.964.495c-17.614 9.039-17.614 9.039-26.536 12.505l-1.268.562c-3.632 1.29-7.373.909-11.162.78-19.453-.8-19.453-.8-35.837 8.574-1.873 1.647-3.942 2.74-6.171 3.834l-1.012.519c-.842.425-1.696.829-2.55 1.231l-1.244.605c-1.673.526-3.163.49-4.912.457l-1.901-.027L323 165c1.733-1.862 3.404-3.143 5.625-4.375l.91-.51c1.68-.934 3.376-1.833 5.084-2.715 6.607-3.413 12.534-7.147 17.881-12.4l.998-.979c3.157-3.333 4.627-7.255 5.971-11.584 2.916-8.874 11.023-13.248 18.531-17.937l2.721-1.717A1082 1082 0 0 1 397 102.75c4.536-2.746 9.062-5.508 13.562-8.312l1.444-.896A176 176 0 0 0 421 87.5c-1.946-4.12-6.083-7.081-9.5-10l-1.525-1.34C388.986 57.792 363.992 44.285 338 34.5l-1.51-.578c-6.287-2.407-12.598-4.39-19.118-6.063a201 201 0 0 1-4.022-1.105c-5.845-1.634-11.722-2.854-17.694-3.91l-1.096-.196a508 508 0 0 0-3.16-.548l-1.841-.316c-9.323-1.37-18.896-.953-28.293-.986a874 874 0 0 1-6.576-.052c-19.141-.215-37.652 1.247-56.19 6.254"/><path fill="#fff" d="M264.609 253.785c1.979.306 3.11 1.414 4.547 2.715l.908.8c9.402 8.411 17.548 17.488 23.436 28.7l.57 1.065c13.572 25.712 18.025 57.309 18.023 86.037.001 1.448.01 2.896.019 4.343.066 21.471-5.835 41.982-15.612 61.055l-.577 1.133A89.2 89.2 0 0 1 281.5 460q-.815.966-1.625 1.938c-6.023 6.863-13.478 12.223-21.062 17.218l-1.109.738A53 53 0 0 1 255 481.5l-1-.5 1.447-2.031 1.319-1.852a279 279 0 0 1 3.838-5.269c7.151-9.614 12.141-19.868 16.24-31.098l.54-1.472c2.74-7.684 4.553-15.479 5.991-23.497q.34-1.865.683-3.731.21-1.144.416-2.29c.266-1.464.555-2.846 1.026-4.26 1.428-7.728 1.666-15.603 1.71-23.44q.009-1.441.027-2.883c.11-10.015-.327-21.834-7.12-29.818-3.97-3.054-7.865-3.142-12.742-3.047l-1.869.003c-5.704.053-11.155.749-16.6 2.466l-1.258.389q-2.078.654-4.148 1.33l-1.536.499c-6.616 2.17-13.064 4.567-19.404 7.452l-1.355.613-1.185.548C219 360 219 360 217.5 360c.725-2.35 2.108-3.862 3.781-5.594q.752-.79 1.502-1.584l.783-.822c.991-1.061 1.95-2.145 2.911-3.233 2.496-2.776 5.117-5.412 7.769-8.035q1.283-1.271 2.563-2.545 3.635-3.616 7.277-7.225 2.242-2.223 4.479-4.452.843-.839 1.689-1.674c3.486-3.443 6.726-6.965 9.746-10.836l1.095-1.401c6.047-7.846 9.291-16.687 8.617-26.624-.605-4.207-2.487-8.138-4.128-12.026-5.259-13.04-5.259-13.04-2.99-19.011.906-.938.906-.938 2.015-1.153m-115.691 12.721c1.778.812 2.451 1.91 3.582 3.494v1c-.799.653-.799.653-1.924 1.4l-1.251.847-1.356.909A112 112 0 0 0 135 284.5l-1.303 1.195c-3.769 3.608-6.858 7.714-9.384 12.274-10.598 18.68-40.552 37.699-60.917 43.835-6.523 1.775-12.033.551-17.92-2.626C39.51 335.526 33.953 330.476 32 323.5c-.35-2.579-.36-4.703.719-7.094 6.15-6.75 14.43-11.373 22.281-15.906l1.203-.696a468 468 0 0 1 14.143-7.859l.996-.529q2.415-1.281 4.837-2.55l1.81-.954 1.579-.827c1.186-.627 2.246-1.307 3.347-2.084 4.111-2.815 7.218-3.519 12.231-3.312q1.01.015 2.02.021 2.123.015 4.245.048c12.901.166 23.565-.616 34.482-8.154 2.01-1.381 4.087-2.627 6.186-3.87a74 74 0 0 0 2.515-1.576c2.565-1.659 2.565-1.659 4.324-1.652"/><path fill="#fff" d="M318.312 162.656c1.521 2.972.808 6.46.188 9.625-.999 4.45-.999 4.45.055 8.727 1.551 1.889 3.403 3.381 5.289 4.925 3.5 2.87 6.179 5.728 8.656 9.567l.719 1.045c1.474 2.585 1.497 5.328 1.562 8.236l.041 1.218c-.02 3.072-.883 5.122-2.822 7.501-9.482 9.342-28.923 8.031-41.44 8.875l-1.399.095q-3.391.232-6.784.441c-5.376.345-10.599 1.002-15.877 2.089l-1.2.23c-.922.209-.922.209-1.353 1.323L263.5 228l-.557 1.65c-1.559 5.08-2.513 10.237-3.349 15.475l-.168 1.021c-1.002 6.151-1.44 12.223-.301 18.385l.202 1.153c.515 2.79 1.27 5.454 2.148 8.152 1.891 5.99 3.189 11.846 2.525 18.164l-1 1.5c-2.218-.738-2.965-2.395-4-4.344l-.573-1.053q-.627-1.16-1.247-2.324c-.726-1.366-1.464-2.726-2.202-4.086-2.921-5.44-5.579-10.807-7.478-16.693l-.4-1.16c-.983-2.989-1.356-5.669-1.319-8.809l.012-1.425c.136-6.117 1.151-12.092 2.207-18.106l.341-2.039q.436-2.603.914-5.201c.179-.992.348-1.987.516-2.981l.35-1.826.295-1.62c.584-1.333.584-1.333 1.914-2.206a47 47 0 0 1 5.268-1.617l1.049-.264q1.706-.424 3.415-.84l1.197-.294c15.419-3.795 30.913-7.497 46.741-9.112.105-8.597-1.154-15.503-6.762-22.264-.738-1.236-.738-1.236-.633-2.613.395-1.123.395-1.123.895-1.623.222-1.447.222-1.447 0-3-.886-1.016-.886-1.016-2.156-1.75l-1.369-.885a91 91 0 0 0-5.85-3.136c-1.234-.799-1.614-1.372-2.125-2.729 4.183-2.085 8.397-3.898 12.812-5.437l1.292-.452c3.784-1.293 8.403-2.858 12.208-.955M176 303c1.5.5 1.5.5 2.074 1.495l.543 1.302.621 1.437q.627 1.493 1.25 2.985c3.29 7.6 7.962 11.188 15.551 14.259l1.461.522 1.432.528c2.808.787 5.719.584 8.609.552l1.895-.008q2.478-.011 4.958-.033 3.504-.027 7.01-.043a926 926 0 0 0 3.727-.027l1.695-.01 1.495-.012c1.179.053 1.179.053 2.179.553-.379 2.555-1.938 4.077-3.945 5.588-12.084 7.685-28.305 15.939-43.055 13.912a154 154 0 0 1-3.5-1.5h-2l-.719 1.719-.404.967c-2.294 8-1.852 18.152 1.24 25.831a55 55 0 0 1 1.1 3.163c5.277 16.226 13.209 31.626 21.783 46.32l.774 1.328c9.171 15.681 19.639 30.79 32.611 43.575 1.847 1.82 3.63 3.657 5.3 5.642 1.433 1.68 2.952 3.285 4.454 4.904C245 479 245 479 245 480c-9.396-1.491-18.824-11.381-25.5-17.5l-1.6-1.441c-5.582-5.053-10.342-10.58-14.9-16.559l-.684-.893c-6.019-7.895-11.171-16.34-15.816-25.107l-.662-1.238c-4.074-7.684-7.294-15.625-10.338-23.762l-.557-1.457c-1.138-3.028-2.011-6.045-2.724-9.199l-.318-1.375A877 877 0 0 1 171 377.5l-.249-1.088c-1.123-4.916-1.831-9.633-1.817-14.678l-.003-1.19q0-1.896.006-3.794l.003-1.315c.015-7.153.112-14.294.56-21.435l.09-1.449c.683-10.366 3.302-19.668 6.41-29.551"/><path fill="#fff" d="M176.5 272.5c3.143.4 5.134 3.661 7 6 1.827 2.431 3.549 4.937 5.273 7.443 6.435 9.929 6.435 9.929 16.227 16.057.699.05 1.4.074 2.101.081l1.281.014 1.388.007 1.445.008q1.523.007 3.044.01c1.523.005 3.046.02 4.569.036 8.78.05 16.421-1.221 24.734-3.968q1.86-.608 3.723-1.208l1.621-.534c1.718-.481 3.313-.828 5.094-.946 2.406 2.192 3.311 4.433 3.703 7.684.089 3.341.134 5.889-2.183 8.443-4.481 3.836-8.821 5.379-14.579 5.928l-1.315.127c-4.453.398-8.891.47-13.358.448q-2-.005-4 .007c-4.26.003-8.472-.123-12.709-.578l-1.094-.116c-9.483-1.143-19.098-7.503-24.934-14.881C180.592 298.425 178 293.17 178 288l-1.697.639-2.209.83-1.118.421-1.08.405-.991.373c-2.797 1.026-5.66 1.516-8.516.396-3.905-2.294-6.588-5.953-8.389-10.064v-1.5c2.642.313 4.606 1.683 6.782 3.103 2.347 1.434 3.972 1.625 6.718 1.397 4.72-1.842 7.046-7.205 9-11.5m24.656-137.219 1.265.012c3.33.088 6.113.625 9.079 2.207l1.207.643c5.333 3.201 8.505 8.721 10.137 14.607 1.211 5.311 1.736 10.809 1.656 16.25-1.396-.637-2.381-1.302-3.469-2.375-2.501-2.195-5.476-3.38-8.531-4.625l-1.25-.522c-5.081-1.827-10.285-1.811-15.219.306-5.242 2.472-9.971 5.72-14.639 9.134-.892.582-.892.582-2.392 1.082-2.025-9.186-.593-18.56 4.219-26.594 4.366-6.252 10.176-10.224 17.937-10.125M217 193c1.786.219 3.448.484 5.172 1.01 4.932 1.322 10.103.43 15.078-.26 4.221-.58 8.363-.901 12.625-.906l1.47-.008c2.196.022 3.715.053 5.655 1.164l-.861.19c-13.053 2.909-23.765 7.928-34.45 15.892-10.413 7.756-19.793 10.802-32.691 12.125-9.481 1.061-20.262 3.818-27.498 10.293l-1.279 1.135q-1.29 1.155-2.571 2.32c-3.902 3.545-3.902 3.545-5.15 3.545 0-4.315 1.613-6.852 4.5-10 4.935-4.487 11.335-7.059 17.375-9.705 7.57-3.094 7.57-3.094 13.125-8.795a39 39 0 0 0 1-4.5l.9.219c7.535 1.687 15.614.564 22.254-3.594 2.365-1.748 4.528-3.793 5.047-6.783A67 67 0 0 0 217 193M297 177.5c.359 3.409.359 3.409-.542 4.892-1.878 2.141-3.816 3.688-6.239 5.17l-1.12.704c-1.196.75-2.398 1.492-3.599 2.234l-2.363 1.482c-5.441 3.405-10.94 6.709-16.448 10.003a1072 1072 0 0 0-13.345 8.109c-7.558 4.667-15.173 9.235-22.817 13.76l-4.152 2.458-1.039.616a718 718 0 0 0-13.726 8.329 702 702 0 0 1-12.047 7.311l-3.537 2.112a3742 3742 0 0 1-5.459 3.259l-2.188 1.306q-1.54.921-3.084 1.839l-.941.564c-1.278.758-2.438 1.38-3.854 1.852-.29-1.746-.334-3.257 0-5 2.415-2.955 5.882-5.027 9.125-6.969l1.341-.817c4.234-2.567 8.517-5.055 12.795-7.548 4.088-2.383 8.132-4.817 12.118-7.368 3.478-2.223 6.998-4.376 10.527-6.517l.914-.554c4.312-2.614 8.645-5.193 12.992-7.748 5.283-3.113 10.519-6.305 15.755-9.497q2.526-1.54 5.06-3.07c3.513-2.126 6.975-4.293 10.373-6.6 2.319-1.573 4.638-2.952 7.174-4.146 5.208-2.615 10.872-5.811 15.351-9.514.975-.652.975-.652 2.975-.652M169.404 245.049c2.595 1.641 4.931 3.902 5.901 6.89.653 3.55.498 6.889-1.305 10.061-1.603 2.271-3.285 4.191-6 5-3.829.457-7.537.689-10.711-1.754-2.438-2.305-4.086-4.456-4.475-7.881-.071-3.799.037-6.508 2.686-9.365 3.767-3.748 8.851-4.926 13.904-2.951"/></g><defs><clipPath id="a"><path fill="#fff" d="M0 0h512v512H0z"/></clipPath></defs></svg>