<svg version="1.1" id="Layer_1" xmlns="http://www.w3.org/2000/svg" xmlns:xlink="http://www.w3.org/1999/xlink" x="0px" y="0px"
	 width="100%" viewBox="0 0 311 162" enable-background="new 0 0 311 162" xml:space="preserve">
<path fill="#FEFEFE" opacity="1.000000" stroke="none" 
	d="
M182.000000,163.000000 
	C121.333344,163.000000 61.166679,163.000000 1.000016,163.000000 
	C1.000011,109.000015 1.000011,55.000027 1.000005,1.000031 
	C104.666634,1.000021 208.333267,1.000021 311.999939,1.000010 
	C311.999939,54.999969 311.999939,108.999939 311.999969,162.999954 
	C268.833344,163.000000 225.666672,163.000000 182.000000,163.000000 
M64.957993,89.037689 
	C64.957993,89.037689 64.946579,89.118317 64.974060,89.750587 
	C66.035889,90.143234 67.097717,90.535881 68.618866,90.945717 
	C68.618866,90.945717 69.027702,91.155769 69.421768,91.640953 
	C70.632622,91.585327 72.527504,96.678513 73.691269,91.027206 
	C74.607735,90.948624 75.524193,90.870041 77.205780,90.952789 
	C78.214417,91.814323 79.223053,92.675858 80.504257,93.770210 
	C80.720200,92.636292 80.891037,91.739243 81.947906,90.918053 
	C84.170525,90.918053 86.393143,90.918053 88.522049,90.918053 
	C88.522049,82.517776 88.522049,74.842201 89.168564,66.833794 
	C88.976898,64.382721 88.785225,61.931652 88.592674,59.469360 
	C86.369743,59.724964 84.471191,59.943264 82.018494,60.197838 
	C81.669373,60.082363 81.320244,59.966888 80.383385,59.334217 
	C76.473282,58.992523 72.564392,58.476257 68.652092,58.448837 
	C67.818024,58.442993 66.971497,60.214603 66.044067,61.066040 
	C66.044067,61.066040 66.167358,61.116714 65.415260,60.978378 
	C62.280071,59.652668 59.144886,58.326958 55.865330,56.249672 
	C55.956341,55.495525 56.047352,54.741375 56.540562,53.732147 
	C56.785236,53.502182 56.916828,53.219543 56.985077,52.977543 
	C56.985077,52.977543 56.898453,52.916897 57.675663,52.987782 
	C59.352871,52.261375 62.039627,56.198429 63.171371,51.268848 
	C63.049961,48.880405 66.023674,45.611523 61.962894,44.319836 
	C53.279007,41.557587 46.604004,46.361507 46.491329,55.518002 
	C46.446781,59.138500 45.118557,60.676929 40.866814,60.998016 
	C41.747692,63.294563 42.251614,66.924721 43.389324,67.135612 
	C46.665562,67.742882 46.394211,69.679779 46.403584,71.811371 
	C46.431122,78.075150 46.413403,84.339127 46.413403,90.628525 
	C49.843475,90.628525 52.600887,90.628525 55.993721,90.628525 
	C55.993721,85.553848 55.993721,80.776321 56.700497,76.007195 
	C57.294498,76.684334 58.444096,77.410805 58.389088,78.030319 
	C58.107662,81.199875 59.717758,82.139717 62.730316,82.758713 
	C62.753281,83.512299 62.776241,84.265884 62.521286,85.235931 
	C62.665596,85.489487 62.809906,85.743042 63.178143,86.278496 
	C63.178143,86.278496 63.193108,86.638199 62.951584,87.221291 
	C63.593922,87.832794 64.236259,88.444298 64.957993,89.037689 
M198.712891,120.968445 
	C199.207611,120.358582 199.702347,119.748718 200.594315,118.995590 
	C200.594315,118.995590 200.897720,118.701866 201.533295,118.682281 
	C202.184708,118.000061 202.836121,117.317841 203.487534,116.635620 
	C202.658813,116.455894 201.830109,116.276169 200.157761,116.069649 
	C198.753754,116.122795 197.349731,116.175949 195.496567,115.671288 
	C193.521973,112.883141 191.547379,110.094994 188.715942,106.096962 
	C187.646454,111.599869 185.669861,115.847244 179.400146,116.136192 
	C178.976395,116.210220 178.552658,116.284248 177.466644,116.128731 
	C176.942703,116.677155 176.418762,117.225578 175.894821,117.774002 
	C177.601013,118.838448 179.307220,119.902885 181.402039,121.154831 
	C181.402039,121.154831 181.822372,121.252319 182.115311,122.051575 
	C181.681122,125.778473 181.246918,129.505371 180.733414,133.913055 
	C183.941895,131.721542 186.632004,129.884079 189.449463,127.959648 
	C192.322495,129.856506 195.136383,131.714325 197.950272,133.572144 
	C198.232300,133.364868 198.514313,133.157608 198.796341,132.950348 
	C197.894348,130.368790 196.992340,127.787239 196.463913,124.532028 
	C197.016479,123.396172 197.569061,122.260315 198.712891,120.968445 
M230.961761,119.731926 
	C231.565735,119.003151 232.169708,118.274376 232.573929,117.786629 
	C229.656006,116.974136 226.865051,116.196999 224.017319,114.768753 
	C223.240250,113.344307 222.463165,111.919868 221.021469,109.277122 
	C219.740799,116.622292 214.866318,117.521286 208.274033,116.860489 
	C210.569778,119.005165 211.759933,120.116997 212.967560,121.964157 
	C212.621689,122.963997 212.569916,124.297653 211.879242,124.906151 
	C208.811996,127.608490 209.629501,129.446533 212.870438,131.704926 
	C212.802811,132.187332 212.735168,132.669739 212.303757,133.526505 
	C213.201080,133.290665 214.098389,133.054825 215.474792,132.323364 
	C220.776703,125.695572 225.574509,130.054840 230.878296,132.876709 
	C229.842331,129.478821 228.806366,126.080933 228.277481,122.361313 
	C228.541885,122.056274 228.806274,121.751244 229.510956,121.421005 
	C229.770432,120.976898 230.029907,120.532791 230.961761,119.731926 
M166.687241,134.895233 
	C167.067505,133.141891 167.769348,131.386047 167.755615,129.635788 
	C167.732819,126.728180 167.250412,123.824173 167.043564,120.462013 
	C167.043564,120.462013 166.934402,120.011116 167.308823,119.433449 
	C168.086777,118.767822 168.864716,118.102196 170.151276,117.001381 
	C167.574280,117.001381 165.786041,117.001381 163.701675,116.376137 
	C161.736191,112.892250 159.770721,109.408356 158.137161,106.512802 
	C155.925385,109.737473 153.443268,113.356323 150.194794,116.913879 
	C148.967468,116.995293 147.740128,117.076714 145.017349,117.257332 
	C147.671051,119.375832 149.321106,120.693108 151.042236,122.753838 
	C150.971710,123.494713 150.901184,124.235596 150.153717,124.998444 
	C149.304642,125.287117 147.876862,125.385948 147.708878,125.898048 
	C147.057617,127.883278 146.807312,130.000046 146.193726,133.175217 
	C146.334045,133.487549 147.029724,135.035950 148.050217,137.307312 
	C148.916809,135.605911 149.466705,134.526276 150.595200,133.128265 
	C151.134949,132.748596 151.674698,132.368942 152.553482,131.837082 
	C152.765961,131.690277 152.909698,131.493286 153.551941,130.820740 
	C155.969101,129.909958 157.991837,125.590912 160.997742,130.744843 
	C161.385544,133.667328 161.100693,137.383545 166.687241,134.895233 
M243.026611,89.975632 
	C243.026611,89.975632 243.183426,89.942078 243.434967,90.615669 
	C244.625809,90.774849 245.816635,90.934029 247.188721,91.402466 
	C247.456757,91.295959 247.724777,91.189445 248.493271,90.963524 
	C248.661194,90.998375 248.829132,91.033226 249.150070,91.786629 
	C250.745636,91.969658 252.346207,92.277557 253.931824,92.213730 
	C254.198471,92.202995 254.417282,90.589226 254.628967,89.709114 
	C255.177704,87.427818 255.710129,85.142601 256.756561,83.309631 
	C262.083405,91.984085 262.170441,92.028328 270.731567,90.127396 
	C269.093506,87.338837 267.769318,84.455154 265.881134,82.006363 
	C262.371429,77.454651 261.174133,73.214668 265.623871,68.491821 
	C267.131531,66.891632 268.146423,64.693665 268.901825,62.594463 
	C269.148438,61.909237 267.440094,59.768852 267.334167,59.818085 
	C264.492981,61.138515 260.522858,59.423828 258.645721,63.631363 
	C257.120056,67.051079 254.548172,70.004044 251.733917,74.222878 
	C251.733917,63.734520 251.733917,54.850502 251.733917,45.218315 
	C249.442291,45.874435 247.652863,46.386772 245.256989,46.933285 
	C244.855850,46.978271 244.454712,47.023258 243.440308,46.995762 
	C243.216919,47.331871 242.993530,47.667980 242.494949,48.198540 
	C242.591095,48.465881 242.687241,48.733223 242.902359,49.930717 
	C242.866135,59.958435 242.829895,69.986153 242.330078,80.532776 
	C242.219650,81.689842 242.109207,82.846901 241.242737,84.005692 
	C240.486694,84.001938 239.730652,83.998177 238.979568,83.061043 
	C238.994980,79.936241 239.006088,76.811401 239.026871,73.686638 
	C239.053726,69.644608 240.431824,65.272194 236.966492,62.126373 
	C237.215988,61.238842 237.922943,59.787090 237.639297,59.557144 
	C236.034592,58.256111 234.196548,57.278095 232.292572,60.058926 
	C231.851974,59.971298 231.411377,59.883671 230.475662,59.322289 
	C229.571335,59.250317 228.667023,59.178349 227.018814,59.216412 
	C225.519806,59.213047 224.020782,59.209679 221.742310,59.080673 
	C220.222702,58.518539 218.703079,57.956409 216.698883,57.215015 
	C216.813980,59.091282 216.897491,60.452660 216.263489,61.999031 
	C211.255203,63.755524 212.265610,68.196823 211.109528,71.994743 
	C210.409515,71.995956 209.709503,71.997169 208.839218,71.267845 
	C208.533676,69.562828 208.228119,67.857811 208.050507,65.413231 
	C209.462357,60.083580 208.428787,59.223797 201.133804,60.080269 
	C200.763412,59.978577 200.393036,59.876884 199.907913,59.196350 
	C199.241440,59.233368 198.574982,59.270386 197.072342,59.291008 
	C191.380661,59.473530 185.463989,59.059315 181.209839,65.014343 
	C180.006851,65.743690 178.803879,66.473038 177.162018,66.625671 
	C175.419235,60.066971 174.318558,59.315826 165.836884,58.246025 
	C164.085770,57.590443 162.334656,56.934856 160.011734,56.065197 
	C160.011734,54.030849 160.350586,51.679695 159.916504,49.481148 
	C159.481598,47.278408 158.275055,45.228024 157.406708,43.110863 
	C155.262085,44.237209 153.117477,45.363556 150.537613,46.794540 
	C150.377213,46.869614 150.216827,46.944687 149.433044,47.460365 
	C146.261536,54.698509 149.558792,61.807762 149.989944,69.753075 
	C149.933350,71.316902 149.876770,72.880737 149.039413,74.185608 
	C148.117554,72.807281 147.195694,71.428947 146.125977,69.258087 
	C145.958160,68.198486 145.790329,67.138893 146.260880,66.008888 
	C146.063705,63.464607 145.866547,60.920326 145.599625,57.475922 
	C143.789841,59.206066 142.775803,60.175480 141.109406,61.028393 
	C136.785416,60.964527 132.425461,61.225388 128.146851,60.751629 
	C123.201714,60.204071 120.855644,63.234478 120.175636,66.941696 
	C119.330002,71.551842 119.344986,76.461327 119.862679,81.144890 
	C120.536301,87.239182 124.361000,90.566841 130.488556,90.926933 
	C134.596558,91.168335 138.742599,90.762253 143.319977,91.322121 
	C146.918076,91.525391 150.693451,95.409775 154.987640,90.814751 
	C162.129715,90.750839 169.681717,92.845276 176.436874,86.903191 
	C177.885880,87.121132 179.333023,87.352699 180.784515,87.552582 
	C181.886414,87.704323 182.993866,87.815727 184.763306,88.219330 
	C189.266266,91.788200 194.541214,91.023842 200.486099,90.976402 
	C205.089096,92.756081 207.895691,90.570023 209.723923,83.609688 
	C210.969452,84.342171 212.223984,85.079956 213.902039,86.316154 
	C217.263962,87.936737 220.625885,89.557320 224.160385,91.888191 
	C231.047638,95.886635 233.921036,95.084358 238.263504,88.392937 
	C238.845215,87.496567 240.722214,87.440773 242.001663,87.663322 
	C242.293564,88.453636 242.585464,89.243958 243.026611,89.975632 
M80.524879,116.195587 
	C80.187401,116.468697 79.849930,116.741798 79.512451,117.014908 
	C79.998970,117.358223 80.485489,117.701538 81.342674,118.583504 
	C82.816711,119.482758 84.290756,120.382019 86.032661,121.722687 
	C86.186096,121.800667 86.339539,121.878639 86.593605,122.803902 
	C85.895592,126.235588 85.197586,129.667282 84.499580,133.098969 
	C90.653534,127.456360 96.446831,127.776497 102.544708,132.928360 
	C101.667351,129.617523 100.789993,126.306686 100.580803,122.865822 
	C101.781281,121.616470 102.981758,120.367119 104.597748,118.936623 
	C104.839043,118.744354 105.023705,118.507874 105.770912,118.138130 
	C106.286247,117.531326 106.801575,116.924522 107.316910,116.317719 
	C106.544617,116.249268 105.772324,116.180809 104.137138,116.072456 
	C102.410271,116.111778 100.683395,116.151093 98.547020,115.603622 
	C96.835121,112.449669 95.123230,109.295708 93.773827,106.809608 
	C91.252350,109.892876 88.659081,113.063934 85.239952,116.125061 
	C83.860893,116.184677 82.481842,116.244293 80.524879,116.195587 
M118.878975,124.831772 
	C118.017227,127.644493 117.155487,130.457214 115.954811,134.376236 
	C119.875412,131.949844 122.637314,128.903778 125.408493,128.895309 
	C128.274338,128.886551 131.149200,131.827286 134.733444,133.887894 
	C134.140244,131.299347 134.217545,129.211578 133.246262,127.900780 
	C131.193161,125.130013 131.959717,123.063026 134.675842,120.954254 
	C136.426804,119.715034 138.177765,118.475822 139.928726,117.236603 
	C140.038910,116.690071 140.149094,116.143539 140.259277,115.597000 
	C131.894196,116.919701 126.909492,113.791702 125.428543,105.214699 
	C124.802910,114.668701 118.238785,115.952965 110.186752,116.154373 
	C114.055061,119.525665 116.649277,121.786560 118.878975,124.831772 
M92.300842,73.700363 
	C92.308723,75.529938 92.192108,77.370071 92.346336,79.187225 
	C92.968369,86.515854 96.922569,90.517227 104.007202,91.013367 
	C105.828308,91.140900 107.667778,91.134483 109.492844,91.054062 
	C115.940063,90.769943 116.590919,89.943939 115.593567,83.540474 
	C112.689407,83.540474 109.784805,83.572243 106.881203,83.532097 
	C103.566154,83.486275 101.784279,82.184502 101.640114,78.450790 
	C101.191261,66.825867 102.227539,65.798309 113.899406,67.542320 
	C114.380402,67.614197 114.875229,67.593430 115.692719,67.630905 
	C115.692719,65.189842 115.692719,62.811863 115.692719,60.506321 
	C99.813622,57.192585 93.578079,60.542984 92.300842,73.700363 
M226.333801,57.993744 
	C226.910172,57.895702 227.486557,57.797657 228.062927,57.699615 
	C228.031296,57.452965 227.999664,57.206314 227.968033,56.959663 
	C226.637985,57.133736 225.307938,57.307804 223.977890,57.481888 
	C224.084717,57.581402 224.191544,57.680916 224.379181,57.855701 
	C224.746902,57.894714 225.215256,57.944408 226.333801,57.993744 
M213.951691,136.834610 
	C213.802002,136.584351 213.700531,136.203445 213.487518,136.124847 
	C213.314590,136.061035 213.007751,136.360062 212.760300,136.498184 
	C213.007996,136.636917 213.255676,136.775635 213.951691,136.834610 
M156.030975,93.820396 
	C156.436310,93.725662 156.841644,93.630936 157.246979,93.536209 
	C157.158020,93.415924 157.053741,93.183998 156.982651,93.193756 
	C156.571182,93.250214 156.167572,93.363663 156.030975,93.820396 
M233.477554,115.497726 
	C233.477554,115.497726 233.515732,115.490677 233.477554,115.497726 
z"/>
<path fill="#5071A9" opacity="1.000000" stroke="none" 
	d="
M150.056458,47.019756 
	C150.216827,46.944687 150.377213,46.869614 151.123505,46.697517 
	C154.053299,46.706390 156.397186,46.812290 159.237213,46.940609 
	C159.237213,51.511833 159.237213,55.672523 159.237213,60.299660 
	C161.891205,59.792637 163.945251,59.400230 165.999298,59.007820 
	C174.318558,59.315826 175.419235,60.066971 177.426590,67.362305 
	C177.028442,74.359398 176.365738,80.619865 175.703033,86.880333 
	C169.681717,92.845276 162.129715,90.750839 154.203339,90.587494 
	C151.227875,90.220657 149.787247,89.676109 149.941666,86.855377 
	C150.167358,82.733009 149.885635,78.582870 149.820190,74.444565 
	C149.876770,72.880737 149.933350,71.316902 150.000000,68.903259 
	C150.025513,61.042210 150.040985,54.030983 150.056458,47.019756 
M166.450119,82.834541 
	C166.948257,78.250366 167.632339,73.670212 167.731812,69.077400 
	C167.745743,68.433815 164.773346,67.011398 163.399628,67.241402 
	C161.850906,67.500717 159.453568,69.110718 159.330093,70.326660 
	C158.853363,75.021767 159.136520,79.794044 159.136520,85.614159 
	C161.994751,84.594383 163.874481,83.923721 166.450119,82.834541 
z"/>
<path fill="#5273AA" opacity="1.000000" stroke="none" 
	d="
M199.705368,90.881287 
	C194.541214,91.023842 189.266266,91.788200 184.267746,87.756920 
	C179.124771,80.193024 180.988190,72.557114 181.941849,64.995880 
	C185.463989,59.059315 191.380661,59.473530 197.707275,59.483871 
	C198.902344,59.709557 199.462494,59.742374 200.022644,59.775192 
	C200.393036,59.876884 200.763412,59.978577 201.650452,60.363335 
	C204.085571,62.481865 206.004074,64.317329 207.922562,66.152794 
	C208.228119,67.857811 208.533676,69.562828 208.847198,71.966827 
	C208.917038,73.115494 208.978897,73.565193 208.968979,74.438522 
	C208.923080,76.578865 208.948944,78.295555 208.835815,80.345024 
	C207.700775,85.842361 204.905655,89.421555 199.705368,90.881287 
M200.113068,69.277046 
	C200.199509,69.326202 200.285950,69.375359 200.372391,69.424515 
	C200.248062,69.283134 200.123718,69.141754 199.875870,68.276535 
	C199.071945,67.884117 198.268005,67.491699 197.209534,67.194077 
	C197.209534,67.194077 197.007095,67.012947 196.589035,66.469971 
	C194.777679,65.626366 192.966324,64.782768 190.391479,63.583584 
	C190.851349,65.373840 191.108963,66.376732 191.197693,67.299675 
	C191.197693,67.299675 191.309570,67.150017 190.641556,67.395386 
	C190.462753,68.056572 190.283951,68.717766 190.164001,70.252609 
	C190.133179,72.736412 190.161819,75.222733 190.056808,77.703392 
	C189.918594,80.968338 190.877853,83.291443 194.615204,83.366844 
	C198.336319,83.441917 199.462891,81.313339 199.299179,77.928360 
	C199.155273,74.953102 199.234055,71.967087 199.607620,68.985458 
	C199.607620,68.985458 200.000519,68.999405 200.113068,69.277046 
z"/>
<path fill="#5072AA" opacity="1.000000" stroke="none" 
	d="
M223.987823,91.177902 
	C220.625885,89.557320 217.263962,87.936737 213.587982,85.664185 
	C212.785767,80.669441 212.297607,76.326675 211.809448,71.983917 
	C212.265610,68.196823 211.255203,63.755524 216.968170,61.925850 
	C219.289154,60.970551 220.905457,60.088428 222.521774,59.206310 
	C224.020782,59.209679 225.519806,59.213047 227.503326,59.408451 
	C228.982162,59.665676 229.976471,59.730862 230.970779,59.796043 
	C231.411377,59.883671 231.851974,59.971298 232.783920,60.327965 
	C234.256470,61.156017 235.237686,61.715034 236.218887,62.274055 
	C240.431824,65.272194 239.053726,69.644608 239.026871,73.686638 
	C239.006088,76.811401 238.994980,79.936241 238.692566,83.709976 
	C235.079269,89.760353 230.005798,91.467621 223.987823,91.177902 
M221.697128,82.411003 
	C224.525375,83.311180 227.551178,84.773369 229.762466,81.523979 
	C231.866135,78.432762 229.946182,68.965050 227.128098,66.386597 
	C221.681366,66.821526 220.276566,69.970779 220.997955,74.795128 
	C221.337891,77.068527 221.157425,79.419746 221.697128,82.411003 
z"/>
<path fill="#4E70A8" opacity="1.000000" stroke="none" 
	d="
M145.622498,66.079292 
	C145.790329,67.138893 145.958160,68.198486 146.120361,70.095840 
	C146.114761,73.177322 146.114761,75.421059 146.114761,78.119087 
	C139.883560,78.119087 134.481155,78.119087 127.390656,78.119087 
	C129.250351,80.608620 130.131897,82.130341 131.333618,83.331833 
	C134.619415,86.617050 137.773087,83.170929 141.326263,83.014343 
	C142.085617,83.074684 142.521164,83.088043 143.178680,83.426453 
	C146.796936,86.323769 146.331161,88.599693 142.871628,90.645882 
	C138.742599,90.762253 134.596558,91.168335 130.488556,90.926933 
	C124.361000,90.566841 120.536301,87.239182 119.862679,81.144890 
	C119.344986,76.461327 119.330002,71.551842 120.175636,66.941696 
	C120.855644,63.234478 123.201714,60.204071 128.146851,60.751629 
	C132.425461,61.225388 136.785416,60.964527 141.613129,61.355797 
	C143.285385,63.148563 144.453934,64.613930 145.622498,66.079292 
M134.128876,66.228691 
	C128.731873,66.664467 127.938019,67.904457 129.976028,72.933907 
	C132.271515,72.422302 134.574402,71.909050 137.851791,71.178604 
	C136.639786,69.274086 135.760849,67.892952 134.128876,66.228691 
z"/>
<path fill="#5172A9" opacity="1.000000" stroke="none" 
	d="
M56.138367,53.987228 
	C56.047352,54.741375 55.956341,55.495525 55.858860,57.015388 
	C57.547504,59.222179 59.242619,60.663258 62.020035,63.024437 
	C61.754288,63.602871 60.867451,65.533188 59.658379,67.368561 
	C58.897038,67.343102 58.457932,67.412605 57.758270,67.331192 
	C56.990807,67.786049 56.483902,68.391823 55.919128,69.371399 
	C55.905376,70.497276 55.949486,71.249359 55.904060,72.395218 
	C55.874260,73.858940 55.933990,74.928864 55.993721,75.998795 
	C55.993721,80.776321 55.993721,85.553848 55.993721,90.628525 
	C52.600887,90.628525 49.843475,90.628525 46.413403,90.628525 
	C46.413403,84.339127 46.431122,78.075150 46.403584,71.811371 
	C46.394211,69.679779 46.665562,67.742882 43.389324,67.135612 
	C42.251614,66.924721 41.747692,63.294563 40.866814,60.998016 
	C45.118557,60.676929 46.446781,59.138500 46.491329,55.518002 
	C46.604004,46.361507 53.279007,41.557587 61.962894,44.319836 
	C66.023674,45.611523 63.049961,48.880405 62.719559,51.604195 
	C60.477985,52.265327 58.688217,52.591110 56.898453,52.916897 
	C56.898453,52.916897 56.985077,52.977543 56.714378,53.013622 
	C56.341911,53.362213 56.240143,53.674721 56.138367,53.987228 
z"/>
<path fill="#4F70A9" opacity="1.000000" stroke="none" 
	d="
M69.027702,91.155769 
	C69.027702,91.155769 68.618866,90.945717 68.192421,90.693802 
	C66.826180,90.000702 65.886375,89.559509 64.946579,89.118317 
	C64.946579,89.118317 64.957993,89.037689 64.820122,88.764191 
	C64.185867,87.873192 63.689491,87.255699 63.193108,86.638199 
	C63.193108,86.638199 63.178143,86.278496 63.077843,85.885277 
	C62.918098,85.334534 62.858650,85.177002 62.799202,85.019470 
	C62.776241,84.265884 62.753281,83.512299 62.735161,82.020859 
	C63.167465,79.525925 63.594921,77.768860 64.206207,75.972382 
	C64.390038,75.932976 64.764496,75.898750 65.194267,75.927498 
	C67.899727,75.821587 70.175407,75.686928 72.668640,75.539391 
	C72.436722,76.739746 72.223412,77.843796 71.684525,79.153664 
	C70.329453,82.246864 71.083229,84.577011 74.277840,84.653770 
	C76.053406,84.696434 78.995575,83.534370 79.456589,82.226189 
	C80.950768,77.986282 76.155777,80.085396 75.036835,78.075531 
	C76.217766,76.882507 77.326317,76.120499 78.197426,75.146187 
	C79.234703,73.986023 80.922203,72.551163 80.797623,71.401093 
	C80.590691,69.490875 79.163071,67.712891 78.249603,65.879211 
	C77.797462,66.347107 77.345322,66.814995 76.471039,67.306465 
	C74.370422,67.428253 72.691940,67.526466 70.622955,67.480423 
	C65.398308,67.536995 66.392891,63.928120 66.167358,61.116714 
	C66.167358,61.116714 66.044067,61.066040 66.498016,61.009453 
	C71.625023,60.585720 76.298073,60.218571 80.971123,59.851418 
	C81.320244,59.966888 81.669373,60.082363 82.552795,60.432175 
	C84.898743,62.833218 86.710396,64.999924 88.522049,67.166626 
	C88.522049,74.842201 88.522049,82.517776 88.522049,90.918053 
	C86.393143,90.918053 84.170525,90.918053 81.468658,90.548615 
	C79.473152,90.383278 77.956909,90.587372 76.440659,90.791466 
	C75.524193,90.870041 74.607735,90.948624 72.957077,91.029877 
	C71.157829,91.073624 70.092766,91.114693 69.027702,91.155769 
z"/>
<path fill="#5374A8" opacity="1.000000" stroke="none" 
	d="
M92.298256,73.259560 
	C93.578079,60.542984 99.813622,57.192585 115.692719,60.506321 
	C115.692719,62.811863 115.692719,65.189842 115.692719,67.630905 
	C114.875229,67.593430 114.380402,67.614197 113.899406,67.542320 
	C102.227539,65.798309 101.191261,66.825867 101.640114,78.450790 
	C101.784279,82.184502 103.566154,83.486275 106.881203,83.532097 
	C109.784805,83.572243 112.689407,83.540474 115.593750,83.543495 
	C116.590919,89.943939 115.940063,90.769943 109.492844,91.054062 
	C107.667778,91.134483 105.828308,91.140900 104.007202,91.013367 
	C96.922569,90.517227 92.968369,86.515854 92.346336,79.187225 
	C92.192108,77.370071 92.308723,75.529938 92.298256,73.259560 
z"/>
<path fill="#506FA6" opacity="1.000000" stroke="none" 
	d="
M247.007477,91.093208 
	C245.816635,90.934029 244.625809,90.774849 243.587006,90.261459 
	C244.167374,89.601357 244.595734,89.295479 245.307861,88.712128 
	C245.727966,85.957565 245.864288,83.480461 246.252808,81.002914 
	C246.673157,81.001465 246.841293,81.000458 247.255798,80.998459 
	C247.502182,80.997459 247.994949,80.995544 248.157135,81.216003 
	C248.723663,81.384491 249.128021,81.332527 249.532379,81.280556 
	C249.023010,80.853951 248.513641,80.427353 248.003357,79.667191 
	C248.003265,78.888885 248.004074,78.444138 248.349213,77.994827 
	C249.329758,77.525108 249.965942,77.059959 250.602142,76.594810 
	C249.736221,76.063477 248.870300,75.532143 248.003082,74.625519 
	C248.002090,73.499641 248.002411,72.749062 248.272980,71.766434 
	C248.693344,69.354202 248.843460,67.174004 248.994324,64.528885 
	C248.662933,59.374241 248.330795,54.684528 247.997498,49.752392 
	C247.996353,49.509968 247.996902,49.025112 247.979385,48.725597 
	C247.639236,47.959068 247.316589,47.492054 246.785522,47.038101 
	C246.577103,47.051163 246.169312,47.141418 246.092529,47.081223 
	C246.015747,47.021030 245.863419,46.899105 245.863419,46.899109 
	C247.652863,46.386772 249.442291,45.874435 251.733917,45.218315 
	C251.733917,54.850502 251.733917,63.734520 251.733917,74.222878 
	C254.548172,70.004044 257.120056,67.051079 258.645721,63.631363 
	C260.522858,59.423828 264.492981,61.138515 267.334167,59.818085 
	C267.440094,59.768852 269.148438,61.909237 268.901825,62.594463 
	C268.146423,64.693665 267.131531,66.891632 265.623871,68.491821 
	C261.174133,73.214668 262.371429,77.454651 265.881134,82.006363 
	C267.769318,84.455154 269.093506,87.338837 270.731567,90.127396 
	C262.170441,92.028328 262.083405,91.984085 256.419403,82.746857 
	C255.019318,80.406639 253.956390,78.629204 252.893448,76.851776 
	C252.005051,80.660652 252.252655,84.253220 251.866913,87.776451 
	C251.736893,88.964149 249.999710,89.975906 248.997040,91.068069 
	C248.829132,91.033226 248.661194,90.998375 247.996063,90.962364 
	C247.335068,91.005203 247.171280,91.049210 247.007477,91.093208 
M247.858246,86.399284 
	C247.971725,87.191399 248.085190,87.983521 248.198654,88.775635 
	C248.766205,88.344963 249.333755,87.914291 249.901291,87.483620 
	C249.337402,86.928787 248.773514,86.373955 247.858246,86.399284 
z"/>
<path fill="#F2F6F8" opacity="1.000000" stroke="none" 
	d="
M143.095795,90.984001 
	C146.331161,88.599693 146.796936,86.323769 143.307739,83.102707 
	C143.815033,77.596550 140.381836,81.264313 139.253052,80.355476 
	C139.836182,81.226105 140.419312,82.096733 141.002441,82.967361 
	C137.773087,83.170929 134.619415,86.617050 131.333618,83.331833 
	C130.131897,82.130341 129.250351,80.608620 127.390656,78.119087 
	C134.481155,78.119087 139.883560,78.119087 146.114761,78.119087 
	C146.114761,75.421059 146.114761,73.177322 146.194305,70.492104 
	C147.195694,71.428947 148.117554,72.807281 149.429810,74.315086 
	C149.885635,78.582870 150.167358,82.733009 149.941666,86.855377 
	C149.787247,89.676109 151.227875,90.220657 153.739502,90.582542 
	C150.693451,95.409775 146.918076,91.525391 143.095795,90.984001 
z"/>
<path fill="#F8E761" opacity="1.000000" stroke="none" 
	d="
M119.243484,124.047455 
	C116.649277,121.786560 114.055061,119.525665 110.186752,116.154373 
	C118.238785,115.952965 124.802910,114.668701 125.428543,105.214699 
	C126.909492,113.791702 131.894196,116.919701 140.259277,115.597000 
	C140.149094,116.143539 140.038910,116.690071 139.928726,117.236603 
	C138.177765,118.475822 136.426804,119.715034 134.274246,120.616318 
	C128.516006,119.973488 123.159348,119.668579 118.061798,119.378426 
	C118.469467,120.989189 118.856476,122.518318 119.243484,124.047455 
M136.159576,117.753189 
	C136.105606,117.597763 136.051636,117.442337 135.997650,117.286911 
	C135.944946,117.444000 135.892258,117.601082 136.159576,117.753189 
z"/>
<path fill="#F7DB1F" opacity="1.000000" stroke="none" 
	d="
M119.061234,124.439613 
	C118.856476,122.518318 118.469467,120.989189 118.061798,119.378426 
	C123.159348,119.668579 128.516006,119.973488 133.914154,120.598366 
	C131.959717,123.063026 131.193161,125.130013 133.246262,127.900780 
	C134.217545,129.211578 134.140244,131.299347 134.733444,133.887894 
	C131.149200,131.827286 128.274338,128.886551 125.408493,128.895309 
	C122.637314,128.903778 119.875412,131.949844 115.954811,134.376236 
	C117.155487,130.457214 118.017227,127.644493 119.061234,124.439613 
z"/>
<path fill="#F7DC2A" opacity="1.000000" stroke="none" 
	d="
M196.090347,125.205688 
	C196.992340,127.787239 197.894348,130.368790 198.796341,132.950348 
	C198.514313,133.157608 198.232300,133.364868 197.950272,133.572144 
	C195.136383,131.714325 192.322495,129.856506 189.449463,127.959648 
	C186.632004,129.884079 183.941895,131.721542 180.733414,133.913055 
	C181.246918,129.505371 181.681122,125.778473 182.156067,121.372978 
	C183.131409,120.795433 184.066010,120.896484 185.005722,121.342987 
	C185.371292,122.294601 185.731750,122.900757 186.092209,123.506912 
	C186.396683,122.676651 186.701172,121.846390 187.214813,120.753349 
	C188.948257,120.665993 190.472534,120.841423 192.014175,121.265991 
	C192.189987,121.777496 192.348419,122.039871 192.506851,122.302254 
	C192.672333,121.872330 192.837799,121.442398 193.331238,121.005371 
	C194.096542,120.993256 194.533890,120.988235 195.241089,120.992477 
	C195.690628,121.007431 195.870316,121.013123 195.990143,121.318970 
	C195.983643,122.814636 196.037003,124.010155 196.090347,125.205688 
M189.031906,124.819687 
	C189.436264,124.725243 189.840637,124.630798 190.244995,124.536354 
	C190.156326,124.416283 190.052383,124.184799 189.981506,124.194511 
	C189.570999,124.250801 189.168274,124.363922 189.031906,124.819687 
z"/>
<path fill="#F6DB21" opacity="1.000000" stroke="none" 
	d="
M227.770401,122.683044 
	C228.806366,126.080933 229.842331,129.478821 230.878296,132.876709 
	C225.574509,130.054840 220.776703,125.695572 214.843842,132.594208 
	C213.697784,132.960739 213.182648,133.056442 212.667526,133.152145 
	C212.735168,132.669739 212.802811,132.187332 213.174805,131.095490 
	C213.898376,127.346893 214.317566,124.207748 215.113510,121.043457 
	C215.993652,121.012024 216.497025,121.005745 217.034210,121.290359 
	C218.382767,121.372925 219.697510,121.164597 221.385620,120.967354 
	C222.505997,120.985535 223.252991,120.992630 224.427032,121.018158 
	C225.826187,121.585403 226.798294,122.134224 227.770401,122.683044 
z"/>
<path fill="#F8DB2A" opacity="1.000000" stroke="none" 
	d="
M99.912636,122.995850 
	C100.789993,126.306686 101.667351,129.617523 102.544708,132.928360 
	C96.446831,127.776497 90.653534,127.456360 84.499580,133.098969 
	C85.197586,129.667282 85.895592,126.235588 86.807991,122.318398 
	C87.346222,121.233765 87.670067,120.634628 88.225922,119.893791 
	C89.304420,120.176277 90.150917,120.600456 90.864059,121.343414 
	C91.142029,122.433517 91.589500,123.885208 91.958801,123.865585 
	C94.328781,123.739655 96.681625,123.291107 99.257332,122.977036 
	C99.474564,123.005493 99.912636,122.995850 99.912636,122.995850 
z"/>
<path fill="#F6DA22" opacity="1.000000" stroke="none" 
	d="
M161.019608,129.956543 
	C157.991837,125.590912 155.969101,129.909958 153.066650,131.061951 
	C152.315536,131.455078 152.193237,131.683777 152.214447,131.989273 
	C151.674698,132.368942 151.134949,132.748596 150.128723,132.975189 
	C150.051712,130.206894 150.441193,127.591675 150.830658,124.976471 
	C150.901184,124.235596 150.971710,123.494713 151.340576,122.267105 
	C154.747269,121.840660 157.855637,121.900940 161.252930,122.090904 
	C162.326859,122.481277 163.111847,122.741966 163.936035,123.405136 
	C164.327255,126.815239 164.679276,129.822861 164.838013,132.590378 
	C163.436356,131.552368 162.227982,130.754456 161.019608,129.956543 
z"/>
<path fill="#F9E44B" opacity="1.000000" stroke="none" 
	d="
M90.997414,121.024643 
	C90.150917,120.600456 89.304420,120.176277 87.887024,119.917038 
	C86.799011,120.481750 86.281906,120.881508 85.764793,121.281273 
	C84.290756,120.382019 82.816711,119.482758 81.187958,118.023804 
	C81.056419,117.077377 81.079605,116.690651 81.102783,116.303909 
	C82.481842,116.244293 83.860893,116.184677 85.918900,116.415527 
	C89.286232,115.591522 91.974617,114.477051 93.608780,113.799606 
	C95.602852,114.691093 97.279694,115.440758 98.956528,116.190414 
	C100.683395,116.151093 102.410271,116.111778 104.576202,116.445297 
	C105.060745,117.287819 105.106232,117.757492 105.151726,118.227173 
	C105.023705,118.507874 104.839043,118.744354 104.041214,119.015137 
	C102.093857,119.742409 100.703041,120.391151 98.887054,121.019531 
	C95.973732,121.007645 93.485573,121.016144 90.997414,121.024643 
z"/>
<path fill="#F5F8F9" opacity="1.000000" stroke="none" 
	d="
M181.575836,65.005112 
	C180.988190,72.557114 179.124771,80.193024 183.935516,87.619797 
	C182.993866,87.815727 181.886414,87.704323 180.784515,87.552582 
	C179.333023,87.352699 177.885880,87.121132 176.069946,86.891762 
	C176.365738,80.619865 177.028442,74.359398 177.646027,67.650658 
	C178.803879,66.473038 180.006851,65.743690 181.575836,65.005112 
z"/>
<path fill="#F8E340" opacity="1.000000" stroke="none" 
	d="
M160.963989,121.961227 
	C157.855637,121.900940 154.747269,121.840660 151.305023,121.895378 
	C149.321106,120.693108 147.671051,119.375832 145.017349,117.257332 
	C147.740128,117.076714 148.967468,116.995293 150.980927,116.989227 
	C155.847107,117.651413 159.927780,118.356117 163.997818,117.001381 
	C165.786041,117.001381 167.574280,117.001381 170.151276,117.001381 
	C168.864716,118.102196 168.086777,118.767822 166.737823,119.719994 
	C164.432541,120.658104 162.698273,121.309669 160.963989,121.961227 
z"/>
<path fill="#FAE247" opacity="1.000000" stroke="none" 
	d="
M191.996811,121.016853 
	C190.472534,120.841423 188.948257,120.665993 186.880615,120.744896 
	C185.891708,120.998657 185.446167,120.998100 185.000610,120.997536 
	C184.066010,120.896484 183.131409,120.795433 182.009583,120.973351 
	C181.822372,121.252319 181.402039,121.154831 181.167023,120.734619 
	C179.997650,118.995697 179.063278,117.676987 178.128906,116.358269 
	C178.552658,116.284248 178.976395,116.210220 180.022583,116.407372 
	C185.745270,116.528732 190.845490,116.378922 195.945724,116.229103 
	C197.349731,116.175949 198.753754,116.122795 200.578979,116.410164 
	C200.966049,117.401077 200.931885,118.051468 200.897720,118.701866 
	C200.897720,118.701866 200.594315,118.995590 200.033615,119.006470 
	C198.985947,119.012398 198.498962,119.007446 197.657120,119.008102 
	C196.525238,119.670212 195.748245,120.326714 194.971237,120.983215 
	C194.533890,120.988235 194.096542,120.993256 193.079590,121.002792 
	C192.332260,121.010483 192.164536,121.013664 191.996811,121.016853 
z"/>
<path fill="#FAEA6D" opacity="1.000000" stroke="none" 
	d="
M163.849747,116.688759 
	C159.927780,118.356117 155.847107,117.651413 151.364105,117.019867 
	C153.443268,113.356323 155.925385,109.737473 158.137161,106.512802 
	C159.770721,109.408356 161.736191,112.892250 163.849747,116.688759 
z"/>
<path fill="#FAE44E" opacity="1.000000" stroke="none" 
	d="
M217.000397,120.999466 
	C216.497025,121.005745 215.993652,121.012024 214.815399,121.065140 
	C213.743698,121.150932 213.346893,121.189880 212.950073,121.228821 
	C211.759933,120.116997 210.569778,119.005165 208.274033,116.860489 
	C214.866318,117.521286 219.740799,116.622292 221.021469,109.277122 
	C222.463165,111.919868 223.240250,113.344307 224.032104,115.563446 
	C224.031281,117.905327 224.015640,119.452530 224.000000,120.999725 
	C223.252991,120.992630 222.505997,120.985535 221.334305,120.642761 
	C219.606552,120.537872 218.303467,120.768669 217.000397,120.999466 
z"/>
<path fill="#F3F6F8" opacity="1.000000" stroke="none" 
	d="
M65.791306,61.047546 
	C66.392891,63.928120 65.398308,67.536995 70.599739,67.816475 
	C70.294945,68.804260 69.646873,69.707085 68.946541,69.749619 
	C66.163231,69.918678 63.363617,69.819206 60.206287,69.819206 
	C60.158863,69.324188 60.069736,68.393845 59.980610,67.463509 
	C60.867451,65.533188 61.754288,63.602871 62.020035,63.024437 
	C59.242619,60.663258 57.547504,59.222179 55.931046,57.391174 
	C59.144886,58.326958 62.280071,59.652668 65.791306,61.047546 
z"/>
<path fill="#F8EA76" opacity="1.000000" stroke="none" 
	d="
M195.721146,115.950195 
	C190.845490,116.378922 185.745270,116.528732 180.345444,116.427521 
	C185.669861,115.847244 187.646454,111.599869 188.715942,106.096962 
	C191.547379,110.094994 193.521973,112.883141 195.721146,115.950195 
z"/>
<path fill="#F1F4F6" opacity="1.000000" stroke="none" 
	d="
M224.074097,91.533051 
	C230.005798,91.467621 235.079269,89.760353 238.690079,84.176666 
	C239.730652,83.998177 240.486694,84.001938 241.622894,84.378761 
	C242.001831,85.499794 242.000610,86.247765 241.999390,86.995728 
	C240.722214,87.440773 238.845215,87.496567 238.263504,88.392937 
	C233.921036,95.084358 231.047638,95.886635 224.074097,91.533051 
z"/>
<path fill="#F1F8F8" opacity="1.000000" stroke="none" 
	d="
M211.459503,71.989334 
	C212.297607,76.326675 212.785767,80.669441 213.376221,85.414970 
	C212.223984,85.079956 210.969452,84.342171 209.723923,83.609688 
	C207.895691,90.570023 205.089096,92.756081 200.095734,90.928848 
	C204.905655,89.421555 207.700775,85.842361 209.115738,80.103882 
	C209.370026,77.691605 209.205383,75.853241 209.040741,74.014885 
	C208.978897,73.565193 208.917038,73.115494 208.932343,72.332092 
	C209.709503,71.997169 210.409515,71.995956 211.459503,71.989334 
z"/>
<path fill="#F2F6F8" opacity="1.000000" stroke="none" 
	d="
M165.918091,58.626923 
	C163.945251,59.400230 161.891205,59.792637 159.237213,60.299660 
	C159.237213,55.672523 159.237213,51.511833 159.237213,46.940609 
	C156.397186,46.812290 154.053299,46.706390 151.341125,46.545197 
	C153.117477,45.363556 155.262085,44.237209 157.406708,43.110863 
	C158.275055,45.228024 159.481598,47.278408 159.916504,49.481148 
	C160.350586,51.679695 160.011734,54.030849 160.011734,56.065197 
	C162.334656,56.934856 164.085770,57.590443 165.918091,58.626923 
z"/>
<path fill="#F3F6F8" opacity="1.000000" stroke="none" 
	d="
M64.022377,76.011787 
	C63.594921,77.768860 63.167465,79.525925 62.612396,81.661926 
	C59.717758,82.139717 58.107662,81.199875 58.389088,78.030319 
	C58.444096,77.410805 57.294498,76.684334 56.347107,76.002991 
	C55.933990,74.928864 55.874260,73.858940 56.312500,72.396179 
	C59.981441,71.959518 63.410824,71.450760 64.022377,76.011787 
z"/>
<path fill="#F8EB78" opacity="1.000000" stroke="none" 
	d="
M98.751770,115.897018 
	C97.279694,115.440758 95.602852,114.691093 93.608780,113.799606 
	C91.974617,114.477051 89.286232,115.591522 86.331818,116.470490 
	C88.659081,113.063934 91.252350,109.892876 93.773827,106.809608 
	C95.123230,109.295708 96.835121,112.449669 98.751770,115.897018 
z"/>
<path fill="#F1F8F8" opacity="1.000000" stroke="none" 
	d="
M249.073547,91.427353 
	C249.999710,89.975906 251.736893,88.964149 251.866913,87.776451 
	C252.252655,84.253220 252.005051,80.660652 252.893448,76.851776 
	C253.956390,78.629204 255.019318,80.406639 256.165649,82.521507 
	C255.710129,85.142601 255.177704,87.427818 254.628967,89.709114 
	C254.417282,90.589226 254.198471,92.202995 253.931824,92.213730 
	C252.346207,92.277557 250.745636,91.969658 249.073547,91.427353 
z"/>
<path fill="#3E5D94" opacity="1.000000" stroke="none" 
	d="
M245.024094,88.989594 
	C244.595734,89.295479 244.167374,89.601357 243.461227,89.924660 
	C243.183426,89.942078 243.026611,89.975632 242.998535,89.550522 
	C242.911530,86.088226 242.852600,83.051048 242.793655,80.013870 
	C242.829895,69.986153 242.866135,59.958435 242.907028,49.215611 
	C242.864517,48.335033 242.817337,48.169559 242.770142,48.004089 
	C242.993530,47.667980 243.216919,47.331871 243.749252,47.350857 
	C244.064468,48.131329 244.070740,48.556709 244.050049,49.451767 
	C244.017593,61.391979 243.973694,72.862762 244.051865,84.332726 
	C244.062439,85.887154 244.684937,87.437408 245.024094,88.989594 
z"/>
<path fill="#4C6CB6" opacity="1.000000" stroke="none" 
	d="
M244.077011,48.982086 
	C244.070740,48.556709 244.064468,48.131329 244.055878,47.387100 
	C244.454712,47.023258 244.855850,46.978271 245.560211,46.916195 
	C245.863419,46.899105 246.015747,47.021030 246.150253,47.234451 
	C246.521149,47.306931 246.757553,47.165989 246.993942,47.025043 
	C247.316589,47.492054 247.639236,47.959068 247.679657,49.013329 
	C247.268112,60.066868 247.138763,70.533165 247.009415,80.999458 
	C246.841293,81.000458 246.673157,81.001465 246.252686,80.533875 
	C246.000320,71.167000 246.087463,62.267014 245.913986,53.372112 
	C245.885223,51.897388 244.718094,50.444866 244.077011,48.982086 
z"/>
<path fill="#FBFAE6" opacity="1.000000" stroke="none" 
	d="
M150.492188,124.987457 
	C150.441193,127.591675 150.051712,130.206894 149.839417,133.134369 
	C149.466705,134.526276 148.916809,135.605911 148.050217,137.307312 
	C147.029724,135.035950 146.334045,133.487549 146.193726,133.175217 
	C146.807312,130.000046 147.057617,127.883278 147.708878,125.898048 
	C147.876862,125.385948 149.304642,125.287117 150.492188,124.987457 
z"/>
<path fill="#FCF9E1" opacity="1.000000" stroke="none" 
	d="
M165.031281,132.830475 
	C164.679276,129.822861 164.327255,126.815239 164.106369,123.127998 
	C165.145538,121.938469 166.053574,121.428558 166.961609,120.918640 
	C167.250412,123.824173 167.732819,126.728180 167.755615,129.635788 
	C167.769348,131.386047 167.067505,133.141891 166.226532,134.667755 
	C165.520966,133.903687 165.276123,133.367081 165.031281,132.830475 
z"/>
<path fill="#F8E237" opacity="1.000000" stroke="none" 
	d="
M224.427032,121.018158 
	C224.015640,119.452530 224.031281,117.905327 224.060516,115.888992 
	C226.865051,116.196999 229.656006,116.974136 232.573929,117.786629 
	C232.169708,118.274376 231.565735,119.003151 230.438629,119.966209 
	C229.633896,120.615730 229.352280,121.030960 229.070648,121.446205 
	C228.806274,121.751244 228.541885,122.056274 228.023941,122.522179 
	C226.798294,122.134224 225.826187,121.585403 224.427032,121.018158 
z"/>
<path fill="#FBF8E1" opacity="1.000000" stroke="none" 
	d="
M212.958817,121.596497 
	C213.346893,121.189880 213.743698,121.150932 214.438629,121.090302 
	C214.317566,124.207748 213.898376,127.346893 213.189560,130.730316 
	C209.629501,129.446533 208.811996,127.608490 211.879242,124.906151 
	C212.569916,124.297653 212.621689,122.963997 212.958817,121.596497 
z"/>
<path fill="#F2F6F8" opacity="1.000000" stroke="none" 
	d="
M149.744751,47.240059 
	C150.040985,54.030983 150.025513,61.042210 149.935898,68.515060 
	C149.558792,61.807762 146.261536,54.698509 149.744751,47.240059 
z"/>
<path fill="#F3F6F8" opacity="1.000000" stroke="none" 
	d="
M80.677254,59.592819 
	C76.298073,60.218571 71.625023,60.585720 66.541344,61.060101 
	C66.971497,60.214603 67.818024,58.442993 68.652092,58.448837 
	C72.564392,58.476257 76.473282,58.992523 80.677254,59.592819 
z"/>
<path fill="#F3F6F8" opacity="1.000000" stroke="none" 
	d="
M88.845306,67.000214 
	C86.710396,64.999924 84.898743,62.833218 82.829865,60.414040 
	C84.471191,59.943264 86.369743,59.724964 88.592674,59.469360 
	C88.785225,61.931652 88.976898,64.382721 88.845306,67.000214 
z"/>
<path fill="#F2F6F8" opacity="1.000000" stroke="none" 
	d="
M145.941681,66.044090 
	C144.453934,64.613930 143.285385,63.148563 141.939301,61.414047 
	C142.775803,60.175480 143.789841,59.206066 145.599625,57.475922 
	C145.866547,60.920326 146.063705,63.464607 145.941681,66.044090 
z"/>
<path fill="#EDF2F4" opacity="1.000000" stroke="none" 
	d="
M207.986542,65.783012 
	C206.004074,64.317329 204.085571,62.481865 201.937241,60.391525 
	C208.428787,59.223797 209.462357,60.083580 207.986542,65.783012 
z"/>
<path fill="#FBFAE6" opacity="1.000000" stroke="none" 
	d="
M164.838013,132.590378 
	C165.276123,133.367081 165.520966,133.903687 165.882523,134.711914 
	C161.100693,137.383545 161.385544,133.667328 161.008667,130.350693 
	C162.227982,130.754456 163.436356,131.552368 164.838013,132.590378 
z"/>
<path fill="#EFF4F5" opacity="1.000000" stroke="none" 
	d="
M236.592682,62.200214 
	C235.237686,61.715034 234.256470,61.156017 233.121643,60.351616 
	C234.196548,57.278095 236.034592,58.256111 237.639297,59.557144 
	C237.922943,59.787090 237.215988,61.238842 236.592682,62.200214 
z"/>
<path fill="#EFF4F5" opacity="1.000000" stroke="none" 
	d="
M222.132050,59.143490 
	C220.905457,60.088428 219.289154,60.970551 217.326935,61.833359 
	C216.897491,60.452660 216.813980,59.091282 216.698883,57.215015 
	C218.703079,57.956409 220.222702,58.518539 222.132050,59.143490 
z"/>
<path fill="#F8EA76" opacity="1.000000" stroke="none" 
	d="
M177.797775,116.243500 
	C179.063278,117.676987 179.997650,118.995697 180.972717,120.640869 
	C179.307220,119.902885 177.601013,118.838448 175.894821,117.774002 
	C176.418762,117.225578 176.942703,116.677155 177.797775,116.243500 
z"/>
<path fill="#F3F6F8" opacity="1.000000" stroke="none" 
	d="
M76.823219,90.872131 
	C77.956909,90.587372 79.473152,90.383278 81.025635,90.510689 
	C80.891037,91.739243 80.720200,92.636292 80.504257,93.770210 
	C79.223053,92.675858 78.214417,91.814323 76.823219,90.872131 
z"/>
<path fill="#F7DF27" opacity="1.000000" stroke="none" 
	d="
M167.002594,120.690323 
	C166.053574,121.428558 165.145538,121.938469 164.067169,122.725517 
	C163.111847,122.741966 162.326859,122.481277 161.252930,122.090912 
	C162.698273,121.309669 164.432541,120.658104 166.550598,120.008827 
	C166.934402,120.011116 167.043564,120.462013 167.002594,120.690323 
z"/>
<path fill="#F8EB78" opacity="1.000000" stroke="none" 
	d="
M99.312225,121.039902 
	C100.703041,120.391151 102.093857,119.742409 103.833450,119.105713 
	C102.981758,120.367119 101.781281,121.616470 100.246719,122.930832 
	C99.912636,122.995850 99.474564,123.005493 99.281471,122.656471 
	C99.162994,121.884933 99.237610,121.462418 99.312225,121.039902 
z"/>
<path fill="#F3F6F8" opacity="1.000000" stroke="none" 
	d="
M57.287056,52.952339 
	C58.688217,52.591110 60.477985,52.265327 62.600220,51.894646 
	C62.039627,56.198429 59.352871,52.261375 57.287056,52.952339 
z"/>
<path fill="#E4F1F7" opacity="1.000000" stroke="none" 
	d="
M242.561859,80.273323 
	C242.852600,83.051048 242.911530,86.088226 242.923920,89.579834 
	C242.585464,89.243958 242.293564,88.453636 242.000519,87.329529 
	C242.000610,86.247765 242.001831,85.499794 242.000916,84.377899 
	C242.109207,82.846901 242.219650,81.689842 242.561859,80.273323 
z"/>
<path fill="#F8EA76" opacity="1.000000" stroke="none" 
	d="
M201.215515,118.692078 
	C200.931885,118.051468 200.966049,117.401077 201.000793,116.423553 
	C201.830109,116.276169 202.658813,116.455894 203.487534,116.635620 
	C202.836121,117.317841 202.184708,118.000061 201.215515,118.692078 
z"/>
<path fill="#F3F6F8" opacity="1.000000" stroke="none" 
	d="
M69.224731,91.398361 
	C70.092766,91.114693 71.157829,91.073624 72.618011,91.098198 
	C72.527504,96.678513 70.632622,91.585327 69.224731,91.398361 
z"/>
<path fill="#F8EB78" opacity="1.000000" stroke="none" 
	d="
M105.461319,118.182648 
	C105.106232,117.757492 105.060745,117.287819 105.007645,116.465240 
	C105.772324,116.180809 106.544617,116.249268 107.316910,116.317719 
	C106.801575,116.924522 106.286247,117.531326 105.461319,118.182648 
z"/>
<path fill="#F8EA76" opacity="1.000000" stroke="none" 
	d="
M196.277130,124.868851 
	C196.037003,124.010155 195.983643,122.814636 196.275299,121.294891 
	C196.992905,120.892220 197.365524,120.813766 197.834076,120.832520 
	C197.930038,120.929733 198.121643,121.124466 198.121643,121.124466 
	C197.569061,122.260315 197.016479,123.396172 196.277130,124.868851 
z"/>
<path fill="#EFF4F5" opacity="1.000000" stroke="none" 
	d="
M226.008713,57.993923 
	C225.215256,57.944408 224.746902,57.894714 224.379181,57.855701 
	C224.191544,57.680916 224.084717,57.581402 223.977890,57.481880 
	C225.307938,57.307804 226.637985,57.133736 227.968033,56.959663 
	C227.999664,57.206314 228.031296,57.452965 228.062927,57.699615 
	C227.486557,57.797657 226.910172,57.895702 226.008713,57.993923 
z"/>
<path fill="#FBF8E1" opacity="1.000000" stroke="none" 
	d="
M212.485641,133.339325 
	C213.182648,133.056442 213.697784,132.960739 214.604309,132.842010 
	C214.098389,133.054825 213.201080,133.290665 212.485641,133.339325 
z"/>
<path fill="#F3F6F8" opacity="1.000000" stroke="none" 
	d="
M64.960320,89.434448 
	C65.886375,89.559509 66.826180,90.000702 67.962769,90.685211 
	C67.097717,90.535881 66.035889,90.143234 64.960320,89.434448 
z"/>
<path fill="#F7DF23" opacity="1.000000" stroke="none" 
	d="
M85.898727,121.501984 
	C86.281906,120.881508 86.799011,120.481750 87.655022,120.058739 
	C87.670067,120.634628 87.346222,121.233765 86.757675,121.894760 
	C86.339539,121.878639 86.186096,121.800667 85.898727,121.501984 
z"/>
<path fill="#F6DB21" opacity="1.000000" stroke="none" 
	d="
M229.290802,121.433601 
	C229.352280,121.030960 229.633896,120.615730 230.102448,120.144592 
	C230.029907,120.532791 229.770432,120.976898 229.290802,121.433601 
z"/>
<path fill="#F8EA76" opacity="1.000000" stroke="none" 
	d="
M198.011993,119.002495 
	C198.498962,119.007446 198.985947,119.012398 199.834991,119.078094 
	C199.702347,119.748718 199.207611,120.358582 198.417267,121.046455 
	C198.121643,121.124466 197.930038,120.929733 197.913284,120.551361 
	C197.935013,119.782829 197.973495,119.392662 198.011993,119.002495 
z"/>
<path fill="#F8EB78" opacity="1.000000" stroke="none" 
	d="
M80.813835,116.249756 
	C81.079605,116.690651 81.056419,117.077377 81.002625,117.754486 
	C80.485489,117.701538 79.998970,117.358223 79.512451,117.014908 
	C79.849930,116.741798 80.187401,116.468697 80.813835,116.249756 
z"/>
<path fill="#EDF2F4" opacity="1.000000" stroke="none" 
	d="
M199.965271,59.485771 
	C199.462494,59.742374 198.902344,59.709557 198.125351,59.492073 
	C198.574982,59.270386 199.241440,59.233368 199.965271,59.485771 
z"/>
<path fill="#F3F6F8" opacity="1.000000" stroke="none" 
	d="
M63.072346,86.929749 
	C63.689491,87.255699 64.185867,87.873192 64.780426,88.773247 
	C64.236259,88.444298 63.593922,87.832794 63.072346,86.929749 
z"/>
<path fill="#EFF4F5" opacity="1.000000" stroke="none" 
	d="
M230.723221,59.559166 
	C229.976471,59.730862 228.982162,59.665676 227.875275,59.353436 
	C228.667023,59.178349 229.571335,59.250317 230.723221,59.559166 
z"/>
<path fill="#FBF8E1" opacity="1.000000" stroke="none" 
	d="
M213.727539,136.874481 
	C213.255676,136.775635 213.007996,136.636917 212.760300,136.498184 
	C213.007751,136.360062 213.314590,136.061035 213.487518,136.124847 
	C213.700531,136.203445 213.802002,136.584351 213.727539,136.874481 
z"/>
<path fill="#F2F6F8" opacity="1.000000" stroke="none" 
	d="
M155.896133,93.639107 
	C156.167572,93.363663 156.571182,93.250214 156.982651,93.193756 
	C157.053741,93.183998 157.158020,93.415924 157.246979,93.536209 
	C156.841644,93.630936 156.436310,93.725662 155.896133,93.639107 
z"/>
<path fill="#F3F6F8" opacity="1.000000" stroke="none" 
	d="
M62.660244,85.127701 
	C62.858650,85.177002 62.918098,85.334534 62.965881,85.744324 
	C62.809906,85.743042 62.665596,85.489487 62.660244,85.127701 
z"/>
<path fill="#F1F8F8" opacity="1.000000" stroke="none" 
	d="
M247.098099,91.247833 
	C247.171280,91.049210 247.335068,91.005203 247.745834,91.022072 
	C247.724777,91.189445 247.456757,91.295959 247.098099,91.247833 
z"/>
<path fill="#F3F6F8" opacity="1.000000" stroke="none" 
	d="
M56.339466,53.859688 
	C56.240143,53.674721 56.341911,53.362213 56.689507,52.966965 
	C56.916828,53.219543 56.785236,53.502182 56.339466,53.859688 
z"/>
<path fill="#E4F1F7" opacity="1.000000" stroke="none" 
	d="
M242.632538,48.101315 
	C242.817337,48.169559 242.864517,48.335033 242.847534,48.750534 
	C242.687241,48.733223 242.591095,48.465881 242.632538,48.101315 
z"/>
<path fill="#FBFAE6" opacity="1.000000" stroke="none" 
	d="
M152.383972,131.913177 
	C152.193237,131.683777 152.315536,131.455078 152.783035,131.274658 
	C152.909698,131.493286 152.765961,131.690277 152.383972,131.913177 
z"/>
<path fill="#F6DB21" opacity="1.000000" stroke="none" 
	d="
M233.496643,115.494202 
	C233.515732,115.490677 233.477554,115.497726 233.496643,115.494202 
z"/>
<path fill="#EFF4F7" opacity="1.000000" stroke="none" 
	d="
M166.102173,83.043808 
	C163.874481,83.923721 161.994751,84.594383 159.136520,85.614159 
	C159.136520,79.794044 158.853363,75.021767 159.330093,70.326660 
	C159.453568,69.110718 161.850906,67.500717 163.399628,67.241402 
	C164.773346,67.011398 167.745743,68.433815 167.731812,69.077400 
	C167.632339,73.670212 166.948257,78.250366 166.102173,83.043808 
z"/>
<path fill="#F3F7F8" opacity="1.000000" stroke="none" 
	d="
M197.007095,67.012947 
	C197.007095,67.012947 197.209534,67.194077 197.523407,67.413254 
	C198.296356,68.083557 198.755417,68.534691 199.214478,68.985817 
	C199.234055,71.967087 199.155273,74.953102 199.299179,77.928360 
	C199.462891,81.313339 198.336319,83.441917 194.615204,83.366844 
	C190.877853,83.291443 189.918594,80.968338 190.056808,77.703392 
	C190.161819,75.222733 190.133179,72.736412 190.396942,69.609818 
	C190.856445,68.361366 191.083008,67.755692 191.309570,67.150017 
	C191.309570,67.150017 191.197693,67.299675 191.674286,67.313614 
	C193.769608,67.222687 195.388351,67.117813 197.007095,67.012947 
z"/>
<path fill="#4C6B98" opacity="1.000000" stroke="none" 
	d="
M196.798065,66.741455 
	C195.388351,67.117813 193.769608,67.222687 191.758728,67.353592 
	C191.108963,66.376732 190.851349,65.373840 190.391479,63.583584 
	C192.966324,64.782768 194.777679,65.626366 196.798065,66.741455 
z"/>
<path fill="#FEFEFE" opacity="1.000000" stroke="none" 
	d="
M208.968994,74.438522 
	C209.205383,75.853241 209.370026,77.691605 209.254730,79.771103 
	C208.948944,78.295555 208.923080,76.578865 208.968994,74.438522 
z"/>
<path fill="#4C6B98" opacity="1.000000" stroke="none" 
	d="
M199.411041,68.985641 
	C198.755417,68.534691 198.296356,68.083557 197.650696,67.365860 
	C198.268005,67.491699 199.071945,67.884117 199.937927,68.638268 
	C200.000000,69.000000 200.000519,68.999405 200.000519,68.999405 
	C200.000519,68.999405 199.607620,68.985458 199.411041,68.985641 
z"/>
<path fill="#4C6B98" opacity="1.000000" stroke="none" 
	d="
M190.975555,67.272705 
	C191.083008,67.755692 190.856445,68.361366 190.367508,69.172989 
	C190.283951,68.717766 190.462753,68.056572 190.975555,67.272705 
z"/>
<path fill="#4C6B98" opacity="1.000000" stroke="none" 
	d="
M199.999695,69.000183 
	C200.123718,69.141754 200.248062,69.283134 200.372391,69.424515 
	C200.285950,69.375359 200.199509,69.326202 200.056793,69.138229 
	C200.000519,68.999405 200.000000,69.000000 199.999695,69.000183 
z"/>
<path fill="#F5F8F8" opacity="1.000000" stroke="none" 
	d="
M221.454956,82.073349 
	C221.157425,79.419746 221.337891,77.068527 220.997955,74.795128 
	C220.276566,69.970779 221.681366,66.821526 227.128098,66.386597 
	C229.946182,68.965050 231.866135,78.432762 229.762466,81.523979 
	C227.551178,84.773369 224.525375,83.311180 221.454956,82.073349 
z"/>
<path fill="#ECF0F5" opacity="1.000000" stroke="none" 
	d="
M134.505402,66.370255 
	C135.760849,67.892952 136.639786,69.274086 137.851791,71.178604 
	C134.574402,71.909050 132.271515,72.422302 129.976028,72.933907 
	C127.938019,67.904457 128.731873,66.664467 134.505402,66.370255 
z"/>
<path fill="#FEFEFE" opacity="1.000000" stroke="none" 
	d="
M141.326263,83.014343 
	C140.419312,82.096733 139.836182,81.226105 139.253052,80.355476 
	C140.381836,81.264313 143.815033,77.596550 143.085770,82.777649 
	C142.521164,83.088043 142.085617,83.074684 141.326263,83.014343 
z"/>
<path fill="#FEFEFE" opacity="1.000000" stroke="none" 
	d="
M64.206207,75.972382 
	C63.410824,71.450760 59.981441,71.959518 56.402031,72.002396 
	C55.949486,71.249359 55.905376,70.497276 56.204037,69.347984 
	C57.037483,68.461220 57.528156,67.971664 58.018829,67.482109 
	C58.457932,67.412605 58.897038,67.343102 59.658375,67.368561 
	C60.069736,68.393845 60.158863,69.324188 60.206287,69.819206 
	C63.363617,69.819206 66.163231,69.918678 68.946541,69.749619 
	C69.646873,69.707085 70.294945,68.804260 70.990242,67.960732 
	C72.691940,67.526466 74.370422,67.428253 76.495468,67.471771 
	C76.942032,67.613510 77.027863,67.936790 76.983093,68.309189 
	C76.626816,70.134666 76.315300,71.587746 75.603317,73.106522 
	C73.586014,73.163292 71.969170,73.154388 70.033157,73.104126 
	C69.153435,73.300774 68.592873,73.538757 67.722061,73.896194 
	C66.529373,74.643356 65.646935,75.271057 64.764496,75.898750 
	C64.764496,75.898750 64.390038,75.932976 64.206207,75.972382 
z"/>
<path fill="#F3F6F8" opacity="1.000000" stroke="none" 
	d="
M57.758270,67.331192 
	C57.528156,67.971664 57.037483,68.461220 56.261902,68.974182 
	C56.483902,68.391823 56.990807,67.786049 57.758270,67.331192 
z"/>
<path fill="#5A79A5" opacity="1.000000" stroke="none" 
	d="
M70.352325,73.145477 
	C71.969170,73.154388 73.586014,73.163292 76.014084,73.194504 
	C77.642326,72.677635 79.227127,71.837158 79.152817,71.647781 
	C78.637619,70.334999 77.777359,69.157631 77.027863,67.936790 
	C77.027863,67.936790 76.942032,67.613510 76.917603,67.448196 
	C77.345322,66.814995 77.797462,66.347107 78.249603,65.879211 
	C79.163071,67.712891 80.590691,69.490875 80.797623,71.401093 
	C80.922203,72.551163 79.234703,73.986023 78.197426,75.146187 
	C77.326317,76.120499 76.217766,76.882507 74.756882,78.189972 
	C73.536301,78.743561 72.773201,78.845703 72.010101,78.947838 
	C72.223412,77.843796 72.436722,76.739746 72.668640,75.539391 
	C70.175407,75.686928 67.899727,75.821587 65.194267,75.927498 
	C65.646935,75.271057 66.529373,74.643356 68.033859,73.929077 
	C69.221382,73.610153 69.786850,73.377815 70.352325,73.145477 
z"/>
<path fill="#DAE6F1" opacity="1.000000" stroke="none" 
	d="
M71.684525,79.153664 
	C72.773201,78.845703 73.536301,78.743561 74.579369,78.526985 
	C76.155777,80.085396 80.950768,77.986282 79.456589,82.226189 
	C78.995575,83.534370 76.053406,84.696434 74.277840,84.653770 
	C71.083229,84.577011 70.329453,82.246864 71.684525,79.153664 
z"/>
<path fill="#4D71A9" opacity="1.000000" stroke="none" 
	d="
M244.050049,49.451767 
	C244.718094,50.444866 245.885223,51.897388 245.913986,53.372112 
	C246.087463,62.267014 246.000320,71.167000 246.000488,80.534317 
	C245.864288,83.480461 245.727966,85.957565 245.307861,88.712135 
	C244.684937,87.437408 244.062439,85.887154 244.051865,84.332726 
	C243.973694,72.862762 244.017593,61.391979 244.050049,49.451767 
z"/>
<path fill="#4D709B" opacity="1.000000" stroke="none" 
	d="
M247.255798,80.998459 
	C247.138763,70.533165 247.268112,60.066868 247.697174,49.312843 
	C247.996902,49.025112 247.996353,49.509968 247.997925,50.219086 
	C248.002319,55.616787 248.005173,60.305378 248.005005,65.432045 
	C248.002243,67.912910 248.002487,69.955688 248.002731,71.998474 
	C248.002411,72.749062 248.002090,73.499641 248.001877,75.000328 
	C248.002945,76.500084 248.003906,77.249733 248.004883,77.999390 
	C248.004074,78.444138 248.003265,78.888885 248.001312,79.915894 
	C248.000153,80.498146 247.994949,80.995544 247.994949,80.995544 
	C247.994949,80.995544 247.502182,80.997459 247.255798,80.998459 
z"/>
<path fill="#4C6CB6" opacity="1.000000" stroke="none" 
	d="
M248.008026,64.993965 
	C248.005173,60.305378 248.002319,55.616787 247.999054,50.461510 
	C248.330795,54.684528 248.662933,59.374241 248.747986,64.530464 
	C248.500885,64.996979 248.008026,64.993965 248.008026,64.993965 
z"/>
<path fill="#4D71A9" opacity="1.000000" stroke="none" 
	d="
M248.033936,86.109207 
	C248.773514,86.373955 249.337402,86.928787 249.901291,87.483620 
	C249.333755,87.914291 248.766205,88.344963 248.198654,88.775635 
	C248.085190,87.983521 247.971725,87.191399 248.033936,86.109207 
z"/>
<path fill="#4D71A9" opacity="1.000000" stroke="none" 
	d="
M248.005005,65.432045 
	C248.008026,64.993965 248.500885,64.996979 248.747223,64.995392 
	C248.843460,67.174004 248.693344,69.354202 248.272980,71.766434 
	C248.002487,69.955688 248.002243,67.912910 248.005005,65.432045 
z"/>
<path fill="#4D71A9" opacity="1.000000" stroke="none" 
	d="
M248.349213,77.994827 
	C248.003906,77.249733 248.002945,76.500084 248.003174,75.375618 
	C248.870300,75.532143 249.736221,76.063477 250.602142,76.594810 
	C249.965942,77.059959 249.329758,77.525108 248.349213,77.994827 
z"/>
<path fill="#4D71A9" opacity="1.000000" stroke="none" 
	d="
M248.157135,81.216003 
	C247.994949,80.995544 248.000153,80.498146 248.002213,80.249451 
	C248.513641,80.427353 249.023010,80.853951 249.532379,81.280556 
	C249.128021,81.332527 248.723663,81.384491 248.157135,81.216003 
z"/>
<path fill="#3E5D94" opacity="1.000000" stroke="none" 
	d="
M246.785522,47.038101 
	C246.757553,47.165989 246.521149,47.306931 246.227036,47.294647 
	C246.169312,47.141418 246.577103,47.051163 246.785522,47.038101 
z"/>
<path fill="#F7DB1F" opacity="1.000000" stroke="none" 
	d="
M135.999573,117.755676 
	C135.892258,117.601082 135.944946,117.444000 135.997650,117.286911 
	C136.051636,117.442337 136.105606,117.597763 135.999573,117.755676 
z"/>
<path fill="#F7DF2D" opacity="1.000000" stroke="none" 
	d="
M197.657120,119.008102 
	C197.973495,119.392662 197.935013,119.782829 197.817322,120.454147 
	C197.365524,120.813766 196.992905,120.892220 196.335144,120.994751 
	C195.870316,121.013123 195.690628,121.007431 195.241089,120.992477 
	C195.748245,120.326714 196.525238,119.670212 197.657120,119.008102 
z"/>
<path fill="#F7DF2D" opacity="1.000000" stroke="none" 
	d="
M185.005722,121.342987 
	C185.446167,120.998100 185.891708,120.998657 186.671463,121.007675 
	C186.701172,121.846390 186.396683,122.676651 186.092209,123.506912 
	C185.731750,122.900757 185.371292,122.294601 185.005722,121.342987 
z"/>
<path fill="#F7DF2D" opacity="1.000000" stroke="none" 
	d="
M188.897415,124.638748 
	C189.168274,124.363922 189.570999,124.250801 189.981506,124.194511 
	C190.052383,124.184799 190.156326,124.416283 190.244995,124.536354 
	C189.840637,124.630798 189.436264,124.725243 188.897415,124.638748 
z"/>
<path fill="#F7DF2D" opacity="1.000000" stroke="none" 
	d="
M192.014175,121.265991 
	C192.164536,121.013664 192.332260,121.010483 192.751617,121.009888 
	C192.837799,121.442398 192.672333,121.872330 192.506851,122.302254 
	C192.348419,122.039871 192.189987,121.777496 192.014175,121.265991 
z"/>
<path fill="#F8E237" opacity="1.000000" stroke="none" 
	d="
M217.034210,121.290359 
	C218.303467,120.768669 219.606552,120.537872 220.960938,120.631668 
	C219.697510,121.164597 218.382767,121.372925 217.034210,121.290359 
z"/>
<path fill="#F7DF23" opacity="1.000000" stroke="none" 
	d="
M98.887054,121.019531 
	C99.237610,121.462418 99.162994,121.884933 99.064240,122.628014 
	C96.681625,123.291107 94.328781,123.739655 91.958801,123.865585 
	C91.589500,123.885208 91.142029,122.433517 90.864059,121.343422 
	C93.485573,121.016144 95.973732,121.007645 98.887054,121.019531 
z"/>
<path fill="#F3F6F8" opacity="1.000000" stroke="none" 
	d="
M76.983093,68.309189 
	C77.777359,69.157631 78.637619,70.334999 79.152817,71.647781 
	C79.227127,71.837158 77.642326,72.677635 76.414551,73.128815 
	C76.315300,71.587746 76.626816,70.134666 76.983093,68.309189 
z"/>
<path fill="#F3F6F8" opacity="1.000000" stroke="none" 
	d="
M70.033157,73.104126 
	C69.786850,73.377815 69.221382,73.610153 68.344109,73.809616 
	C68.592873,73.538757 69.153435,73.300774 70.033157,73.104126 
z"/>
</svg>