<?xml version="1.0" standalone="no"?>
<!DOCTYPE svg PUBLIC "-//W3C//DTD SVG 20010904//EN"
 "http://www.w3.org/TR/2001/REC-SVG-20010904/DTD/svg10.dtd">
<svg version="1.0" xmlns="http://www.w3.org/2000/svg"
 width="382.000000pt" height="391.000000pt" viewBox="0 0 382.000000 391.000000"
 preserveAspectRatio="xMidYMid meet">

<g transform="translate(0.000000,391.000000) scale(0.100000,-0.100000)"
fill="#000000" stroke="none">
<path d="M425 2701 c-27 -3 -75 -18 -107 -33 -60 -28 -168 -103 -168 -117 0
-4 -12 -21 -26 -36 -14 -16 -40 -58 -57 -94 -30 -62 -32 -72 -32 -186 l0 -120
44 -88 c87 -175 244 -267 448 -263 74 2 112 8 156 25 31 12 55 27 52 32 -4 5
0 6 8 3 22 -8 112 71 101 88 -3 5 2 8 10 8 17 0 63 73 70 110 2 14 5 26 7 28
1 1 2 5 3 10 1 4 4 12 7 17 3 6 6 49 8 98 l3 87 -216 0 -216 0 0 -39 c0 -22
-3 -46 -6 -55 -5 -14 10 -16 129 -16 74 0 148 -3 165 -6 28 -6 30 -8 20 -28
-6 -11 -11 -23 -10 -26 1 -3 -6 -27 -15 -53 -11 -31 -34 -63 -63 -89 -25 -23
-46 -40 -48 -39 -1 1 -27 -7 -57 -18 -68 -26 -173 -29 -234 -7 -59 21 -141 77
-167 112 -22 32 -67 120 -71 144 -15 72 3 199 34 247 8 12 13 23 9 23 -8 0 23
36 67 78 32 30 167 100 167 87 0 -3 12 0 27 6 53 20 205 -24 264 -77 14 -12
19 -11 40 10 34 34 49 54 49 64 0 12 -78 67 -122 85 -21 9 -38 13 -38 10 0 -3
-6 -1 -12 5 -17 14 -160 22 -223 13z"/>
<path d="M3073 2673 l-23 -4 0 -438 0 -438 53 -6 c28 -3 56 -1 61 3 5 5 8 188
8 407 0 511 2 472 -19 471 -10 -1 -27 1 -38 4 -11 3 -30 3 -42 1z"/>
<path d="M1230 2361 c-55 -18 -108 -51 -142 -89 -48 -53 -56 -69 -72 -146 -23
-113 9 -213 93 -289 64 -58 104 -72 206 -72 108 0 164 23 228 95 60 68 71 101
71 206 -1 83 -3 95 -32 145 -34 60 -87 108 -148 134 -45 19 -167 29 -204 16z
m165 -128 c105 -50 128 -234 40 -312 -74 -64 -175 -64 -242 1 -42 41 -56 85
-51 163 6 104 67 162 170 164 26 1 63 -7 83 -16z"/>
<path d="M2565 2347 c-72 -27 -143 -92 -175 -163 -28 -61 -32 -195 -7 -220 4
-4 7 -13 7 -21 0 -42 97 -135 177 -168 70 -29 174 -13 226 36 32 30 38 23 36
-38 -3 -71 -20 -108 -67 -150 -32 -29 -44 -33 -92 -33 -45 0 -65 6 -103 30
-26 16 -47 33 -47 37 0 5 -7 16 -14 26 -13 16 -16 16 -59 -3 -25 -11 -49 -24
-51 -29 -12 -19 75 -110 129 -136 65 -32 166 -45 192 -24 9 8 14 9 10 3 -5 -8
2 -8 26 0 55 20 81 37 120 79 62 68 70 108 73 392 2 138 0 280 -3 318 l-5 67
-55 0 c-50 0 -55 -2 -50 -20 7 -27 -14 -26 -66 4 -62 36 -129 41 -202 13z
m199 -127 c51 -37 68 -73 72 -150 3 -53 -1 -75 -17 -106 -22 -40 -69 -85 -81
-78 -4 2 -9 0 -13 -6 -3 -5 -29 -10 -58 -10 -42 0 -61 6 -98 32 -59 40 -79 81
-79 159 0 62 17 107 52 140 10 9 14 19 10 23 -4 4 -2 6 3 5 6 -2 27 5 48 15
20 10 48 16 62 13 14 -2 28 0 31 4 3 5 11 3 19 -3 8 -7 29 -24 49 -38z"/>
<path d="M3460 2361 c-137 -45 -216 -157 -212 -301 5 -180 123 -299 297 -300
79 0 149 26 202 75 24 23 43 45 43 49 0 11 -25 31 -63 52 -27 14 -29 14 -64
-20 -41 -38 -104 -54 -165 -41 -37 8 -116 81 -102 95 5 4 95 43 199 85 105 43
194 82 199 86 26 24 -77 165 -146 200 -43 22 -149 33 -188 20z m161 -132 c16
-11 29 -27 29 -35 0 -8 -1 -14 -3 -14 -1 0 -63 -25 -137 -55 -91 -37 -136 -51
-141 -44 -4 7 0 31 8 55 16 46 78 109 117 118 37 8 98 -4 127 -25z"/>
<path d="M1025 1511 c-8 -27 1 -41 26 -41 16 0 20 6 17 27 -4 34 -33 43 -43
14z"/>
<path d="M228 1360 l-3 -150 28 0 c26 0 27 2 27 55 0 52 1 55 26 55 30 0 41
-10 71 -65 18 -34 27 -40 58 -43 l36 -3 -18 28 c-9 15 -20 30 -23 33 -3 3 -11
16 -18 29 -12 20 -12 25 0 32 7 5 16 9 19 9 11 0 39 66 39 90 0 12 -13 35 -29
51 -28 28 -33 29 -120 29 l-90 0 -3 -150z m160 94 c52 -36 11 -88 -64 -82 -36
3 -39 5 -42 36 -2 19 -1 40 2 48 7 19 76 18 104 -2z"/>
<path d="M548 1407 c-52 -44 -61 -93 -27 -151 15 -26 30 -37 54 -42 55 -10
104 -9 116 3 16 16 4 44 -16 37 -8 -3 -13 -9 -11 -13 9 -14 -69 2 -87 17 -35
31 -17 44 63 45 l75 2 -1 39 c-1 30 -8 46 -28 63 -37 31 -101 31 -138 0z m114
-32 c6 -14 9 -28 6 -31 -3 -3 -31 -4 -63 -2 l-57 3 22 28 c29 36 76 38 92 2z"/>
<path d="M753 1418 c3 -7 17 -42 32 -78 15 -35 34 -70 43 -78 10 -7 11 -11 5
-7 -15 7 -18 -11 -3 -20 6 -4 8 -11 5 -16 -8 -12 46 -11 65 1 8 5 12 10 7 10
-4 0 -1 14 8 30 9 17 13 30 9 30 -4 0 -2 6 4 13 8 9 52 115 52 125 0 1 -8 2
-19 2 -24 0 -34 -13 -62 -87 -13 -35 -27 -63 -32 -63 -4 0 -11 10 -16 23 -10
23 -23 59 -26 67 -12 38 -31 60 -53 60 -15 0 -22 -4 -19 -12z"/>
<path d="M1021 1320 c1 -109 2 -110 25 -110 24 0 24 1 24 110 l0 110 -25 0
-26 0 2 -110z"/>
<path d="M1184 1419 c-48 -24 -71 -121 -39 -163 39 -51 106 -70 158 -43 19 10
23 17 16 30 -9 15 -12 15 -33 2 -27 -18 -60 -9 -90 24 -25 28 -16 35 47 36
103 3 107 4 107 25 0 75 -92 124 -166 89z m98 -36 c34 -40 32 -43 -36 -43 -36
0 -66 4 -66 10 0 17 43 50 65 50 12 0 29 -8 37 -17z"/>
<path d="M1390 1418 c1 -19 24 -101 32 -113 3 -6 9 -27 13 -48 6 -28 13 -39
32 -43 33 -9 47 8 67 79 9 31 20 57 24 57 7 0 33 -59 38 -86 7 -42 17 -54 43
-54 27 0 30 5 54 83 42 135 42 137 18 137 -12 0 -23 -6 -26 -12 -46 -146 -55
-154 -76 -70 -6 23 -15 42 -20 42 -5 0 -8 3 -8 8 4 23 -3 33 -23 30 -15 -2
-25 -15 -36 -48 -19 -58 -34 -90 -42 -90 -3 0 -14 26 -23 57 -10 32 -23 63
-29 70 -13 17 -38 17 -38 1z"/>
<path d="M1792 1413 c-47 -41 -28 -96 38 -108 47 -8 72 -24 68 -43 -3 -13 -14
-17 -52 -16 -28 0 -51 6 -56 14 -6 10 -10 8 -19 -8 -9 -18 -8 -23 10 -33 34
-18 120 -15 134 4 7 9 15 14 18 10 4 -3 7 -2 8 3 0 5 2 21 4 36 4 31 -20 62
-41 54 -8 -3 -14 -1 -14 4 0 5 -16 12 -35 16 -19 3 -35 10 -35 16 0 5 -6 6
-12 2 -7 -4 -3 4 9 17 21 21 26 22 65 12 32 -9 45 -9 50 0 23 37 -100 54 -140
20z"/>
</g>
</svg>
