<?xml version="1.0" encoding="UTF-8"?>
<svg id="Capa_2" data-name="Capa 2" xmlns="http://www.w3.org/2000/svg" viewBox="0 0 449.86 108.18">
  <defs>
    <style>
      .cls-1 {
        fill: #fff;
        fill-rule: evenodd;
      }

      .cls-2 {
        fill: #00a1ef;
      }
    </style>
  </defs>
  <g id="Capa_1-2" data-name="Capa 1">
    <g>
      <g>
        <g>
          <path d="m157.9,44.47l11.77,3.84c-1.84,6.92-4.89,11.98-9.16,15.18-4.27,3.2-9.53,4.79-15.77,4.79-7.84,0-14.2-2.55-19.08-7.64-5.61-5.88-8.41-13.82-8.41-23.81,0-10.56,2.82-18.82,8.47-24.78,4.91-5.18,11.51-7.77,19.8-7.77,6.75,0,12.4,1.94,16.94,5.83,3.24,2.76,5.61,6.85,7.12,12.29l-12.02,2.96c-.77-3.35-2.3-5.92-4.59-7.71-2.29-1.79-4.99-2.68-8.1-2.68-4.45,0-8.08,1.63-10.89,4.9-2.81,3.27-4.21,8.66-4.21,16.17s1.37,13.34,4.11,16.64c2.74,3.29,6.29,4.94,10.67,4.94,3.2,0,5.97-1.05,8.31-3.15,2.34-2.1,4.02-5.43,5.06-9.99Z"/>
          <path d="m248.71,67.23h-13.17l-5.27-14.02h-24.09l-4.98,14.02h-12.92l23.44-61.9h12.87l24.13,61.9Zm-22.36-24.49l-8.31-22.97-8.15,22.97h16.46Z"/>
          <path d="m277.54,67.23v-26.06l-22.03-35.84h14.22l14.14,24.48,13.95-24.48h13.97l-22.13,35.92v25.97h-12.12Z"/>
          <path d="m378.77,67.23h-13.17l-5.27-14.02h-24.09l-4.98,14.02h-12.92l23.44-61.9h12.87l24.13,61.9Zm-22.36-24.49l-8.31-22.97-8.15,22.97h16.46Z"/>
          <path d="m399.43,5.33h22.16c5.6,0,9.83.53,12.68,1.58,2.85,1.06,5.48,2.84,7.88,5.34,2.4,2.51,4.29,5.76,5.65,9.75,1.37,4,2.05,8.97,2.05,14.9,0,5.35-.72,10-2.15,13.95-1.43,3.96-3.25,7.09-5.45,9.39-2.2,2.31-4.86,4.05-7.98,5.21-3.12,1.17-7.13,1.75-12.03,1.75h-22.81V5.33Zm12.12,10.47v40.96h9.11c3.91,0,6.73-.31,8.49-.93,1.75-.62,3.19-1.55,4.31-2.81,1.12-1.25,2.04-3.23,2.78-5.93.73-2.7,1.1-6.26,1.1-10.67s-.38-8.2-1.13-10.84c-.75-2.64-1.92-4.72-3.5-6.24-1.59-1.52-3.51-2.52-5.78-3-1.7-.37-4.99-.55-9.86-.55h-5.51Z"/>
        </g>
        <g>
          <path d="m118.39,103.46l9.96-25.61h3.65l10.58,25.61h-3.91l-3-7.76h-10.87l-2.81,7.76h-3.6Zm7.41-10.52h8.8l-2.68-7.09c-.83-2.18-1.44-3.95-1.83-5.31-.33,1.64-.81,3.27-1.41,4.89l-2.87,7.51Z"/>
          <path d="m162.15,77.85h3.42v14.8c0,2.48-.3,4.52-.89,6.11-.59,1.59-1.67,2.85-3.24,3.76-1.57.92-3.56,1.38-5.98,1.38-3.41,0-5.96-.83-7.65-2.48-1.7-1.65-2.54-4.58-2.54-8.77v-14.8h3.42v14.78c0,2.32.22,3.99.67,5.03.44,1.04,1.17,1.83,2.18,2.37s2.24.81,3.68.81c2.43,0,4.2-.56,5.3-1.68,1.1-1.12,1.64-3.3,1.64-6.53v-14.78Z"/>
          <path d="m177.94,103.46v-22.59h-8.51v-3.02h20.47v3.02h-8.55v22.59h-3.42Z"/>
          <path d="m191.78,90.99c0-4.37,1.18-7.72,3.54-10.07,2.36-2.35,5.31-3.52,8.83-3.52,2.28,0,4.35.52,6.23,1.57,1.88,1.05,3.36,2.57,4.46,4.57,1.1,2,1.64,4.38,1.64,7.14,0,3.8-1.06,6.89-3.18,9.28-2.33,2.63-5.39,3.95-9.17,3.95s-6.88-1.35-9.2-4.05c-2.11-2.45-3.16-5.4-3.16-8.86Zm3.52.04c0,3.16.86,5.61,2.57,7.35,1.71,1.74,3.79,2.61,6.24,2.61s4.61-.88,6.31-2.64c1.7-1.76,2.55-4.35,2.55-7.76,0-2.2-.44-4.17-1.31-5.91-.67-1.33-1.69-2.39-3.04-3.19-1.35-.8-2.83-1.2-4.44-1.2-2.58,0-4.7.87-6.37,2.62-1.67,1.75-2.5,4.45-2.5,8.11Z"/>
          <path d="m236.85,103.46v-22.59h-8.51v-3.02h20.47v3.02h-8.55v22.59h-3.42Z"/>
          <path d="m252.26,103.46v-25.61h11.45c2.39,0,4.16.24,5.3.72s2.07,1.27,2.8,2.38c.73,1.11,1.1,2.4,1.1,3.87,0,1.93-.62,3.5-1.86,4.7-1.24,1.2-3.04,1.96-5.4,2.29.96.47,1.69.94,2.19,1.42,1.02.98,1.91,2.07,2.69,3.27l4.51,6.97h-4.3l-3.44-5.32c-1.33-2.08-2.34-3.49-3.02-4.21-.68-.72-1.34-1.21-1.97-1.46-.64-.25-1.53-.38-2.67-.38h-3.95v11.37h-3.42Zm3.42-14.31h7.35c1.6,0,2.82-.16,3.65-.47.83-.31,1.49-.81,1.98-1.48.49-.67.73-1.46.73-2.36,0-1.29-.47-2.31-1.4-3.05-.93-.74-2.31-1.11-4.15-1.11h-8.16v8.47Z"/>
          <path d="m275.48,103.46l9.96-25.61h3.65l10.58,25.61h-3.91l-3-7.76h-10.87l-2.81,7.76h-3.6Zm7.41-10.52h8.8l-2.68-7.09c-.83-2.18-1.44-3.95-1.83-5.31-.33,1.64-.81,3.27-1.42,4.89l-2.87,7.51Z"/>
          <path d="m302.27,103.46v-25.61h3.5l13.58,20.15v-20.15h3.27v25.61h-3.5l-13.56-20.15v20.15h-3.29Z"/>
          <path d="m327.26,95.22l3.22-.28c.17,1.41.56,2.51,1.17,3.29.61.79,1.48,1.42,2.61,1.9,1.13.48,2.41.72,3.82.72,2.03,0,3.61-.4,4.74-1.21,1.12-.81,1.69-1.86,1.69-3.15,0-.76-.2-1.41-.61-1.98s-1.02-1.03-1.85-1.39c-.82-.36-2.6-.87-5.34-1.53-2.44-.59-4.17-1.18-5.2-1.77-1.03-.59-1.83-1.35-2.41-2.26-.57-.91-.86-1.95-.86-3.1,0-2.07.82-3.77,2.47-5.08,1.65-1.32,3.87-1.97,6.66-1.97,1.92,0,3.6.31,5.04.93,1.44.62,2.56,1.5,3.35,2.66s1.22,2.51,1.28,4.07l-3.29.24c-.17-1.67-.78-2.9-1.84-3.7-1.05-.8-2.53-1.21-4.44-1.21s-3.41.35-4.43,1.06c-1.02.7-1.53,1.62-1.53,2.73,0,1.04.37,1.84,1.12,2.41.74.57,2.42,1.15,5.03,1.73,2.55.57,4.34,1.07,5.37,1.49,1.57.66,2.76,1.52,3.57,2.58.8,1.06,1.21,2.34,1.21,3.81s-.42,2.8-1.27,4c-.85,1.2-1.99,2.12-3.45,2.75-1.45.63-3.2.94-5.25.94-3.19,0-5.74-.78-7.64-2.34-1.9-1.56-2.88-3.67-2.95-6.34Z"/>
          <path d="m352.46,103.46v-25.61h9.73c2.29,0,3.98.16,5.07.49,1.49.44,2.68,1.26,3.57,2.46.89,1.2,1.33,2.67,1.33,4.42,0,2.31-.72,4.19-2.17,5.64-1.45,1.46-3.95,2.18-7.5,2.18h-6.62v10.41h-3.42Zm3.42-13.43h6.68c2.11,0,3.65-.39,4.62-1.16.97-.77,1.46-1.94,1.46-3.5,0-1.01-.24-1.88-.72-2.6-.48-.72-1.06-1.22-1.74-1.48-.68-.27-1.91-.4-3.68-.4h-6.62v9.15Z"/>
          <path d="m375.58,90.99c0-4.37,1.18-7.72,3.54-10.07,2.36-2.35,5.31-3.52,8.83-3.52,2.28,0,4.35.52,6.23,1.57,1.88,1.05,3.36,2.57,4.46,4.57,1.1,2,1.64,4.38,1.64,7.14,0,3.8-1.06,6.89-3.18,9.28-2.33,2.63-5.39,3.95-9.17,3.95s-6.88-1.35-9.2-4.05c-2.11-2.45-3.16-5.4-3.16-8.86Zm3.52.04c0,3.16.86,5.61,2.57,7.35,1.71,1.74,3.79,2.61,6.24,2.61s4.61-.88,6.31-2.64c1.7-1.76,2.55-4.35,2.55-7.76,0-2.2-.44-4.17-1.31-5.91-.67-1.33-1.69-2.39-3.04-3.19-1.35-.8-2.83-1.2-4.44-1.2-2.58,0-4.7.87-6.37,2.62-1.67,1.75-2.5,4.45-2.5,8.11Z"/>
          <path d="m404.6,103.46v-25.61h11.45c2.39,0,4.16.24,5.3.72s2.07,1.27,2.8,2.38c.73,1.11,1.1,2.4,1.1,3.87,0,1.93-.62,3.5-1.86,4.7-1.24,1.2-3.04,1.96-5.4,2.29.96.47,1.69.94,2.19,1.42,1.02.98,1.91,2.07,2.69,3.27l4.51,6.97h-4.3l-3.44-5.32c-1.33-2.08-2.34-3.49-3.02-4.21-.68-.72-1.34-1.21-1.97-1.46-.64-.25-1.53-.38-2.67-.38h-3.95v11.37h-3.42Zm3.42-14.31h7.35c1.6,0,2.82-.16,3.65-.47.83-.31,1.49-.81,1.98-1.48.49-.67.73-1.46.73-2.36,0-1.29-.47-2.31-1.4-3.05-.93-.74-2.31-1.11-4.15-1.11h-8.16v8.47Z"/>
          <path d="m436.66,103.46v-22.59h-8.51v-3.02h20.47v3.02h-8.55v22.59h-3.42Z"/>
        </g>
      </g>
      <g>
        <circle class="cls-2" cx="54.09" cy="54.09" r="53.09"/>
        <path class="cls-1" d="m54.09,108.18c29.87,0,54.09-24.22,54.09-54.09S83.96,0,54.09,0,0,24.22,0,54.09s24.22,54.09,54.09,54.09Zm51.01-54.09c0,28.17-22.84,51.01-51.01,51.01S3.08,82.26,3.08,54.09,25.92,3.08,54.09,3.08c14.06,0,26.79,5.69,36.01,14.89-.79.25-1.6.72-2.22,1.08-.18.1-.35.2-.49.28-2.03,1.11-4.02,2.29-5.98,3.53-1.28.82-2.55,1.67-3.8,2.54-1.11.78-2.18,1.54-2.91,2.74-.73,1.21-1,2.35-1.12,3.05,0,.03-.02.06-.05.07l-4.67,2.95c-.07.04-.07.15,0,.19.12.06.27.15.39.22.11.06.2.12.24.13.28.11.54.14.83.07.44-.11.82-.39,1.19-.67h0c.13-.09.25-.19.37-.27.07-.05.2-.15.36-.29.57-.48,1.55-1.3,1.84-1.06.37.3,1.14.85,2.26,1.06,1.37.26,2.45-.15,2.89-.34.25-.11.5-.22.74-.32,2.41-1.05,4.8-2.09,7.1-3.43.24-.14.5-.28.75-.43h0c1.25-.7,2.58-1.46,3.57-2.45,1.4-1.4,1.68-3.54,1.6-5.51,7.54,8.89,12.09,20.4,12.09,32.97Zm-72.14,2.09l-4.81,2.7s-.06.02-.08,0c-.63-.25-1.72-.59-3.09-.54-1.36.05-2.54.62-3.74,1.22-1.36.68-2.7,1.38-4.03,2.12-2.02,1.12-4.01,2.32-5.95,3.58-.14.09-.31.19-.49.3-1.37.84-3.61,2.21-2.74,3.95.2.4.54.72.89.99,1.74,1.36,4.07,2.72,6.33,2.06,1.32-.38,2.62-1.2,3.84-1.96h0s0,0,0,0c.25-.16.49-.31.73-.46,2.27-1.39,4.35-3.01,6.45-4.65.21-.16.42-.33.63-.49.38-.3,1.26-1.07,1.74-2.42.39-1.11.33-2.07.27-2.56-.05-.38,1.13-.85,1.81-1.11.19-.08.35-.14.42-.18.13-.07.27-.13.41-.2.42-.19.85-.39,1.16-.73.21-.23.3-.47.36-.78,0-.04,0-.15.01-.29h0c0-.15,0-.32.02-.46,0-.08-.08-.14-.15-.1h0Zm6.25-2.34v-1.24h0c0-.13.07-.25.17-.31l23.59-14.55c.17-.1.37.05.33.25l-.19.97c-.03.15-.12.29-.25.37l-23.38,14.67c-.12.08-.27-.01-.27-.16Zm1.1-18.81h0s0,0,0,0l.04-.03s.02-.01.03-.02c.02-.01.04-.02.05-.03,1.17-.79,2.61-1.32,4.03-1.24.72.04,1.43.23,2.07.58.27.15,1.23.73,1.53,1.18.04.05.12.03.12-.03.17-1.81-.12-3.87-1.19-5.32-1.08-1.48-3.02-2.17-4.77-1.73-2.04.51-3.07,2.38-3.34,4.42-.14,1.05-.12,2.13-.02,3.18,0,.07.09.1.14.05h0c.28-.33,1-.8,1.31-1.01Zm-2.47,12.76c-1.62.64-3.12,1.63-4.37,2.9h0s-.09,0-.09-.04c.02-.95.49-1.86,1.15-2.51.7-.68,1.6-1.11,2.52-1.37.18-.05.36-.09.54-.14h0c.56-.13,1.11-.27,1.6-.57.55-.34.98-.86,1.26-1.46.04-.08.07-.21.11-.35h0c.07-.25.14-.52.25-.61,0,0,0,0,.01,0,0,0,0,0,.01,0,.18-.1.59,0,.89.09.1.03.19.05.25.06.94.16,1.93.16,2.82-.22.88-.38,1.64-1.17,1.81-2.15,0-.05.01-.11.02-.19.01-.2.03-.44.14-.52.1-.07.38.04.58.11.07.03.13.05.16.06.55.14,1.1.25,1.67.23.76-.03,1.5-.17,2.24-.31h0s0,0,0,0c.06-.01.12-.02.18-.03h.07s.06-.02.06-.02c.95-.18,2.27-.43,3.13.15.02.01.02.05,0,.06-.32.16-.69.23-1.06.31h0c-.26.05-.52.1-.76.18-.64.22-1.27.48-1.88.78-1.25.62-2.41,1.41-3.48,2.32-1.4,1.19-2.81,1.88-4.6,2.22-.53.1-1.06.17-1.6.25-1.24.17-2.48.35-3.66.81Zm32.14-7.22c-.37-.46-.79-.88-1.22-1.28-.08-.08-.17-.15-.25-.22-.03-.02-.05-.05-.08-.07-.39-.34-.8-.7-.91-1.25-.1-.51.07-1,.23-1.49.14-.39.27-.79.27-1.2-.02-2.62-4.14-.22-5.11.34l-.03.02c-.12.07-.24.14-.33.25-.03.03-.05.07-.06.1-.21.46.51.91.83,1.07.13.07.26.12.4.18.3.13.59.26.85.47.26.21.13.37-.03.55-.13.15-.28.32-.23.55.05.25.22.46.38.66.02.02.04.05.06.07.74.92,1.18,2.1,1.25,3.3,0,.08.01.16.02.24.04.34.08.7-.22.93-.21.15-.47.19-.72.22-3.48.47-7.07,1.04-10.47,1.95-.94.25-1.05.95-1.18,1.76-.02.14-.05.29-.08.44-.04.21-.08.43-.13.64h0c-.12.6-.24,1.2-.34,1.8-.27,1.6-.39,3.23-.09,4.84.28,1.46.8,2.85,1.49,4.15.35.66.75,1.3,1.17,1.92.02.03.04.06.06.09.26.4.9,1.36,1.14.46.04-.16.03-.32.01-.48-.1-1.07-.41-2.1-.72-3.12h0c-.14-.48-.29-.95-.41-1.43-.44-1.74-.44-3.52-.22-5.29.01-.11.03-.21.04-.32.15-1.26.34-2.78,1.29-3.63.68-.62,1.68-.62,2.58-.62.2,0,.4,0,.58,0,2.71-.1,5.4-.44,8.08-.86.99-.16,2.08-.39,2.72-1.27.38-.52.51-1.2.46-1.85-.08-.94-.51-1.88-1.09-2.6h0Zm-31.66,20.81s-.03-.06-.06-.07c-.03-.01-.06,0-.09,0-.16.06-.33.13-.49.2-.56.23-1.13.47-1.72.45-.68-.02-1.34-.36-1.8-.88-.32-.36-.58-.81-.67-1.29-.03-.14-.07-.44.02-.56.02-.02.04-.03.06-.04.08-.02.19.06.28.13.01.01.03.02.04.03,0,0,0,0,0,0,0,0,0,0,0,0,0,0,.01,0,.02.01.09.06.17.12.26.19.24.17.48.34.74.47.51.23,1.1.32,1.62.11.72-.29,1.14-1.09,1.41-1.84.09-.24.26-.54.5-.46.08.03.14.09.19.15.59.68,1.06,1.47,1.53,2.25h0c.19.31.38.62.57.93.69,1.07,1.51,2.11,2.63,2.67,1.13.56,2.44.58,3.69.47,1.99-.17,3.96-.61,5.82-1.37.44-.18.95-.38,1.38-.17.44.21.61.76.68,1.26.1.7.08,1.44-.27,2.04-.4.68-1.14,1.06-1.88,1.27-1.41.41-2.9.36-4.36.32h-.11s-.01,0-.01,0c-2.41-.07-4.97-.15-6.98-1.53-1.45-.99-2.17-2.72-2.85-4.33l-.04-.1c-.03-.06-.05-.12-.08-.18-.02-.04-.03-.08-.05-.12Zm24.68.39c-1.01-2.23-2.34-4.31-4.05-6.02-.98-.98-3.11-2.93-2.75-.19.09.71.28,1.39.46,2.08.1.37.2.74.28,1.11.41,1.83.48,3.72-.19,5.5-1.12,2.97-3.51,5.19-5.79,7.31-.49.45-.97.9-1.43,1.35-.02.02-.06.06-.1.1-.66.63-3.4,3.24-2.59,3.8.12.08.27.07.41.04.58-.1,1.07-.36,1.58-.62h0c.09-.05.18-.1.28-.14,2.52-1.28,5.32-2.01,8.12-2.16.86-.05,1.78-.01,2.46.54.55.44.83,1.15,1.05,1.84,1.39,4.47.64,9.41-.58,13.82-1.21,4.37-3.18,8.52-5.85,12.13-.16.22-.29.6-.04.7.11.05.23-.01.34-.07l.13-.07c.76-.43,1.5-.91,2.19-1.45,3.93-3.04,6.56-7.57,7.99-12.39,1.01-3.42,1.39-6.94,1.34-10.48-.01-.81-.05-1.63-.1-2.44-.33-4.87-1.12-9.84-3.14-14.29h0Zm-25.14,15.19c.82,4.96,2.85,9.64,5.45,13.88h0c2.43,3.95,5.36,7.54,8.43,10.98.14.16-.04.41-.23.3-.81-.45-1.56-1-2.29-1.59-.15-.12-.31-.25-.46-.38-.2-.16-.39-.33-.59-.5-1.16-1.02-2.26-2.12-3.28-3.29-6.41-7.34-9.67-17.05-8.23-26.92,0-.05.02-.11.03-.2h0c.14-1.07.66-4.98,1.67-4.66.06.02.13.07.2.16.26.33.49.68.73,1.03.39.58.78,1.15,1.26,1.65,1.08,1.1,2.57,1.7,4.06,1.94,1.4.22,2.82.16,4.23.08.14,0,.24.14.18.28-.62,1.38-2.03,2.24-3.42,2.76-1.69.64-3.49.93-5.28.87-.04,0-.08,0-.12,0-.47-.02-.95-.04-1.38.16-.56.27-.92.88-1.03,1.52-.12.63-.03,1.28.07,1.92Zm.1-21.99c1.14-2.12-1.56-3.74-3.25-2.91-.55.27-1.01.79-1.29,1.39-1.52,3.3,3.14,4.11,4.53,1.52Z"/>
      </g>
    </g>
  </g>
</svg>