<svg width="439" height="185" viewBox="0 0 439 185" fill="none" xmlns="http://www.w3.org/2000/svg">
<path d="M1.17476 81.9753L3.82525 102.025" stroke="#020202"/>
<path d="M8.14896 126.931L15.851 144.069" stroke="black"/>
<path d="M32.0727 163.133L53.2251 176.608" stroke="black"/>
<path d="M75.0672 182.068L101.004 183.882" stroke="black"/>
<path d="M127.007 184.419L150.993 183.581" stroke="black"/>
<path d="M180.268 179.425L202.479 175.108" stroke="black"/>
<path d="M223.025 165.399L240.975 155.459" stroke="black"/>
<path d="M288.818 107.967V107.967C290.636 103.134 291.786 98.0743 292.237 92.9295L292.746 87.1063" stroke="black"/>
<path d="M282.993 27.5459V27.5459C279.315 20.1167 273.218 14.1605 265.704 10.6571L260.997 8.4621" stroke="black"/>
<path d="M238.954 3.28758V3.28758C228.254 -0.159814 216.773 -0.360221 205.959 2.71166V2.71166" stroke="black"/>
<path d="M182.449 13.1499V13.1499C173.566 15.5117 165.915 21.1664 161.05 28.9652L159.128 32.0475" stroke="black"/>
<path d="M153.857 86.3309L154.054 89.1454C154.612 97.1198 156.863 104.883 160.659 111.919V111.919" stroke="black"/>
<path d="M156.749 45.4908L153.826 66.2865" stroke="black"/>
<path d="M251.927 177.388L246.515 177.104C239.545 176.739 232.844 174.295 227.275 170.088V170.088" stroke="black"/>
<path d="M271.399 176.698L297.558 174.527" stroke="black"/>
<path d="M321.454 168.977L344.538 161.032" stroke="black"/>
<path d="M363.97 150.947L385.026 140.054" stroke="black"/>
<path d="M399.083 130.069L421.929 117.738" stroke="black"/>
<path d="M256.793 142.96L268.385 133.048" stroke="black"/>
<path d="M292.77 69.1646V69.1646C293.406 61.8967 292.998 54.5751 291.557 47.4231L290.23 40.8354" stroke="black"/>
<line x1="435.743" y1="106.44" x2="404.104" y2="101.548" stroke="black"/>
<line x1="437.554" y1="105.896" x2="432.429" y2="137.261" stroke="black"/>
<path d="M177.6 134.623V134.623C181.489 142.73 187.733 149.476 195.516 153.979L196.806 154.726" stroke="black"/>
</svg>
