<?xml version="1.0" encoding="UTF-8"?>
<svg version="1.1" xmlns="http://www.w3.org/2000/svg" width="1024" height="1024">
<path d="M0 0 C1.27641357 0.90927246 1.27641357 0.90927246 2.57861328 1.83691406 C11.70758498 8.37733377 20.59093527 15.10714777 29.0703125 22.47265625 C31.95745387 24.96329688 34.90286667 27.36182241 37.875 29.75 C41.54640689 32.73600676 44.9520517 35.81805486 48.22827148 39.22924805 C49.94711805 40.94714719 51.72640822 42.51714945 53.578125 44.08984375 C58.63088864 48.48224046 63.34089533 53.19454671 68.0625 57.9375 C68.92166016 58.79279297 69.78082031 59.64808594 70.66601562 60.52929688 C75.65398788 65.52489018 80.41086464 70.63813575 85 76 C86.02142188 77.15673089 87.04482016 78.31171996 88.0703125 79.46484375 C95.5885972 87.98491642 102.60524302 96.79510104 109.41357422 105.89013672 C110.96165657 107.94900525 112.52677059 109.99365298 114.09765625 112.03515625 C172.96097343 188.86638056 206.81366743 286.73673365 208.06756592 477.17175293 C200.33205956 535.4073447 182.2733409 590.58476706 156 643 C155.58008789 643.84240234 155.16017578 644.68480469 154.72753906 645.55273438 C138.97364867 676.95120802 118.51451579 706.10875697 96 733 C95.58572754 733.49918945 95.17145508 733.99837891 94.74462891 734.51269531 C83.8774219 747.60484326 72.25722819 759.834294 60.25 771.875 C59.70647888 772.42119995 59.16295776 772.9673999 58.60296631 773.53015137 C52.58359028 779.57199199 46.52151512 785.49463225 40 791 C38.99019563 791.87681038 37.98104061 792.7543694 36.97265625 793.6328125 C-38.73090414 858.46351254 -133.37358901 900.29577479 -334.72460938 913.35498047 C-399.03148373 908.14892593 -461.38974601 889.87996981 -519 861 C-519.97420898 860.51418457 -520.94841797 860.02836914 -521.95214844 859.52783203 C-542.54503087 849.20379566 -562.30304885 837.46750159 -581 824 C-581.77359863 823.44280273 -582.54719727 822.88560547 -583.34423828 822.31152344 C-592.79409176 815.47657115 -602.09665688 808.53771756 -611 801 C-612.04251137 800.13096145 -613.08550528 799.26250152 -614.12890625 798.39453125 C-621.04919119 792.6159699 -627.7773474 786.6547275 -634.37402344 780.50830078 C-636.12899673 778.88033907 -637.8960027 777.26607837 -639.6640625 775.65234375 C-647.35049965 768.60431173 -654.62040768 761.33307916 -661.58251953 753.5703125 C-662.99809065 752.00211522 -664.43091515 750.45185536 -665.87109375 748.90625 C-671.85146891 742.48074699 -677.53317199 735.87072432 -683 729 C-683.41185547 728.48775879 -683.82371094 727.97551758 -684.24804688 727.44775391 C-701.31360334 706.21845828 -716.60213261 683.71716208 -730 660 C-730.70141113 658.75959961 -730.70141113 658.75959961 -731.41699219 657.49414062 C-762.61533138 602.00757561 -782.77158554 541.44253932 -791.3125 478.375 C-791.53329224 476.74643066 -791.53329224 476.74643066 -791.75854492 475.08496094 C-794.42179232 453.94728527 -795.37909581 432.85564304 -795.3125 411.5625 C-795.31067719 410.34320801 -795.30885437 409.12391602 -795.30697632 407.86767578 C-795.25740391 388.08521783 -794.57769506 368.62066032 -792 349 C-791.91514343 348.34672729 -791.83028687 347.69345459 -791.74285889 347.02038574 C-787.78007952 316.72587139 -781.24612286 287.1274131 -772 258 C-771.71688965 257.08782715 -771.4337793 256.1756543 -771.14208984 255.23583984 C-753.83038641 199.55933452 -725.35291678 146.53807817 -689 101 C-688.4961377 100.36610352 -687.99227539 99.73220703 -687.47314453 99.07910156 C-681.34063196 91.38260486 -675.1215883 83.83025739 -668.4140625 76.625 C-667.14120947 75.2409268 -665.87344967 73.85098607 -664.65625 72.41772461 C-659.00994156 65.77923351 -652.84468671 59.65860381 -646.68603516 53.50073242 C-644.76303818 51.57555298 -642.84819426 49.64250969 -640.93359375 47.70898438 C-634.63654558 41.38386933 -628.31413099 35.34500831 -621.29052734 29.82299805 C-619.06109281 28.0486229 -616.96393427 26.18655736 -614.875 24.25 C-546.36416569 -37.2028798 -453.54149573 -75.08677421 -356.97375488 -88.73571777 C-355.09225245 -88.98764756 -353.21162649 -89.24609771 -351.33105469 -89.50488281 C-252.32498722 -102.51710882 -149.50079334 -81.9687767 0 0 Z " fill="#00A1EF" transform="translate(805,102)"/>
<path d="M0 0 C1.27641357 0.90927246 1.27641357 0.90927246 2.57861328 1.83691406 C11.70758498 8.37733377 20.59093527 15.10714777 29.0703125 22.47265625 C31.95745387 24.96329688 34.90286667 27.36182241 37.875 29.75 C41.54640689 32.73600676 44.9520517 35.81805486 48.22827148 39.22924805 C49.94711805 40.94714719 51.72640822 42.51714945 53.578125 44.08984375 C58.63088864 48.48224046 63.34089533 53.19454671 68.0625 57.9375 C68.92166016 58.79279297 69.78082031 59.64808594 70.66601562 60.52929688 C75.65398788 65.52489018 80.41086464 70.63813575 85 76 C86.02142188 77.15673089 87.04482016 78.31171996 88.0703125 79.46484375 C95.5885972 87.98491642 102.60524302 96.79510104 109.41357422 105.89013672 C110.96165657 107.94900525 112.52677059 109.99365298 114.09765625 112.03515625 C172.96097343 188.86638056 206.81366743 286.73673365 208.06756592 477.17175293 C200.33205956 535.4073447 182.2733409 590.58476706 156 643 C155.58008789 643.84240234 155.16017578 644.68480469 154.72753906 645.55273438 C138.97364867 676.95120802 118.51451579 706.10875697 96 733 C95.58572754 733.49918945 95.17145508 733.99837891 94.74462891 734.51269531 C83.8774219 747.60484326 72.25722819 759.834294 60.25 771.875 C59.70647888 772.42119995 59.16295776 772.9673999 58.60296631 773.53015137 C52.58359028 779.57199199 46.52151512 785.49463225 40 791 C38.99019563 791.87681038 37.98104061 792.7543694 36.97265625 793.6328125 C-38.73090414 858.46351254 -133.37358901 900.29577479 -334.72460938 913.35498047 C-399.03148373 908.14892593 -461.38974601 889.87996981 -519 861 C-519.97420898 860.51418457 -520.94841797 860.02836914 -521.95214844 859.52783203 C-542.54503087 849.20379566 -562.30304885 837.46750159 -581 824 C-581.77359863 823.44280273 -582.54719727 822.88560547 -583.34423828 822.31152344 C-592.79409176 815.47657115 -602.09665688 808.53771756 -611 801 C-612.04251137 800.13096145 -613.08550528 799.26250152 -614.12890625 798.39453125 C-621.04919119 792.6159699 -627.7773474 786.6547275 -634.37402344 780.50830078 C-636.12899673 778.88033907 -637.8960027 777.26607837 -639.6640625 775.65234375 C-647.35049965 768.60431173 -654.62040768 761.33307916 -661.58251953 753.5703125 C-662.99809065 752.00211522 -664.43091515 750.45185536 -665.87109375 748.90625 C-671.85146891 742.48074699 -677.53317199 735.87072432 -683 729 C-683.41185547 728.48775879 -683.82371094 727.97551758 -684.24804688 727.44775391 C-701.31360334 706.21845828 -716.60213261 683.71716208 -730 660 C-730.70141113 658.75959961 -730.70141113 658.75959961 -731.41699219 657.49414062 C-762.61533138 602.00757561 -782.77158554 541.44253932 -791.3125 478.375 C-791.53329224 476.74643066 -791.53329224 476.74643066 -791.75854492 475.08496094 C-794.42179232 453.94728527 -795.37909581 432.85564304 -795.3125 411.5625 C-795.31067719 410.34320801 -795.30885437 409.12391602 -795.30697632 407.86767578 C-795.25740391 388.08521783 -794.57769506 368.62066032 -792 349 C-791.91514343 348.34672729 -791.83028687 347.69345459 -791.74285889 347.02038574 C-787.78007952 316.72587139 -781.24612286 287.1274131 -772 258 C-771.71688965 257.08782715 -771.4337793 256.1756543 -771.14208984 255.23583984 C-753.83038641 199.55933452 -725.35291678 146.53807817 -689 101 C-688.4961377 100.36610352 -687.99227539 99.73220703 -687.47314453 99.07910156 C-681.34063196 91.38260486 -675.1215883 83.83025739 -668.4140625 76.625 C-667.14120947 75.2409268 -665.87344967 73.85098607 -664.65625 72.41772461 C-659.00994156 65.77923351 -652.84468671 59.65860381 -646.68603516 53.50073242 C-644.76303818 51.57555298 -642.84819426 49.64250969 -640.93359375 47.70898438 C-634.63654558 41.38386933 -628.31413099 35.34500831 -621.29052734 29.82299805 C-619.06109281 28.0486229 -616.96393427 26.18655736 -614.875 24.25 C-546.36416569 -37.2028798 -453.54149573 -75.08677421 -356.97375488 -88.73571777 C-355.09225245 -88.98764756 -353.21162649 -89.24609771 -351.33105469 -89.50488281 C-252.32498722 -102.51710882 -149.50079334 -81.9687767 0 0 Z M-408 -48 C-408.95261719 -47.74669922 -409.90523438 -47.49339844 -410.88671875 -47.23242188 C-438.73460243 -39.73491473 -465.75690123 -29.9227604 -492 -18 C-493.46348877 -17.33653564 -493.46348877 -17.33653564 -494.95654297 -16.65966797 C-522.28113835 -4.17747873 -547.66598604 11.42543437 -572 29 C-572.60166992 29.43296387 -573.20333984 29.86592773 -573.82324219 30.31201172 C-586.69159782 39.61605537 -598.43487245 50.14998695 -610 61 C-611.42706384 62.3333542 -612.85414821 63.66668642 -614.28125 65 C-628.06739543 77.80700602 -628.06739543 77.80700602 -640.86328125 91.58203125 C-643.19760003 94.22360954 -645.60438737 96.78580264 -648.02368164 99.34936523 C-657.72543062 109.63708297 -666.44819024 120.3580904 -674.55322266 131.94384766 C-676.12997728 134.18472302 -677.72635763 136.41084938 -679.32421875 138.63671875 C-687.50302437 150.08886388 -694.97101609 161.81122869 -702 174 C-702.41668945 174.71236816 -702.83337891 175.42473633 -703.26269531 176.15869141 C-728.1353935 218.77044587 -745.51096472 265.62566424 -756.17227173 313.71688843 C-756.59438577 315.61251766 -757.02947796 317.50524403 -757.46557617 319.39770508 C-763.51103512 347.56384421 -764.62023103 375.80164458 -764.39123535 404.4987793 C-764.36946887 407.93591927 -764.37039757 411.37290455 -764.37123203 414.81010151 C-764.36988679 439.8189315 -763.50360772 464.48047559 -759.3125 489.1875 C-759.1188385 490.35082855 -759.1188385 490.35082855 -758.92126465 491.53765869 C-749.40211301 548.46068503 -729.48768704 604.80117681 -699 654 C-698.52643066 654.77408203 -698.05286133 655.54816406 -697.56494141 656.34570312 C-685.13558301 676.62884445 -671.26046562 695.75216754 -656 714 C-655.33943604 714.79011475 -655.33943604 714.79011475 -654.66552734 715.59619141 C-640.58070692 732.38529735 -625.64139319 749.25865328 -608.86328125 763.4140625 C-606.64528815 765.30191407 -604.51757845 767.27702792 -602.375 769.25 C-596.72266163 774.34835728 -590.76543138 779.00842754 -584.74072266 783.65332031 C-583.12579789 784.90267866 -581.52141307 786.16562873 -579.91796875 787.4296875 C-562.49993432 801.06896992 -544.124137 812.89965736 -525 824 C-523.79827148 824.70334473 -523.79827148 824.70334473 -522.57226562 825.42089844 C-500.10004568 838.52142913 -476.38750725 849.02675944 -452 858 C-451.02095703 858.36432129 -450.04191406 858.72864258 -449.03320312 859.10400391 C-430.14186937 866.04973066 -410.59597136 870.54849261 -391 875 C-389.82228027 875.26973633 -388.64456055 875.53947266 -387.43115234 875.81738281 C-358.98295688 882.23178905 -330.56445284 884.7156733 -301.48059845 884.45538712 C-299.26666522 884.43712186 -297.05279451 884.42605307 -294.83880615 884.4168396 C-252.90086815 884.22940655 -212.73051 880.62791282 -172 870 C-170.84306641 869.70367676 -169.68613281 869.40735352 -168.49414062 869.10205078 C-159.34237546 866.72091919 -150.34155529 863.99703565 -141.375 861 C-140.66723419 860.76356781 -139.95946838 860.52713562 -139.23025513 860.28353882 C-84.23317552 841.81022562 -33.47575687 813.25250439 11 776 C11.59232422 775.50677246 12.18464844 775.01354492 12.79492188 774.50537109 C30.21178657 759.96704619 47.33109339 744.34150243 62 727 C62.97097956 725.89045754 63.94382836 724.78254964 64.91796875 723.67578125 C77.16001657 709.73868066 88.32261501 695.1671322 99 680 C99.65500488 679.0711499 99.65500488 679.0711499 100.32324219 678.12353516 C108.65007446 666.22098546 115.81841244 653.61404872 123 641 C123.52384277 640.08831055 124.04768555 639.17662109 124.58740234 638.23730469 C138.51899532 613.9051883 149.06051713 588.51768459 158 562 C158.4117749 560.80487793 158.8235498 559.60975586 159.24780273 558.37841797 C162.2299427 549.63057981 164.77961503 540.83560747 167.0625 531.875 C167.23430786 531.20369049 167.40611572 530.53238098 167.58312988 529.84072876 C174.18039401 503.98744219 179.48898625 476.97832832 180.55078125 450.27734375 C180.61353996 448.71946388 180.61353996 448.71946388 180.67756653 447.13011169 C181.10816109 435.49164635 181.18608384 423.85515932 181.18530273 412.2097168 C181.18749625 408.56872977 181.20577232 404.92804363 181.22460938 401.28710938 C181.27565585 380.50979316 180.21918111 359.93669714 176.6875 339.4375 C176.46638346 338.12193599 176.24544066 336.80634277 176.0246582 335.49072266 C164.25476458 266.11364151 138.24048165 202.68592047 99.3125 144.1875 C98.93050446 143.6128299 98.54850891 143.03815979 98.15493774 142.44607544 C94.34705319 136.73615395 90.55187408 131.14442573 86 126 C82.74716995 126.56597417 81.30854931 127.36308172 79.23046875 129.9140625 C78.73820801 130.50662842 78.24594727 131.09919434 77.73876953 131.7097168 C77.22685059 132.34176025 76.71493164 132.97380371 76.1875 133.625 C75.10722252 134.91683317 74.02520878 136.20721654 72.94140625 137.49609375 C72.17014404 138.41817627 72.17014404 138.41817627 71.38330078 139.35888672 C60.32831157 152.47424808 46.08235234 161.2667142 31 169 C30.36398865 169.32671692 29.72797729 169.65343384 29.07269287 169.99005127 C-6.15565927 188.06855667 -6.15565927 188.06855667 -24 195 C-24.83660156 195.37125 -25.67320312 195.7425 -26.53515625 196.125 C-33.79976794 198.70387959 -41.28165873 197.94145997 -48.859375 197.68359375 C-87.76546888 196.08371089 -87.76546888 196.08371089 -120.53369141 214.83203125 C-124.2806979 218.12577681 -128.41851397 220.31269709 -132.875 222.5 C-133.54297607 222.84224609 -134.21095215 223.18449219 -134.89916992 223.53710938 C-136.58421636 224.388896 -138.29124044 225.19684203 -140 226 C-140.82113281 226.39960938 -141.64226563 226.79921875 -142.48828125 227.2109375 C-145.83422498 228.26207379 -148.81459931 228.19038132 -152.3125 228.125 C-153.56675781 228.10695313 -154.82101562 228.08890625 -156.11328125 228.0703125 C-157.54220703 228.03550781 -157.54220703 228.03550781 -159 228 C-155.53360138 224.27683111 -152.19266775 221.7134698 -147.75 219.25 C-147.14937744 218.91347412 -146.54875488 218.57694824 -145.92993164 218.23022461 C-142.57011605 216.36203833 -139.17744655 214.56441691 -135.76171875 212.80078125 C-122.5480051 205.97481757 -110.69471697 198.50609762 -100 188 C-99.01193359 187.03126953 -99.01193359 187.03126953 -98.00390625 186.04296875 C-91.69065977 179.37672354 -88.75009004 171.53256465 -86.0625 162.875 C-80.23026794 145.12671734 -64.01637108 136.37749836 -49 127 C-47.18584628 125.8560262 -45.37206032 124.71146904 -43.55859375 123.56640625 C-32.76896734 116.77229628 -21.90803757 110.1014979 -11 103.5 C-1.92691595 98.00812066 7.12294774 92.48292841 16.125 86.875 C17.07761719 86.28396484 18.03023437 85.69292969 19.01171875 85.08398438 C25.14913477 81.24700808 31.11048786 77.20724955 37 73 C33.10703092 64.75840996 24.83378418 58.83790608 18 53 C16.98232945 52.10761797 15.96546778 51.21431303 14.94921875 50.3203125 C-27.02803129 13.58413858 -77.0153345 -13.42957466 -129 -33 C-130.49539307 -33.57258545 -130.49539307 -33.57258545 -132.02099609 -34.15673828 C-144.59388573 -38.97038337 -157.21655387 -42.93705755 -170.25537109 -46.28222656 C-172.94740123 -46.98624441 -175.62399277 -47.73247156 -178.30078125 -48.4921875 C-189.99022799 -51.7591025 -201.74486725 -54.19909102 -213.6875 -56.3125 C-214.41070435 -56.44164795 -215.13390869 -56.5707959 -215.87902832 -56.70385742 C-217.98454901 -57.07692095 -220.09143403 -57.44074844 -222.19921875 -57.80078125 C-223.41440186 -58.00872314 -224.62958496 -58.21666504 -225.8815918 -58.4309082 C-244.52749817 -61.17313199 -263.67316299 -60.33707627 -282.46826172 -60.4050293 C-286.85268712 -60.4225933 -291.23643873 -60.45701492 -295.62060547 -60.50756836 C-333.90135264 -60.93821354 -370.92352056 -58.01317166 -408 -48 Z " fill="#FDFEFE" transform="translate(805,102)"/>
<path d="M0 0 C3.95737265 0.61139184 6.21924254 2.82688738 9.09375 5.4296875 C9.6926001 5.95788086 10.2914502 6.48607422 10.90844727 7.03027344 C29.71308851 23.85203826 46.00493108 42.00591039 57.78125 64.4296875 C58.15717285 65.13287109 58.5330957 65.83605469 58.92041016 66.56054688 C86.06506261 117.98316315 94.9713648 181.17773864 94.96655273 238.63378906 C94.96873101 241.52944844 94.98693875 244.42472041 95.00585938 247.3203125 C95.13688507 290.26141922 83.33435686 331.28308836 63.78125 369.4296875 C63.40049316 370.17750488 63.01973633 370.92532227 62.62744141 371.69580078 C54.93100318 386.59005387 45.28891275 400.24642811 33.78125 412.4296875 C32.69368658 413.71779452 31.61023087 415.00938284 30.53125 416.3046875 C18.48525374 430.0321615 3.5757928 440.75229187 -11.59375 450.7421875 C-12.32561523 451.22888916 -13.05748047 451.71559082 -13.81152344 452.21704102 C-15.57335614 453.35344403 -17.39180116 454.40123029 -19.21875 455.4296875 C-19.87875 455.0996875 -20.53875 454.7696875 -21.21875 454.4296875 C-20.2543128 453.07555671 -19.28966734 451.72157395 -18.32421875 450.36816406 C-17.44422484 449.13391278 -16.56536158 447.89885475 -15.6875 446.66308594 C-13.16567736 443.12176613 -10.61496315 439.60698663 -8.01171875 436.125 C6.29079167 416.89734748 16.27086894 396.3889105 24.46875 373.9296875 C24.82525635 372.95829834 25.1817627 371.98690918 25.54907227 370.98608398 C31.0292099 355.61712853 34.65488267 340.02753364 37.53125 323.9921875 C37.98445563 321.50438301 38.43997825 319.01702425 38.89752197 316.53001404 C39.17764335 315.00359074 39.45493641 313.47664477 39.72894287 311.94911194 C40.26060809 309.02143214 40.83867213 306.25742112 41.78125 303.4296875 C44.63710041 287.97259884 45.11327566 272.22444403 45.20211792 256.55047607 C45.21301614 254.62843008 45.23029886 252.70640725 45.25466919 250.78448486 C45.47561697 230.75437286 44.60190367 207.11581656 31.015625 191.1484375 C23.07543276 185.04059732 15.28500986 184.86343731 5.53125 185.0546875 C4.29761719 185.05597656 3.06398438 185.05726563 1.79296875 185.05859375 C-9.61568936 185.16656212 -20.5177622 186.55706574 -31.40625 189.9921875 C-32.23664795 190.2490332 -33.0670459 190.50587891 -33.92260742 190.77050781 C-36.69395315 191.63933194 -39.45711177 192.5304951 -42.21875 193.4296875 C-43.23227539 193.75888184 -44.24580078 194.08807617 -45.29003906 194.42724609 C-58.5225354 198.76846195 -71.41783554 203.56130184 -84.09887695 209.33105469 C-85.44018677 209.93868652 -85.44018677 209.93868652 -86.80859375 210.55859375 C-87.98216431 211.10108765 -87.98216431 211.10108765 -89.17944336 211.65454102 C-91.21875 212.4296875 -91.21875 212.4296875 -94.21875 212.4296875 C-92.76802753 207.73004166 -90.00265647 204.70586479 -86.65625 201.2421875 C-85.65405947 200.18704106 -84.65278552 199.13102343 -83.65234375 198.07421875 C-83.13590805 197.53175507 -82.61947235 196.98929138 -82.08738708 196.4303894 C-80.10561755 194.30855948 -78.1866665 192.13879631 -76.26391602 189.96337891 C-71.27374934 184.4120076 -66.03100588 179.14046657 -60.72688293 173.8932209 C-59.01535105 172.19943362 -57.30768884 170.50182576 -55.60095215 168.8032074 C-50.75509687 163.98149957 -45.90349635 159.16560401 -41.04736328 154.35424805 C-38.05647882 151.39041415 -35.07070638 148.4215054 -32.08784485 145.44959831 C-30.96404429 144.33192593 -29.83836168 143.21614207 -28.71061707 142.10244942 C-21.73813377 135.21612783 -15.2581161 128.17081289 -9.21875 120.4296875 C-8.13466858 119.04258324 -8.13466858 119.04258324 -7.02868652 117.62745667 C5.06611419 101.93639657 11.55291626 84.25463702 10.20605469 64.37988281 C8.99455565 55.96623086 5.23214116 48.10442145 1.95019531 40.32763672 C-8.56962863 14.24778915 -8.56962863 14.24778915 -4.03125 2.3046875 C-2.21875 0.4296875 -2.21875 0.4296875 0 0 Z " fill="#FDFEFE" transform="translate(529.21875,507.5703125)"/>
<path d="M0 0 C3.55636361 1.62411551 4.9018686 3.82120979 7.1640625 6.98828125 C7.1640625 7.64828125 7.1640625 8.30828125 7.1640625 8.98828125 C5.56616211 10.29418945 5.56616211 10.29418945 3.31640625 11.7890625 C2.49052002 12.34762939 1.66463379 12.90619629 0.8137207 13.48168945 C-0.0812915 14.08198975 -0.97630371 14.68229004 -1.8984375 15.30078125 C-11.12618309 21.6227826 -19.6357892 28.39005041 -27.8359375 35.98828125 C-28.69574219 36.7771875 -29.55554688 37.56609375 -30.44140625 38.37890625 C-37.98040254 45.59350511 -44.1576827 53.80585949 -49.2109375 62.92578125 C-70.40640001 100.28644673 -130.31336836 138.3247325 -171.04345703 150.59692383 C-184.08987849 154.14671928 -195.10969691 151.69821367 -206.8828125 145.34375 C-218.81837729 138.04063508 -229.93238926 127.93942406 -233.8359375 113.98828125 C-234.53464392 108.83081944 -234.55503509 104.58280198 -232.3984375 99.80078125 C-220.09847755 86.30082521 -203.53796499 77.05403423 -187.8359375 67.98828125 C-186.64532715 67.29943848 -186.64532715 67.29943848 -185.43066406 66.59667969 C-176.08255042 61.20801622 -166.67395895 55.94021043 -157.14453125 50.87890625 C-156.48676193 50.52949478 -155.82899261 50.18008331 -155.15129089 49.82008362 C-151.93119303 48.11201372 -148.70746625 46.41126573 -145.47827148 44.72045898 C-144.27195827 44.08449995 -143.06565886 43.44851473 -141.859375 42.8125 C-140.81700684 42.26682373 -139.77463867 41.72114746 -138.70068359 41.15893555 C-136.32700683 39.90409029 -134.20691189 38.54408061 -132.00621033 36.99000549 C-123.7834712 31.35996184 -117.57078867 29.95214576 -107.54296875 30.3671875 C-106.19614367 30.38667748 -104.8492271 30.40053976 -103.50228882 30.40919495 C-100.6726013 30.42818079 -97.84366692 30.46072209 -95.01425171 30.50421143 C-69.21118523 30.83705494 -47.88490047 29.27177257 -26.05078125 14.19726562 C-22.02928193 11.43401184 -17.87544295 8.94258528 -13.67895508 6.45654297 C-11.98192583 5.43835662 -10.30220347 4.39036277 -8.6472168 3.30517578 C-3.51807864 -0.01453752 -3.51807864 -0.01453752 0 0 Z " fill="#FDFEFE" transform="translate(297.8359375,533.01171875)"/>
<path d="M0 0 C3.04109913 5.94396649 1.61586976 12.91976585 0.375 19.25 C-1.62305621 28.14900381 -1.62305621 28.14900381 0.484375 36.703125 C3.58628557 40.48069926 7.29107397 43.46515054 11.06201172 46.5534668 C18.06293686 52.29373938 23.42041324 58.01002612 28.375 65.6875 C28.849375 66.37714844 29.32375 67.06679688 29.8125 67.77734375 C32.76059876 72.94675304 32.80780873 78.43393086 32.9375 84.25 C32.96465088 85.05381104 32.99180176 85.85762207 33.01977539 86.68579102 C32.97881666 92.83023001 31.25240149 96.9303971 27.375 101.6875 C8.4104284 120.37248265 -30.47101881 117.75036075 -55.50390625 119.4375 C-56.42759506 119.50046265 -57.35128387 119.56342529 -58.30296326 119.6282959 C-62.82487451 119.93558367 -67.34698972 120.23261541 -71.87084961 120.50976562 C-82.62247476 121.20058979 -93.06912467 122.51458759 -103.625 124.6875 C-104.81283081 124.91530151 -104.81283081 124.91530151 -106.0246582 125.14770508 C-107.86969728 125.5649495 -107.86969728 125.5649495 -108.73046875 127.79296875 C-109.02566406 128.74816406 -109.32085938 129.70335937 -109.625 130.6875 C-109.99238281 131.77675781 -110.35976563 132.86601562 -110.73828125 133.98828125 C-113.85606047 144.1466671 -115.76541038 154.46209596 -117.4375 164.9375 C-117.54840973 165.61164948 -117.65931946 166.28579895 -117.77359009 166.9803772 C-119.77718611 179.28166829 -120.65306126 191.42547298 -118.375 203.75 C-118.1747522 204.89166626 -118.1747522 204.89166626 -117.97045898 206.05639648 C-116.94176776 211.63576861 -115.43141604 216.96367888 -113.67578125 222.359375 C-109.89302768 234.34043834 -107.29644651 246.05079355 -108.625 258.6875 C-109.285 259.6775 -109.945 260.6675 -110.625 261.6875 C-115.06137584 260.21200893 -116.55536615 256.89757955 -118.625 253 C-119.00309814 252.30519531 -119.38119629 251.61039063 -119.77075195 250.89453125 C-120.60776397 249.34772902 -121.43856576 247.79755522 -122.26416016 246.24462891 C-123.71773788 243.51323798 -125.19321915 240.79423003 -126.66796875 238.07421875 C-132.51124414 227.19426343 -137.82665338 216.45861379 -141.625 204.6875 C-141.88917725 203.92187744 -142.15335449 203.15625488 -142.42553711 202.36743164 C-144.39033862 196.39040888 -145.13646592 191.02888441 -145.0625 184.75 C-145.05492676 183.80962891 -145.04735352 182.86925781 -145.03955078 181.90039062 C-144.76586801 169.6665712 -142.7374036 157.71487906 -140.625 145.6875 C-140.39675839 144.32829724 -140.16957551 142.96891634 -139.94335938 141.609375 C-139.36269825 138.13662829 -138.75048395 134.67073996 -138.11553955 131.20751953 C-137.75643297 129.22304946 -137.41975239 127.23456319 -137.08349609 125.24609375 C-136.85227051 124.04082031 -136.62104492 122.83554687 -136.3828125 121.59375 C-136.09108154 119.98983398 -136.09108154 119.98983398 -135.79345703 118.35351562 C-134.625 115.6875 -134.625 115.6875 -131.96484375 113.94213867 C-128.47491486 112.63111933 -125.04805845 111.60730138 -121.4296875 110.70703125 C-120.73732498 110.53320419 -120.04496246 110.35937714 -119.33161926 110.18028259 C-117.05633913 109.6120651 -114.77847552 109.055256 -112.5 108.5 C-111.71033844 108.30563354 -110.92067688 108.11126709 -110.10708618 107.91101074 C-79.26880706 100.3216902 -48.28020762 92.91762323 -16.625 89.6875 C-16.41485273 72.4936321 -18.93223669 58.6807765 -30.1484375 45.16015625 C-31.625 42.6875 -31.625 42.6875 -31.4140625 39.93359375 C-30.625 37.6875 -30.625 37.6875 -29.625 36.6875 C-29.18170413 33.79293391 -29.18170413 33.79293391 -29.625 30.6875 C-31.39720674 28.65501232 -31.39720674 28.65501232 -33.9375 27.1875 C-34.84113281 26.60355469 -35.74476563 26.01960938 -36.67578125 25.41796875 C-40.50038865 23.17386136 -44.39777791 21.10489498 -48.375 19.14453125 C-50.84255843 17.54661581 -51.6021364 16.40157559 -52.625 13.6875 C-44.25940965 9.51737996 -35.8310728 5.89203282 -27 2.8125 C-26.14760742 2.514646 -25.29521484 2.21679199 -24.41699219 1.90991211 C-16.84983839 -0.67691114 -7.61128272 -3.80564136 0 0 Z " fill="#FBFDFE" transform="translate(636.625,325.3125)"/>
<path d="M0 0 C3 1 3 1 4.14746094 2.99023438 C4.50614258 3.84939453 4.86482422 4.70855469 5.234375 5.59375 C5.64429688 6.5425 6.05421875 7.49125 6.4765625 8.46875 C7.31201854 10.45744291 8.14542261 12.44699937 8.9765625 14.4375 C15.55548137 29.63848024 24.90029025 36.81462022 40.078125 42.95703125 C41.04234375 43.30121094 42.0065625 43.64539063 43 44 C43.94544678 44.34820801 44.89089355 44.69641602 45.86499023 45.05517578 C51.48044183 46.63062777 57.30131316 46.22475784 63.08203125 46.16015625 C64.95782112 46.1523539 64.95782112 46.1523539 66.87150574 46.14439392 C70.1768033 46.1296421 73.48189916 46.10676074 76.78710938 46.07904053 C81.46037825 46.04087587 86.13368179 46.01340823 90.80705261 45.99131775 C93.29220338 45.97903248 95.77733441 45.96140183 98.2624054 45.93800354 C99.38084335 45.93147263 100.49928131 45.92494171 101.65161133 45.91821289 C102.63865555 45.90995987 103.62569977 45.90170685 104.64265442 45.89320374 C107 46 107 46 109 47 C108.242876 52.11058699 105.1236154 55.15425165 101.109375 58.17578125 C76.94242755 73.54708387 44.50037971 90.05503501 15 86 C12.65514647 85.02732002 10.32024544 84.0300027 8 83 C6.68 83 5.36 83 4 83 C3.525625 84.134375 3.05125 85.26875 2.5625 86.4375 C2.29566406 87.07558594 2.02882813 87.71367188 1.75390625 88.37109375 C-2.83471547 104.37183165 -1.95020426 124.67553382 4.23486328 140.03320312 C5.04728474 142.12154622 5.74756146 144.22629429 6.43359375 146.359375 C16.98893411 178.81179268 32.85144714 209.61221113 50 239 C50.51062988 239.87672363 51.02125977 240.75344727 51.54736328 241.65673828 C69.88953077 273.017069 90.82562206 303.23497793 116.77099609 328.80517578 C120.46327924 332.44571138 124.02942741 336.11997904 127.37109375 340.08984375 C130.23699238 343.4505738 133.27456377 346.66004707 136.27734375 349.8984375 C138 352 138 352 138 354 C119.20840364 351.018802 100.35229557 331.23797515 87 319 C85.93395942 318.03865685 84.86753392 317.07774042 83.80078125 316.1171875 C72.63542677 306.01263947 63.11708639 294.9572508 54 283 C53.32300049 282.11634766 53.32300049 282.11634766 52.63232422 281.21484375 C40.59315382 265.42292294 30.29076918 248.53443772 21 231 C20.56333008 230.18257324 20.12666016 229.36514648 19.67675781 228.52294922 C11.52867092 213.15656072 5.08900942 197.27407736 -1 181 C-1.36746338 180.03860107 -1.73492676 179.07720215 -2.11352539 178.08666992 C-4.39035345 172.02916648 -6.13688392 165.99686264 -7.5625 159.6875 C-7.77229492 158.78032227 -7.98208984 157.87314453 -8.19824219 156.93847656 C-8.80662678 154.29401905 -9.40453038 151.64739092 -10 149 C-10.16419434 148.28215332 -10.32838867 147.56430664 -10.49755859 146.82470703 C-12.74388443 136.99187101 -14.16019377 127.55742152 -14.1328125 117.46875 C-14.13422241 116.68342392 -14.13563232 115.89809784 -14.13708496 115.088974 C-14.13920355 112.55926882 -14.13295322 110.02969232 -14.125 107.5 C-14.1234491 106.63206818 -14.12189819 105.76413635 -14.12030029 104.86990356 C-14.09032556 90.56355501 -13.89654016 76.28220935 -13 62 C-12.94086426 61.04367676 -12.88172852 60.08735352 -12.82080078 59.10205078 C-11.4539348 38.36951107 -6.21553888 19.76551845 0 0 Z " fill="#FBFDFE" transform="translate(352,606)"/>
<path d="M0 0 C6.28623447 0.80006621 10.26890255 7.32222504 14 12 C17.65440384 16.86244118 21.09867412 21.87426589 24.54492188 26.88525391 C37.41543407 46.74433048 37.41543407 46.74433048 57 59 C58.3979794 59.10044028 59.80013667 59.14822677 61.20166016 59.16113281 C62.04749664 59.17074036 62.89333313 59.1803479 63.76480103 59.19024658 C64.68030731 59.19449646 65.5958136 59.19874634 66.5390625 59.203125 C67.97045059 59.21167511 67.97045059 59.21167511 69.43075562 59.22039795 C71.46001071 59.22985565 73.48928121 59.23638498 75.51855469 59.24023438 C78.56474495 59.24981058 81.61022192 59.28077054 84.65625 59.3125 C102.21577742 59.41188101 117.4975528 56.87021176 134.125 51.375 C136.60515991 50.56536102 139.08688742 49.76050506 141.5703125 48.9609375 C142.64039551 48.60821777 143.71047852 48.25549805 144.81298828 47.89208984 C148.24762821 46.93068535 151.43725345 46.23645372 155 46 C159.81234961 50.3845852 161.62178113 54.86514743 162.40625 61.3671875 C162.58483164 68.04911714 162.67471552 73.14589996 158.0390625 78.25390625 C149.0785523 85.92698682 140.39854647 89.01269273 128.8828125 90.109375 C128.01431671 90.19346619 127.14582092 90.27755737 126.25100708 90.36419678 C117.34667442 91.15964531 108.47073567 91.30345452 99.53564453 91.26074219 C96.86858564 91.2499741 94.20219571 91.26074893 91.53515625 91.2734375 C83.01594673 91.28097126 74.5917131 91.0287719 66.1171875 90.1171875 C65.39570526 90.04075012 64.67422302 89.96431274 63.93087769 89.88555908 C44.96479505 87.59900523 25.7349322 74.87926248 14.0625 60.125 C8.1844601 51.85101992 3 41.33919731 3 31 C1.31970703 31.63228516 1.31970703 31.63228516 -0.39453125 32.27734375 C-1.86717658 32.83075824 -3.33983343 33.38414205 -4.8125 33.9375 C-5.55048828 34.21529297 -6.28847656 34.49308594 -7.04882812 34.77929688 C-8.11713867 35.18051758 -8.11713867 35.18051758 -9.20703125 35.58984375 C-10.18893433 35.95903931 -10.18893433 35.95903931 -11.19067383 36.33569336 C-16.78317204 38.38901783 -22.51062585 39.36754031 -28.22265625 37.12890625 C-36.03234729 32.5393961 -41.39856897 25.22273635 -45 17 C-45 16.01 -45 15.02 -45 14 C-39.71557741 14.62696539 -35.78756718 17.36680401 -31.43554688 20.20507812 C-26.74136406 23.07345724 -23.49251724 23.45674617 -18 23 C-8.5599602 19.31608203 -3.90894718 8.5910927 0 0 Z " fill="#FCFEFE" transform="translate(353,545)"/>
<path d="M0 0 C1.25176025 0.01135986 1.25176025 0.01135986 2.52880859 0.02294922 C9.18888229 0.20015452 14.75527641 1.27430437 20.6875 4.4375 C21.48414063 4.86160156 22.28078125 5.28570312 23.1015625 5.72265625 C33.76809187 12.12614127 40.11140797 23.16583719 43.375 34.9375 C45.79669328 45.55992734 46.84753321 56.55524203 46.6875 67.4375 C43.8953095 66.16450132 41.92559049 64.8342365 39.75 62.6875 C34.74787491 58.29722283 28.79648047 55.92661584 22.6875 53.4375 C21.8625 53.09332031 21.0375 52.74914062 20.1875 52.39453125 C10.0264916 48.73862789 -0.3831977 48.77249042 -10.25024414 53.00488281 C-20.73535297 57.95046514 -30.19221971 64.44632732 -39.52929688 71.2734375 C-41.3125 72.4375 -41.3125 72.4375 -44.3125 73.4375 C-48.3620524 55.06540677 -45.49802604 36.31740547 -35.875 20.25 C-27.14254831 7.74497599 -15.52181508 -0.19799035 0 0 Z " fill="#FCFEFE" transform="translate(402.3125,270.5625)"/>
<path d="M0 0 C3.57156979 0.43733508 6.89664632 0.96848679 10.34375 2.01953125 C20.20774547 4.66468388 30.54982942 2.87932651 40.5 1.5 C48.94183062 0.33945841 57.22581336 -0.30163424 65.75 -0.3125 C66.72001953 -0.31765625 67.69003906 -0.3228125 68.68945312 -0.328125 C73.08276432 -0.28416048 76.11924681 -0.22175884 80 2 C79.43192627 2.12528076 78.86385254 2.25056152 78.27856445 2.37963867 C52.17210173 8.19837417 30.74815348 18.23686965 9.37719727 34.16430664 C-11.44885604 49.6761817 -30.20741304 55.7672452 -56.00390625 58.4140625 C-74.96622498 60.53717612 -96.52763894 66.05104537 -111 79 C-112.26650391 80.12341797 -112.26650391 80.12341797 -113.55859375 81.26953125 C-115.2778937 82.81000357 -116.99168805 84.35664854 -118.69921875 85.91015625 C-126.5046729 93 -126.5046729 93 -129 93 C-129 84.36950582 -125.77331932 79.29646799 -120 73 C-110.13083217 64.02512569 -97.32949079 58.88169973 -85.24975586 53.59057617 C-70.10986296 47.40144208 -70.10986296 47.40144208 -59 36 C-58.13472638 33.02687958 -57.50560574 30.05359253 -57 27 C-56.40574219 27.144375 -55.81148438 27.28875 -55.19921875 27.4375 C-40.13101031 30.8120288 -23.9716548 28.56639831 -10.69140625 20.25 C-5.96196888 16.75480379 -1.6363749 12.6637895 -0.59765625 6.68359375 C-0.3431587 4.4558686 -0.141368 2.23751418 0 0 Z " fill="#FAFDFE" transform="translate(434,386)"/>
<path d="M0 0 C0.71766359 6.81780411 0.71766359 6.81780411 -1.08325195 9.78442383 C-4.83956252 14.06565552 -8.71589323 17.15964568 -13.5625 20.125 C-14.30153564 20.58962646 -15.04057129 21.05425293 -15.80200195 21.53295898 C-18.19469786 23.03290622 -20.59724688 24.51623007 -23 26 C-24.57614067 26.98729242 -26.15165805 27.97558053 -27.7265625 28.96484375 C-38.60722989 35.7736917 -49.60624695 42.38197315 -60.62176514 48.96917725 C-69.55778165 54.31356625 -78.45463221 59.71419308 -87.3125 65.1875 C-102.4276307 74.52153117 -117.65848536 83.65749497 -132.9453125 92.70703125 C-135.71366459 94.34614668 -138.48190557 95.98544947 -141.25 97.625 C-141.93559998 98.03103455 -142.62119995 98.43706909 -143.32757568 98.85540771 C-152.53843279 104.31356217 -161.69227768 109.85055577 -170.77905273 115.51367188 C-178.75438232 120.48276392 -186.80004474 125.32774492 -194.87304688 130.13623047 C-197.23218285 131.54235508 -199.59018846 132.95029517 -201.94726562 134.35986328 C-205.58509168 136.53520914 -209.22486735 138.70726226 -212.86581421 140.87738037 C-214.32488722 141.74758229 -215.78340838 142.61871018 -217.24136353 143.49078369 C-219.29597926 144.71930227 -221.35278571 145.94407072 -223.41015625 147.16796875 C-224.03114197 147.54031143 -224.65212769 147.91265411 -225.29193115 148.29627991 C-227.8484182 149.81270115 -230.16888884 151.05629628 -233 152 C-233.57953402 148.50848641 -233.66851572 145.48570336 -233 142 C-228.17029662 136.09008698 -221.23642152 131.94523519 -214.75 128.0625 C-213.86521973 127.52310791 -212.98043945 126.98371582 -212.06884766 126.42797852 C-203.59945621 121.29323812 -195.03433784 116.31817834 -186.47720337 111.33157349 C-178.30178006 106.56625787 -170.21366997 101.69741706 -162.24291992 96.59521484 C-155.28530496 92.15034354 -148.24607617 87.8443547 -141.1875 83.5625 C-140.58428925 83.19656738 -139.98107849 82.83063477 -139.35958862 82.45361328 C-130.73502246 77.22616638 -122.07068706 72.06896512 -113.37670898 66.95776367 C-102.80934325 60.73275442 -92.3383509 54.34877578 -81.86689758 47.96427917 C-78.49763979 45.91034285 -75.12400005 43.8638961 -71.74609375 41.82421875 C-64.7205404 37.57260317 -57.79519884 33.23728079 -51 28.625 C-46.36169072 25.47824199 -41.72479358 22.72055588 -36.65234375 20.33203125 C-26.23696183 15.10133134 -14.90819086 8.71077111 -5.94921875 1.3046875 C-4 0 -4 0 0 0 Z " fill="#F9FCFE" transform="translate(594,355)"/>
<path d="M0 0 C5.18919064 3.28152865 9.86227905 7.80420156 11.80078125 13.78125 C13.10831979 20.88118427 12.7982599 27.5592563 9.19140625 33.90234375 C5.98532029 38.44429886 2.62138422 42.28509574 -2.80859375 43.90234375 C-10.4672586 44.81591916 -17.88214264 45.27998222 -24.23046875 40.39453125 C-29.10656633 35.78396374 -32.40237768 31.4813211 -33.1796875 24.6328125 C-33.32209543 17.03493051 -33.10741244 11.61621352 -27.80859375 5.90234375 C-20.27514318 -1.59257254 -10.10556822 -3.94946408 0 0 Z " fill="#FCFEFE" transform="translate(338.80859375,490.09765625)"/>
</svg>
