<svg width="24" height="24" viewBox="0 0 24 24" fill="none" xmlns="http://www.w3.org/2000/svg">
<path d="M22.2677 2.74671L22.269 2.74701C22.2943 2.75282 22.3146 2.77556 22.3146 2.80655C22.3146 13.5905 13.5741 22.3144 2.80676 22.3144C2.77801 22.3144 2.75357 22.2959 2.7468 22.267C2.74679 22.2669 2.74678 22.2669 2.74677 22.2668L1.68631 17.6715C1.68631 17.6715 1.68631 17.6715 1.6863 17.6715C1.68089 17.6478 1.69228 17.6103 1.73085 17.5923L6.67464 15.4735C6.69588 15.4644 6.72437 15.4686 6.74443 15.4927C8.28343 17.373 11.1182 18.1833 13.2703 16.5389C14.5053 15.5954 15.6065 14.4912 16.543 13.2651C18.1865 11.1133 17.3779 8.27899 15.4974 6.7398L15.4974 6.73978L15.4921 6.73552C15.4852 6.73 15.4788 6.72136 15.4755 6.70776C15.4721 6.69391 15.4735 6.68097 15.4782 6.67001L17.5979 1.72401C17.598 1.72374 17.5981 1.72347 17.5982 1.72319C17.6037 1.71106 17.6136 1.6999 17.629 1.6921C17.6445 1.68425 17.6588 1.68316 17.6716 1.68608C17.6717 1.68609 17.6717 1.6861 17.6717 1.6861L22.2677 2.74671Z" stroke="white" stroke-width="2"/>
</svg>
